<svg width="24" height="25" viewBox="0 0 24 25" fill="none" xmlns="http://www.w3.org/2000/svg">
<path d="M18.8416 12.398C18.8416 16.3259 15.6573 19.5101 11.7294 19.5101C7.80145 19.5101 4.61719 16.3259 4.61719 12.398C4.61719 8.47001 7.80145 5.28582 11.7294 5.28582C15.6573 5.28582 18.8416 8.47001 18.8416 12.398Z" fill="#FF8B00"/>
<path d="M7.80371 18.3289C8.9288 19.0751 10.2783 19.5101 11.7295 19.5101C15.2401 19.5101 18.1563 16.9666 18.7364 13.6218" stroke="#17689C" stroke-width="1.2" stroke-miterlimit="10" stroke-linecap="round" stroke-linejoin="round"/>
<path d="M18.7305 11.1393C18.1362 7.81166 15.2277 5.28572 11.7293 5.28572C7.80138 5.28572 4.61719 8.46998 4.61719 12.3979C4.61719 13.978 5.1327 15.4374 6.00429 16.6179" stroke="#17689C" stroke-width="1.2" stroke-miterlimit="10" stroke-linecap="round" stroke-linejoin="round"/>
<path d="M11.7295 1.33343V3.08908" stroke="#17689C" stroke-width="1.2" stroke-miterlimit="10" stroke-linecap="round" stroke-linejoin="round"/>
<path d="M11.7295 21.707V23.4626" stroke="#17689C" stroke-width="1.2" stroke-miterlimit="10" stroke-linecap="round" stroke-linejoin="round"/>
<path d="M7.94531 2.00055L8.54577 3.65027" stroke="#17689C" stroke-width="1.2" stroke-miterlimit="10" stroke-linecap="round" stroke-linejoin="round"/>
<path d="M14.9131 21.1456L15.5135 22.7953" stroke="#17689C" stroke-width="1.2" stroke-miterlimit="10" stroke-linecap="round" stroke-linejoin="round"/>
<path d="M4.61719 3.92195L5.7457 5.26682" stroke="#17689C" stroke-width="1.2" stroke-miterlimit="10" stroke-linecap="round" stroke-linejoin="round"/>
<path d="M17.7129 19.529L18.8414 20.8739" stroke="#17689C" stroke-width="1.2" stroke-miterlimit="10" stroke-linecap="round" stroke-linejoin="round"/>
<path d="M2.14746 6.8657L3.66785 7.74353" stroke="#17689C" stroke-width="1.2" stroke-miterlimit="10" stroke-linecap="round" stroke-linejoin="round"/>
<path d="M19.791 17.0525L21.3114 17.9302" stroke="#17689C" stroke-width="1.2" stroke-miterlimit="10" stroke-linecap="round" stroke-linejoin="round"/>
<path d="M0.833008 10.4766L2.56191 10.7815" stroke="#17689C" stroke-width="1.2" stroke-miterlimit="10" stroke-linecap="round" stroke-linejoin="round"/>
<path d="M20.8975 14.0145L22.6264 14.3194" stroke="#17689C" stroke-width="1.2" stroke-miterlimit="10" stroke-linecap="round" stroke-linejoin="round"/>
<path d="M0.833008 14.3194L2.56191 14.0145" stroke="#17689C" stroke-width="1.2" stroke-miterlimit="10" stroke-linecap="round" stroke-linejoin="round"/>
<path d="M20.8975 10.7815L22.6264 10.4766" stroke="#17689C" stroke-width="1.2" stroke-miterlimit="10" stroke-linecap="round" stroke-linejoin="round"/>
<path d="M2.14746 17.9302L3.66785 17.0525" stroke="#17689C" stroke-width="1.2" stroke-miterlimit="10" stroke-linecap="round" stroke-linejoin="round"/>
<path d="M19.791 7.74353L21.3114 6.8657" stroke="#17689C" stroke-width="1.2" stroke-miterlimit="10" stroke-linecap="round" stroke-linejoin="round"/>
<path d="M4.61719 20.8739L5.7457 19.529" stroke="#17689C" stroke-width="1.2" stroke-miterlimit="10" stroke-linecap="round" stroke-linejoin="round"/>
<path d="M17.7129 5.26682L18.8414 3.92195" stroke="#17689C" stroke-width="1.2" stroke-miterlimit="10" stroke-linecap="round" stroke-linejoin="round"/>
<path d="M7.94531 22.7953L8.54577 21.1456" stroke="#17689C" stroke-width="1.2" stroke-miterlimit="10" stroke-linecap="round" stroke-linejoin="round"/>
<path d="M14.9131 3.65045L15.5135 2.00073" stroke="#17689C" stroke-width="1.2" stroke-miterlimit="10" stroke-linecap="round" stroke-linejoin="round"/>
</svg>
