<svg width="24" height="24" viewBox="0 0 24 24" fill="none" xmlns="http://www.w3.org/2000/svg">
<g clip-path="url(#clip0_751_3737)">
<path d="M9.08863 11.6953V5.44226C9.08863 4.83909 8.59964 4.3501 7.99646 4.3501C7.39329 4.3501 6.9043 4.83909 6.9043 5.44226" stroke="#17689C" stroke-miterlimit="10" stroke-linecap="round" stroke-linejoin="round"/>
<path d="M6.90503 11.6953V4.3501C6.90503 3.74692 6.41604 3.25793 5.81287 3.25793C5.20969 3.25793 4.7207 3.74692 4.7207 4.3501V11.6953" stroke="#17689C" stroke-miterlimit="10" stroke-linecap="round" stroke-linejoin="round"/>
<path d="M1.48605 18.6133C0.774882 17.6912 0.351562 16.5358 0.351562 15.2813V9.7476C0.351562 9.14443 0.840552 8.65549 1.44373 8.65549C2.0469 8.65549 2.53589 9.14448 2.53589 9.74765" stroke="#17689C" stroke-miterlimit="10" stroke-linecap="round" stroke-linejoin="round"/>
<path d="M2.48047 19.6076C3.40253 20.3188 4.55797 20.7421 5.81246 20.7421C8.82838 20.7421 11.2733 18.2972 11.2733 15.2812V8.71875C11.2733 8.11558 10.7843 7.62659 10.1811 7.62659C9.57794 7.62659 9.08895 8.11558 9.08895 8.71875" stroke="#17689C" stroke-miterlimit="10" stroke-linecap="round" stroke-linejoin="round"/>
<path d="M6.90474 18.0166C6.90474 16.6914 6.10643 15.4967 4.88213 14.9896L3.21032 14.2971C2.80219 14.1281 2.53613 13.7298 2.53613 13.2881V5.44232C2.53613 4.83915 3.02512 4.35016 3.6283 4.35016C4.23147 4.35016 4.72046 4.83915 4.72046 5.44232" stroke="#17689C" stroke-miterlimit="10" stroke-linecap="round" stroke-linejoin="round"/>
<path d="M14.9111 11.6953V5.44226C14.9111 4.83909 15.4001 4.3501 16.0033 4.3501C16.6065 4.3501 17.0955 4.83909 17.0955 5.44226" stroke="#17689C" stroke-miterlimit="10" stroke-linecap="round" stroke-linejoin="round"/>
<path d="M17.0947 11.6953V4.3501C17.0947 3.74692 17.5837 3.25793 18.1869 3.25793C18.7901 3.25793 19.2791 3.74692 19.2791 4.3501V11.6953" stroke="#17689C" stroke-miterlimit="10" stroke-linecap="round" stroke-linejoin="round"/>
<path d="M22.5137 18.6133C23.2249 17.6912 23.6482 16.5358 23.6482 15.2813V9.7476C23.6482 9.14443 23.1592 8.65549 22.556 8.65549C21.9529 8.65549 21.4639 9.14448 21.4639 9.74765" stroke="#17689C" stroke-miterlimit="10" stroke-linecap="round" stroke-linejoin="round"/>
<path d="M21.5194 19.6076C20.5973 20.3188 19.4419 20.7421 18.1874 20.7421C15.1715 20.7421 12.7266 18.2972 12.7266 15.2812V8.71875C12.7266 8.11558 13.2156 7.62659 13.8187 7.62659C14.4219 7.62659 14.9109 8.11558 14.9109 8.71875" stroke="#17689C" stroke-miterlimit="10" stroke-linecap="round" stroke-linejoin="round"/>
<path d="M17.0947 18.0166C17.0947 16.6914 17.893 15.4967 19.1173 14.9896L20.7891 14.2971C21.1973 14.1281 21.4633 13.7298 21.4633 13.2881V5.44232C21.4633 4.83915 20.9743 4.35016 20.3712 4.35016C19.768 4.35016 19.279 4.83915 19.279 5.44232" stroke="#17689C" stroke-miterlimit="10" stroke-linecap="round" stroke-linejoin="round"/>
</g>
<defs>
<clipPath id="clip0_751_3737">
<rect width="24" height="24" fill="white"/>
</clipPath>
</defs>
</svg>
