<svg width="24" height="24" viewBox="0 0 24 24" fill="none" xmlns="http://www.w3.org/2000/svg">
<mask id="path-1-outside-1_751_3730" maskUnits="userSpaceOnUse" x="0.443359" y="-0.609589" width="23" height="25" fill="black">
<rect fill="white" x="0.443359" y="-0.609589" width="23" height="25"/>
<path d="M18.5993 12.6474C18.5507 12.6393 18.501 12.6409 18.453 12.6521C18.405 12.6633 18.3597 12.6838 18.3196 12.7125C18.2796 12.7412 18.2456 12.7775 18.2196 12.8193C18.1936 12.8611 18.176 12.9077 18.168 12.9563C17.6768 15.932 15.0337 18.1759 12.02 18.1759C9.00625 18.1759 6.36329 15.932 5.87214 12.9562C5.85594 12.8581 5.80142 12.7704 5.72057 12.7125C5.63972 12.6545 5.53917 12.6311 5.44103 12.6473C5.34289 12.6635 5.25521 12.718 5.19727 12.7989C5.13933 12.8797 5.11588 12.9803 5.13208 13.0784C5.36817 14.4839 6.02694 15.7841 7.02061 16.8058C8.01428 17.8275 9.29567 18.5221 10.6941 18.7972V23.25C10.6941 23.3495 10.7336 23.4448 10.8039 23.5152C10.8742 23.5855 10.9696 23.625 11.0691 23.625H12.9712C13.0707 23.625 13.1661 23.5855 13.2364 23.5152C13.3067 23.4448 13.3462 23.3495 13.3462 23.25V18.7972C14.7446 18.5221 16.026 17.8275 17.0197 16.8058C18.0134 15.7841 18.6721 14.4839 18.9082 13.0784C18.9244 12.9803 18.9009 12.8797 18.843 12.7989C18.7851 12.7181 18.6974 12.6636 18.5993 12.6474ZM12.5962 22.875H11.4441V18.9015C11.6351 18.9175 11.8272 18.9257 12.0202 18.9259C12.2132 18.9262 12.4052 18.918 12.5962 18.9015V22.875ZM12.0202 17.0464C13.3727 17.0448 14.6695 16.5068 15.6259 15.5504C16.5823 14.594 17.1203 13.2973 17.1218 11.9447V5.47663C17.1177 4.12627 16.5784 2.83261 15.6221 1.8792C14.6658 0.925789 13.3705 0.390411 12.0201 0.390411C10.6698 0.390411 9.37448 0.925789 8.41818 1.8792C7.46188 2.83261 6.92257 4.12627 6.91848 5.47663V11.9447C6.92001 13.2973 7.458 14.5941 8.41442 15.5505C9.37084 16.5069 10.6676 17.0449 12.0202 17.0464ZM12.0202 1.12499C13.109 1.12634 14.1578 1.53527 14.9602 2.27126C15.7626 3.00726 16.2603 4.01699 16.3554 5.10163H13.9887C13.8893 5.10163 13.7939 5.14114 13.7236 5.21147C13.6532 5.2818 13.6137 5.37718 13.6137 5.47663C13.6137 5.57609 13.6532 5.67147 13.7236 5.7418C13.7939 5.81213 13.8893 5.85163 13.9887 5.85163H16.3718V8.33568H13.9887C13.8893 8.33568 13.7939 8.37519 13.7236 8.44552C13.6532 8.51584 13.6137 8.61123 13.6137 8.71068C13.6137 8.81014 13.6532 8.90552 13.7236 8.97585C13.7939 9.04617 13.8893 9.08568 13.9887 9.08568H16.3718V11.5697H13.9887C13.8893 11.5697 13.7939 11.6092 13.7236 11.6796C13.6532 11.7499 13.6137 11.8453 13.6137 11.9447C13.6137 12.0442 13.6532 12.1396 13.7236 12.2099C13.7939 12.2802 13.8893 12.3197 13.9887 12.3197H16.3554C16.2616 13.4049 15.7643 14.4154 14.9616 15.1517C14.1589 15.8879 13.1093 16.2964 12.0201 16.2964C10.9309 16.2964 9.88131 15.8879 9.07865 15.1517C8.27598 14.4154 7.77861 13.4049 7.68479 12.3197H10.0516C10.151 12.3197 10.2464 12.2802 10.3167 12.2099C10.3871 12.1396 10.4266 12.0442 10.4266 11.9447C10.4266 11.8453 10.3871 11.7499 10.3167 11.6796C10.2464 11.6092 10.151 11.5697 10.0516 11.5697H7.66848V9.08568H10.0516C10.151 9.08568 10.2464 9.04617 10.3167 8.97585C10.3871 8.90552 10.4266 8.81014 10.4266 8.71068C10.4266 8.61123 10.3871 8.51584 10.3167 8.44552C10.2464 8.37519 10.151 8.33568 10.0516 8.33568H7.66848V5.85163H10.0516C10.151 5.85163 10.2464 5.81213 10.3167 5.7418C10.3871 5.67147 10.4266 5.57609 10.4266 5.47663C10.4266 5.37718 10.3871 5.2818 10.3167 5.21147C10.2464 5.14114 10.151 5.10163 10.0516 5.10163H7.68479C7.77994 4.01698 8.27771 3.00725 9.0801 2.27126C9.88249 1.53526 10.9314 1.12633 12.0202 1.12499ZM18.3099 9.99557C18.2899 9.95055 18.279 9.90204 18.2778 9.85281C18.2766 9.80358 18.2851 9.75459 18.3028 9.70864C18.3205 9.6627 18.3471 9.62069 18.3811 9.58502C18.415 9.54935 18.4557 9.52072 18.5007 9.50076C18.8038 9.36641 19.0641 9.15124 19.2531 8.87882C19.4421 8.60639 19.5524 8.28722 19.5721 7.95625C19.5918 7.62529 19.52 7.29528 19.3646 7.00239C19.2093 6.70949 18.9763 6.465 18.6912 6.29568C18.6484 6.27077 18.6109 6.23761 18.581 6.19812C18.551 6.15863 18.5292 6.1136 18.5168 6.06563C18.5043 6.01766 18.5015 5.9677 18.5085 5.91863C18.5155 5.86957 18.5321 5.82238 18.5575 5.77979C18.5828 5.7372 18.6163 5.70005 18.6561 5.6705C18.6959 5.64094 18.7411 5.61957 18.7892 5.6076C18.8373 5.59564 18.8873 5.59333 18.9363 5.60081C18.9853 5.60828 19.0323 5.62539 19.0747 5.65115C19.478 5.8908 19.8076 6.2368 20.0273 6.65126C20.2471 7.06572 20.3486 7.53266 20.3208 8.00096C20.2929 8.46926 20.1367 8.92086 19.8693 9.30632C19.6019 9.69178 19.2336 9.99624 18.8047 10.1864C18.7597 10.2064 18.7112 10.2173 18.6619 10.2185C18.6127 10.2198 18.5637 10.2113 18.5177 10.1936C18.4718 10.1758 18.4297 10.1492 18.3941 10.1153C18.3584 10.0813 18.3298 10.0406 18.3099 9.99557ZM22.557 7.80506C22.5565 8.61138 22.3222 9.40028 21.8825 10.0762C21.4428 10.752 20.8165 11.2859 20.0796 11.6131C20.0345 11.6334 19.9858 11.6447 19.9364 11.6462C19.887 11.6476 19.8377 11.6393 19.7915 11.6217C19.7453 11.604 19.703 11.5774 19.6671 11.5434C19.6313 11.5094 19.6025 11.4686 19.5824 11.4233C19.5624 11.3781 19.5515 11.3294 19.5503 11.28C19.5492 11.2305 19.5578 11.1813 19.5758 11.1352C19.5937 11.0891 19.6206 11.0471 19.6549 11.0114C19.6892 10.9758 19.7302 10.9472 19.7755 10.9275C20.3485 10.6736 20.8406 10.2668 21.1978 9.75188C21.5551 9.23693 21.7637 8.6336 21.801 8.00797C21.8382 7.38233 21.7025 6.75852 21.4088 6.20485C21.1151 5.65119 20.6747 5.18901 20.1359 4.86895C20.093 4.84403 20.0556 4.81087 20.0256 4.77139C19.9957 4.7319 19.9738 4.68687 19.9614 4.6389C19.949 4.59092 19.9462 4.54096 19.9531 4.4919C19.9601 4.44284 19.9768 4.39565 20.0021 4.35305C20.0275 4.31046 20.061 4.27332 20.1008 4.24376C20.1405 4.21421 20.1858 4.19283 20.2339 4.18087C20.282 4.16891 20.332 4.1666 20.381 4.17407C20.4299 4.18155 20.477 4.19866 20.5193 4.22442C21.1389 4.59489 21.6521 5.1193 22.0091 5.7467C22.3662 6.3741 22.5549 7.08318 22.557 7.80506ZM3.67511 7.84893C3.67636 7.40585 3.79218 6.97063 4.01132 6.58553C4.23046 6.20044 4.54546 5.87855 4.92573 5.65115C4.96807 5.62539 5.01509 5.60828 5.06409 5.60081C5.11308 5.59333 5.16306 5.59564 5.21116 5.6076C5.25925 5.61957 5.30449 5.64094 5.34427 5.6705C5.38406 5.70005 5.41759 5.7372 5.44292 5.77979C5.46826 5.82238 5.48491 5.86957 5.49189 5.91863C5.49888 5.9677 5.49608 6.01766 5.48364 6.06563C5.4712 6.1136 5.44938 6.15863 5.41943 6.19812C5.38949 6.23761 5.35201 6.27077 5.30917 6.29568C5.02411 6.465 4.79114 6.70949 4.63577 7.00239C4.4804 7.29528 4.40862 7.62529 4.4283 7.95625C4.44797 8.28722 4.55835 8.60639 4.74733 8.87882C4.9363 9.15124 5.1966 9.36641 5.49972 9.50076C5.54507 9.5205 5.58606 9.54902 5.62035 9.58467C5.65463 9.62032 5.68152 9.66241 5.69947 9.7085C5.71742 9.75458 5.72608 9.80377 5.72494 9.85322C5.7238 9.90266 5.7129 9.9514 5.69285 9.99661C5.67279 10.0418 5.644 10.0826 5.60811 10.1167C5.57223 10.1507 5.52996 10.1773 5.48375 10.1949C5.43754 10.2126 5.3883 10.2209 5.33886 10.2194C5.28942 10.218 5.24076 10.2067 5.19568 10.1864C4.74334 9.98552 4.35893 9.65782 4.08905 9.24296C3.81916 8.82809 3.67537 8.34386 3.67511 7.84893ZM4.41573 11.4223C4.3958 11.4674 4.36719 11.508 4.33152 11.542C4.29586 11.576 4.25384 11.6026 4.20789 11.6203C4.16193 11.638 4.11293 11.6465 4.06368 11.6453C4.01444 11.644 3.96593 11.6331 3.92092 11.6131C3.22215 11.3034 2.62206 10.8074 2.18636 10.1795C1.75066 9.55148 1.49616 8.81572 1.45073 8.05276C1.40529 7.28979 1.57067 6.52903 1.92875 5.85378C2.28684 5.17853 2.82382 4.61484 3.4809 4.22442C3.52324 4.19866 3.57027 4.18155 3.61926 4.17407C3.66825 4.1666 3.71824 4.16891 3.76633 4.18087C3.81442 4.19283 3.85967 4.21421 3.89945 4.24376C3.93923 4.27332 3.97276 4.31046 3.99809 4.35305C4.02343 4.39565 4.04008 4.44284 4.04707 4.4919C4.05405 4.54096 4.05125 4.59092 4.03881 4.6389C4.02637 4.68687 4.00455 4.7319 3.9746 4.77139C3.94466 4.81087 3.90718 4.84403 3.86434 4.86895C3.32549 5.18901 2.8851 5.65119 2.59141 6.20485C2.29772 6.75852 2.16205 7.38233 2.19926 8.00797C2.23647 8.6336 2.44512 9.23693 2.80237 9.75188C3.15962 10.2668 3.65168 10.6736 4.22467 10.9275C4.31558 10.9678 4.38676 11.0426 4.42254 11.1354C4.45831 11.2282 4.45577 11.3314 4.41545 11.4223H4.41573Z"/>
</mask>
<path d="M18.5993 12.6474C18.5507 12.6393 18.501 12.6409 18.453 12.6521C18.405 12.6633 18.3597 12.6838 18.3196 12.7125C18.2796 12.7412 18.2456 12.7775 18.2196 12.8193C18.1936 12.8611 18.176 12.9077 18.168 12.9563C17.6768 15.932 15.0337 18.1759 12.02 18.1759C9.00625 18.1759 6.36329 15.932 5.87214 12.9562C5.85594 12.8581 5.80142 12.7704 5.72057 12.7125C5.63972 12.6545 5.53917 12.6311 5.44103 12.6473C5.34289 12.6635 5.25521 12.718 5.19727 12.7989C5.13933 12.8797 5.11588 12.9803 5.13208 13.0784C5.36817 14.4839 6.02694 15.7841 7.02061 16.8058C8.01428 17.8275 9.29567 18.5221 10.6941 18.7972V23.25C10.6941 23.3495 10.7336 23.4448 10.8039 23.5152C10.8742 23.5855 10.9696 23.625 11.0691 23.625H12.9712C13.0707 23.625 13.1661 23.5855 13.2364 23.5152C13.3067 23.4448 13.3462 23.3495 13.3462 23.25V18.7972C14.7446 18.5221 16.026 17.8275 17.0197 16.8058C18.0134 15.7841 18.6721 14.4839 18.9082 13.0784C18.9244 12.9803 18.9009 12.8797 18.843 12.7989C18.7851 12.7181 18.6974 12.6636 18.5993 12.6474ZM12.5962 22.875H11.4441V18.9015C11.6351 18.9175 11.8272 18.9257 12.0202 18.9259C12.2132 18.9262 12.4052 18.918 12.5962 18.9015V22.875ZM12.0202 17.0464C13.3727 17.0448 14.6695 16.5068 15.6259 15.5504C16.5823 14.594 17.1203 13.2973 17.1218 11.9447V5.47663C17.1177 4.12627 16.5784 2.83261 15.6221 1.8792C14.6658 0.925789 13.3705 0.390411 12.0201 0.390411C10.6698 0.390411 9.37448 0.925789 8.41818 1.8792C7.46188 2.83261 6.92257 4.12627 6.91848 5.47663V11.9447C6.92001 13.2973 7.458 14.5941 8.41442 15.5505C9.37084 16.5069 10.6676 17.0449 12.0202 17.0464ZM12.0202 1.12499C13.109 1.12634 14.1578 1.53527 14.9602 2.27126C15.7626 3.00726 16.2603 4.01699 16.3554 5.10163H13.9887C13.8893 5.10163 13.7939 5.14114 13.7236 5.21147C13.6532 5.2818 13.6137 5.37718 13.6137 5.47663C13.6137 5.57609 13.6532 5.67147 13.7236 5.7418C13.7939 5.81213 13.8893 5.85163 13.9887 5.85163H16.3718V8.33568H13.9887C13.8893 8.33568 13.7939 8.37519 13.7236 8.44552C13.6532 8.51584 13.6137 8.61123 13.6137 8.71068C13.6137 8.81014 13.6532 8.90552 13.7236 8.97585C13.7939 9.04617 13.8893 9.08568 13.9887 9.08568H16.3718V11.5697H13.9887C13.8893 11.5697 13.7939 11.6092 13.7236 11.6796C13.6532 11.7499 13.6137 11.8453 13.6137 11.9447C13.6137 12.0442 13.6532 12.1396 13.7236 12.2099C13.7939 12.2802 13.8893 12.3197 13.9887 12.3197H16.3554C16.2616 13.4049 15.7643 14.4154 14.9616 15.1517C14.1589 15.8879 13.1093 16.2964 12.0201 16.2964C10.9309 16.2964 9.88131 15.8879 9.07865 15.1517C8.27598 14.4154 7.77861 13.4049 7.68479 12.3197H10.0516C10.151 12.3197 10.2464 12.2802 10.3167 12.2099C10.3871 12.1396 10.4266 12.0442 10.4266 11.9447C10.4266 11.8453 10.3871 11.7499 10.3167 11.6796C10.2464 11.6092 10.151 11.5697 10.0516 11.5697H7.66848V9.08568H10.0516C10.151 9.08568 10.2464 9.04617 10.3167 8.97585C10.3871 8.90552 10.4266 8.81014 10.4266 8.71068C10.4266 8.61123 10.3871 8.51584 10.3167 8.44552C10.2464 8.37519 10.151 8.33568 10.0516 8.33568H7.66848V5.85163H10.0516C10.151 5.85163 10.2464 5.81213 10.3167 5.7418C10.3871 5.67147 10.4266 5.57609 10.4266 5.47663C10.4266 5.37718 10.3871 5.2818 10.3167 5.21147C10.2464 5.14114 10.151 5.10163 10.0516 5.10163H7.68479C7.77994 4.01698 8.27771 3.00725 9.0801 2.27126C9.88249 1.53526 10.9314 1.12633 12.0202 1.12499ZM18.3099 9.99557C18.2899 9.95055 18.279 9.90204 18.2778 9.85281C18.2766 9.80358 18.2851 9.75459 18.3028 9.70864C18.3205 9.6627 18.3471 9.62069 18.3811 9.58502C18.415 9.54935 18.4557 9.52072 18.5007 9.50076C18.8038 9.36641 19.0641 9.15124 19.2531 8.87882C19.4421 8.60639 19.5524 8.28722 19.5721 7.95625C19.5918 7.62529 19.52 7.29528 19.3646 7.00239C19.2093 6.70949 18.9763 6.465 18.6912 6.29568C18.6484 6.27077 18.6109 6.23761 18.581 6.19812C18.551 6.15863 18.5292 6.1136 18.5168 6.06563C18.5043 6.01766 18.5015 5.9677 18.5085 5.91863C18.5155 5.86957 18.5321 5.82238 18.5575 5.77979C18.5828 5.7372 18.6163 5.70005 18.6561 5.6705C18.6959 5.64094 18.7411 5.61957 18.7892 5.6076C18.8373 5.59564 18.8873 5.59333 18.9363 5.60081C18.9853 5.60828 19.0323 5.62539 19.0747 5.65115C19.478 5.8908 19.8076 6.2368 20.0273 6.65126C20.2471 7.06572 20.3486 7.53266 20.3208 8.00096C20.2929 8.46926 20.1367 8.92086 19.8693 9.30632C19.6019 9.69178 19.2336 9.99624 18.8047 10.1864C18.7597 10.2064 18.7112 10.2173 18.6619 10.2185C18.6127 10.2198 18.5637 10.2113 18.5177 10.1936C18.4718 10.1758 18.4297 10.1492 18.3941 10.1153C18.3584 10.0813 18.3298 10.0406 18.3099 9.99557ZM22.557 7.80506C22.5565 8.61138 22.3222 9.40028 21.8825 10.0762C21.4428 10.752 20.8165 11.2859 20.0796 11.6131C20.0345 11.6334 19.9858 11.6447 19.9364 11.6462C19.887 11.6476 19.8377 11.6393 19.7915 11.6217C19.7453 11.604 19.703 11.5774 19.6671 11.5434C19.6313 11.5094 19.6025 11.4686 19.5824 11.4233C19.5624 11.3781 19.5515 11.3294 19.5503 11.28C19.5492 11.2305 19.5578 11.1813 19.5758 11.1352C19.5937 11.0891 19.6206 11.0471 19.6549 11.0114C19.6892 10.9758 19.7302 10.9472 19.7755 10.9275C20.3485 10.6736 20.8406 10.2668 21.1978 9.75188C21.5551 9.23693 21.7637 8.6336 21.801 8.00797C21.8382 7.38233 21.7025 6.75852 21.4088 6.20485C21.1151 5.65119 20.6747 5.18901 20.1359 4.86895C20.093 4.84403 20.0556 4.81087 20.0256 4.77139C19.9957 4.7319 19.9738 4.68687 19.9614 4.6389C19.949 4.59092 19.9462 4.54096 19.9531 4.4919C19.9601 4.44284 19.9768 4.39565 20.0021 4.35305C20.0275 4.31046 20.061 4.27332 20.1008 4.24376C20.1405 4.21421 20.1858 4.19283 20.2339 4.18087C20.282 4.16891 20.332 4.1666 20.381 4.17407C20.4299 4.18155 20.477 4.19866 20.5193 4.22442C21.1389 4.59489 21.6521 5.1193 22.0091 5.7467C22.3662 6.3741 22.5549 7.08318 22.557 7.80506ZM3.67511 7.84893C3.67636 7.40585 3.79218 6.97063 4.01132 6.58553C4.23046 6.20044 4.54546 5.87855 4.92573 5.65115C4.96807 5.62539 5.01509 5.60828 5.06409 5.60081C5.11308 5.59333 5.16306 5.59564 5.21116 5.6076C5.25925 5.61957 5.30449 5.64094 5.34427 5.6705C5.38406 5.70005 5.41759 5.7372 5.44292 5.77979C5.46826 5.82238 5.48491 5.86957 5.49189 5.91863C5.49888 5.9677 5.49608 6.01766 5.48364 6.06563C5.4712 6.1136 5.44938 6.15863 5.41943 6.19812C5.38949 6.23761 5.35201 6.27077 5.30917 6.29568C5.02411 6.465 4.79114 6.70949 4.63577 7.00239C4.4804 7.29528 4.40862 7.62529 4.4283 7.95625C4.44797 8.28722 4.55835 8.60639 4.74733 8.87882C4.9363 9.15124 5.1966 9.36641 5.49972 9.50076C5.54507 9.5205 5.58606 9.54902 5.62035 9.58467C5.65463 9.62032 5.68152 9.66241 5.69947 9.7085C5.71742 9.75458 5.72608 9.80377 5.72494 9.85322C5.7238 9.90266 5.7129 9.9514 5.69285 9.99661C5.67279 10.0418 5.644 10.0826 5.60811 10.1167C5.57223 10.1507 5.52996 10.1773 5.48375 10.1949C5.43754 10.2126 5.3883 10.2209 5.33886 10.2194C5.28942 10.218 5.24076 10.2067 5.19568 10.1864C4.74334 9.98552 4.35893 9.65782 4.08905 9.24296C3.81916 8.82809 3.67537 8.34386 3.67511 7.84893ZM4.41573 11.4223C4.3958 11.4674 4.36719 11.508 4.33152 11.542C4.29586 11.576 4.25384 11.6026 4.20789 11.6203C4.16193 11.638 4.11293 11.6465 4.06368 11.6453C4.01444 11.644 3.96593 11.6331 3.92092 11.6131C3.22215 11.3034 2.62206 10.8074 2.18636 10.1795C1.75066 9.55148 1.49616 8.81572 1.45073 8.05276C1.40529 7.28979 1.57067 6.52903 1.92875 5.85378C2.28684 5.17853 2.82382 4.61484 3.4809 4.22442C3.52324 4.19866 3.57027 4.18155 3.61926 4.17407C3.66825 4.1666 3.71824 4.16891 3.76633 4.18087C3.81442 4.19283 3.85967 4.21421 3.89945 4.24376C3.93923 4.27332 3.97276 4.31046 3.99809 4.35305C4.02343 4.39565 4.04008 4.44284 4.04707 4.4919C4.05405 4.54096 4.05125 4.59092 4.03881 4.6389C4.02637 4.68687 4.00455 4.7319 3.9746 4.77139C3.94466 4.81087 3.90718 4.84403 3.86434 4.86895C3.32549 5.18901 2.8851 5.65119 2.59141 6.20485C2.29772 6.75852 2.16205 7.38233 2.19926 8.00797C2.23647 8.6336 2.44512 9.23693 2.80237 9.75188C3.15962 10.2668 3.65168 10.6736 4.22467 10.9275C4.31558 10.9678 4.38676 11.0426 4.42254 11.1354C4.45831 11.2282 4.45577 11.3314 4.41545 11.4223H4.41573Z" fill="#17689C"/>
<path d="M18.5993 12.6474C18.5507 12.6393 18.501 12.6409 18.453 12.6521C18.405 12.6633 18.3597 12.6838 18.3196 12.7125C18.2796 12.7412 18.2456 12.7775 18.2196 12.8193C18.1936 12.8611 18.176 12.9077 18.168 12.9563C17.6768 15.932 15.0337 18.1759 12.02 18.1759C9.00625 18.1759 6.36329 15.932 5.87214 12.9562C5.85594 12.8581 5.80142 12.7704 5.72057 12.7125C5.63972 12.6545 5.53917 12.6311 5.44103 12.6473C5.34289 12.6635 5.25521 12.718 5.19727 12.7989C5.13933 12.8797 5.11588 12.9803 5.13208 13.0784C5.36817 14.4839 6.02694 15.7841 7.02061 16.8058C8.01428 17.8275 9.29567 18.5221 10.6941 18.7972V23.25C10.6941 23.3495 10.7336 23.4448 10.8039 23.5152C10.8742 23.5855 10.9696 23.625 11.0691 23.625H12.9712C13.0707 23.625 13.1661 23.5855 13.2364 23.5152C13.3067 23.4448 13.3462 23.3495 13.3462 23.25V18.7972C14.7446 18.5221 16.026 17.8275 17.0197 16.8058C18.0134 15.7841 18.6721 14.4839 18.9082 13.0784C18.9244 12.9803 18.9009 12.8797 18.843 12.7989C18.7851 12.7181 18.6974 12.6636 18.5993 12.6474ZM12.5962 22.875H11.4441V18.9015C11.6351 18.9175 11.8272 18.9257 12.0202 18.9259C12.2132 18.9262 12.4052 18.918 12.5962 18.9015V22.875ZM12.0202 17.0464C13.3727 17.0448 14.6695 16.5068 15.6259 15.5504C16.5823 14.594 17.1203 13.2973 17.1218 11.9447V5.47663C17.1177 4.12627 16.5784 2.83261 15.6221 1.8792C14.6658 0.925789 13.3705 0.390411 12.0201 0.390411C10.6698 0.390411 9.37448 0.925789 8.41818 1.8792C7.46188 2.83261 6.92257 4.12627 6.91848 5.47663V11.9447C6.92001 13.2973 7.458 14.5941 8.41442 15.5505C9.37084 16.5069 10.6676 17.0449 12.0202 17.0464ZM12.0202 1.12499C13.109 1.12634 14.1578 1.53527 14.9602 2.27126C15.7626 3.00726 16.2603 4.01699 16.3554 5.10163H13.9887C13.8893 5.10163 13.7939 5.14114 13.7236 5.21147C13.6532 5.2818 13.6137 5.37718 13.6137 5.47663C13.6137 5.57609 13.6532 5.67147 13.7236 5.7418C13.7939 5.81213 13.8893 5.85163 13.9887 5.85163H16.3718V8.33568H13.9887C13.8893 8.33568 13.7939 8.37519 13.7236 8.44552C13.6532 8.51584 13.6137 8.61123 13.6137 8.71068C13.6137 8.81014 13.6532 8.90552 13.7236 8.97585C13.7939 9.04617 13.8893 9.08568 13.9887 9.08568H16.3718V11.5697H13.9887C13.8893 11.5697 13.7939 11.6092 13.7236 11.6796C13.6532 11.7499 13.6137 11.8453 13.6137 11.9447C13.6137 12.0442 13.6532 12.1396 13.7236 12.2099C13.7939 12.2802 13.8893 12.3197 13.9887 12.3197H16.3554C16.2616 13.4049 15.7643 14.4154 14.9616 15.1517C14.1589 15.8879 13.1093 16.2964 12.0201 16.2964C10.9309 16.2964 9.88131 15.8879 9.07865 15.1517C8.27598 14.4154 7.77861 13.4049 7.68479 12.3197H10.0516C10.151 12.3197 10.2464 12.2802 10.3167 12.2099C10.3871 12.1396 10.4266 12.0442 10.4266 11.9447C10.4266 11.8453 10.3871 11.7499 10.3167 11.6796C10.2464 11.6092 10.151 11.5697 10.0516 11.5697H7.66848V9.08568H10.0516C10.151 9.08568 10.2464 9.04617 10.3167 8.97585C10.3871 8.90552 10.4266 8.81014 10.4266 8.71068C10.4266 8.61123 10.3871 8.51584 10.3167 8.44552C10.2464 8.37519 10.151 8.33568 10.0516 8.33568H7.66848V5.85163H10.0516C10.151 5.85163 10.2464 5.81213 10.3167 5.7418C10.3871 5.67147 10.4266 5.57609 10.4266 5.47663C10.4266 5.37718 10.3871 5.2818 10.3167 5.21147C10.2464 5.14114 10.151 5.10163 10.0516 5.10163H7.68479C7.77994 4.01698 8.27771 3.00725 9.0801 2.27126C9.88249 1.53526 10.9314 1.12633 12.0202 1.12499ZM18.3099 9.99557C18.2899 9.95055 18.279 9.90204 18.2778 9.85281C18.2766 9.80358 18.2851 9.75459 18.3028 9.70864C18.3205 9.6627 18.3471 9.62069 18.3811 9.58502C18.415 9.54935 18.4557 9.52072 18.5007 9.50076C18.8038 9.36641 19.0641 9.15124 19.2531 8.87882C19.4421 8.60639 19.5524 8.28722 19.5721 7.95625C19.5918 7.62529 19.52 7.29528 19.3646 7.00239C19.2093 6.70949 18.9763 6.465 18.6912 6.29568C18.6484 6.27077 18.6109 6.23761 18.581 6.19812C18.551 6.15863 18.5292 6.1136 18.5168 6.06563C18.5043 6.01766 18.5015 5.9677 18.5085 5.91863C18.5155 5.86957 18.5321 5.82238 18.5575 5.77979C18.5828 5.7372 18.6163 5.70005 18.6561 5.6705C18.6959 5.64094 18.7411 5.61957 18.7892 5.6076C18.8373 5.59564 18.8873 5.59333 18.9363 5.60081C18.9853 5.60828 19.0323 5.62539 19.0747 5.65115C19.478 5.8908 19.8076 6.2368 20.0273 6.65126C20.2471 7.06572 20.3486 7.53266 20.3208 8.00096C20.2929 8.46926 20.1367 8.92086 19.8693 9.30632C19.6019 9.69178 19.2336 9.99624 18.8047 10.1864C18.7597 10.2064 18.7112 10.2173 18.6619 10.2185C18.6127 10.2198 18.5637 10.2113 18.5177 10.1936C18.4718 10.1758 18.4297 10.1492 18.3941 10.1153C18.3584 10.0813 18.3298 10.0406 18.3099 9.99557ZM22.557 7.80506C22.5565 8.61138 22.3222 9.40028 21.8825 10.0762C21.4428 10.752 20.8165 11.2859 20.0796 11.6131C20.0345 11.6334 19.9858 11.6447 19.9364 11.6462C19.887 11.6476 19.8377 11.6393 19.7915 11.6217C19.7453 11.604 19.703 11.5774 19.6671 11.5434C19.6313 11.5094 19.6025 11.4686 19.5824 11.4233C19.5624 11.3781 19.5515 11.3294 19.5503 11.28C19.5492 11.2305 19.5578 11.1813 19.5758 11.1352C19.5937 11.0891 19.6206 11.0471 19.6549 11.0114C19.6892 10.9758 19.7302 10.9472 19.7755 10.9275C20.3485 10.6736 20.8406 10.2668 21.1978 9.75188C21.5551 9.23693 21.7637 8.6336 21.801 8.00797C21.8382 7.38233 21.7025 6.75852 21.4088 6.20485C21.1151 5.65119 20.6747 5.18901 20.1359 4.86895C20.093 4.84403 20.0556 4.81087 20.0256 4.77139C19.9957 4.7319 19.9738 4.68687 19.9614 4.6389C19.949 4.59092 19.9462 4.54096 19.9531 4.4919C19.9601 4.44284 19.9768 4.39565 20.0021 4.35305C20.0275 4.31046 20.061 4.27332 20.1008 4.24376C20.1405 4.21421 20.1858 4.19283 20.2339 4.18087C20.282 4.16891 20.332 4.1666 20.381 4.17407C20.4299 4.18155 20.477 4.19866 20.5193 4.22442C21.1389 4.59489 21.6521 5.1193 22.0091 5.7467C22.3662 6.3741 22.5549 7.08318 22.557 7.80506ZM3.67511 7.84893C3.67636 7.40585 3.79218 6.97063 4.01132 6.58553C4.23046 6.20044 4.54546 5.87855 4.92573 5.65115C4.96807 5.62539 5.01509 5.60828 5.06409 5.60081C5.11308 5.59333 5.16306 5.59564 5.21116 5.6076C5.25925 5.61957 5.30449 5.64094 5.34427 5.6705C5.38406 5.70005 5.41759 5.7372 5.44292 5.77979C5.46826 5.82238 5.48491 5.86957 5.49189 5.91863C5.49888 5.9677 5.49608 6.01766 5.48364 6.06563C5.4712 6.1136 5.44938 6.15863 5.41943 6.19812C5.38949 6.23761 5.35201 6.27077 5.30917 6.29568C5.02411 6.465 4.79114 6.70949 4.63577 7.00239C4.4804 7.29528 4.40862 7.62529 4.4283 7.95625C4.44797 8.28722 4.55835 8.60639 4.74733 8.87882C4.9363 9.15124 5.1966 9.36641 5.49972 9.50076C5.54507 9.5205 5.58606 9.54902 5.62035 9.58467C5.65463 9.62032 5.68152 9.66241 5.69947 9.7085C5.71742 9.75458 5.72608 9.80377 5.72494 9.85322C5.7238 9.90266 5.7129 9.9514 5.69285 9.99661C5.67279 10.0418 5.644 10.0826 5.60811 10.1167C5.57223 10.1507 5.52996 10.1773 5.48375 10.1949C5.43754 10.2126 5.3883 10.2209 5.33886 10.2194C5.28942 10.218 5.24076 10.2067 5.19568 10.1864C4.74334 9.98552 4.35893 9.65782 4.08905 9.24296C3.81916 8.82809 3.67537 8.34386 3.67511 7.84893ZM4.41573 11.4223C4.3958 11.4674 4.36719 11.508 4.33152 11.542C4.29586 11.576 4.25384 11.6026 4.20789 11.6203C4.16193 11.638 4.11293 11.6465 4.06368 11.6453C4.01444 11.644 3.96593 11.6331 3.92092 11.6131C3.22215 11.3034 2.62206 10.8074 2.18636 10.1795C1.75066 9.55148 1.49616 8.81572 1.45073 8.05276C1.40529 7.28979 1.57067 6.52903 1.92875 5.85378C2.28684 5.17853 2.82382 4.61484 3.4809 4.22442C3.52324 4.19866 3.57027 4.18155 3.61926 4.17407C3.66825 4.1666 3.71824 4.16891 3.76633 4.18087C3.81442 4.19283 3.85967 4.21421 3.89945 4.24376C3.93923 4.27332 3.97276 4.31046 3.99809 4.35305C4.02343 4.39565 4.04008 4.44284 4.04707 4.4919C4.05405 4.54096 4.05125 4.59092 4.03881 4.6389C4.02637 4.68687 4.00455 4.7319 3.9746 4.77139C3.94466 4.81087 3.90718 4.84403 3.86434 4.86895C3.32549 5.18901 2.8851 5.65119 2.59141 6.20485C2.29772 6.75852 2.16205 7.38233 2.19926 8.00797C2.23647 8.6336 2.44512 9.23693 2.80237 9.75188C3.15962 10.2668 3.65168 10.6736 4.22467 10.9275C4.31558 10.9678 4.38676 11.0426 4.42254 11.1354C4.45831 11.2282 4.45577 11.3314 4.41545 11.4223H4.41573Z" stroke="#17689C" stroke-width="0.2" mask="url(#path-1-outside-1_751_3730)"/>
</svg>
