<?xml version="1.0" encoding="UTF-8"?>
<svg id="Layer_1" data-name="Layer 1" xmlns="http://www.w3.org/2000/svg" width="293.9" height="168" xmlns:xlink="http://www.w3.org/1999/xlink" viewBox="0 0 293.9 168">
  <defs>
    <linearGradient id="linear-gradient" x1="-342.67" y1="-528.01" x2="-270.99" y2="-616.75" gradientTransform="translate(329.99 -547.89) scale(1 -1)" gradientUnits="userSpaceOnUse">
      <stop offset="0" stop-color="#fff"/>
      <stop offset=".12" stop-color="#fff6ee"/>
      <stop offset=".35" stop-color="#f8ddc1"/>
      <stop offset=".67" stop-color="#f4b677"/>
      <stop offset="1" stop-color="#ef8c25"/>
    </linearGradient>
  </defs>
  <g>
    <g opacity=".2">
      <path d="M279.3,141.3c-.1,0,0,0,0,0,0,.2,.1,.2,.4,.4l.1,.1c0,.2,.1,.2,.2,.2l.1,.1c0,.2,.1,.2,.2,.2,.4,.2,.7,.5,1.1,.8,1.4,1.1,2.9,2.2,4.3,3.3,1.9,1.4,3.8,2.9,5.7,4.3,.2,.2,.3,.3,.3,.6-.1,1.5-.1,3-.2,4.5,0,.3,.1,.6-.1,.8-.1-.1-.2-.3-.4-.4-1.3-1.1-2.7-2-4.3-2.7-.8-.4-1.6-.7-2.5-.9-1.6-.4-3.3-.5-4.9-.5-1.4,0-2.7,0-4-.3-.2-.1-.5-.3-.7-.1s.1,.5,.2,.7c.2,.4,.2,.9,.5,1.3,0,.7,.3,1.3,.4,1.9,.3,1.4,.5,2.9,.7,4.4,.3,2.1,.6,4.2,1.2,6.2,.5,1.8,1.6,3.2,3,4.4,2.9,2.4,5.6,5,8.4,7.5,.3,.3,.6,.6,1,.9,.2,.2,.2,.3,.2,.6-.1,1.9-.2,3.7-.3,5.6-.1,1.4-.1,2.7-.2,4.1,0,.2,.1,.4-.1,.6,0-.1-.1-.2-.2-.3-.6-.4-1.2-.8-1.8-1.3-2.4-1.8-4.8-3.6-7.2-5.4-2.7-2-5.5-4.1-8.2-6.1-2.2-1.7-4.4-3.3-6.6-5l-6-4.5c-1.9-1.5-3.8-2.9-5.7-4.3-2.2-1.7-4.3-3.3-6.5-4.9-1.5-1.2-3-2.3-4.5-3.4-.9-.7-1.8-1.4-2.8-2.1,.2-.1,.3-.1,.5-.2,2-.7,4.1-1.4,6.1-2.1,6.7-2.3,13.3-4.6,20-6.8,3-1,5.9-2,8.8-3,.7-.2,1.4-.6,2.1-.6h0c0,.2,.1,.2,.3,.2h0c0,.2,.1,.2,.3,.2h0c0,.2,.1,.2,.3,.2h0c0,.2,.1,.2,.2,.2l.1,.1c0,.2,.1,.2,.2,.2l.1,.1c0,.2,.1,.2,.2,.2h0Z" fill="#4b2716"/>
      <path d="M251.7,110.5c.4-.6,.7-1.3,1.2-2,.9-1.3,2-2.3,3.2-3.2,1.6-1.2,3.3-2.2,5.1-3,2.3-1.1,4.7-2,7.1-2.7,1.9-.6,3.8-1.1,5.7-1.5,1.6-.3,3.2-.6,4.8-.8,1.5-.2,3-.2,4.5-.4,1.4-.2,2.9-.3,4.3-.5,1.5-.2,2.9-.5,4.4-.7,.4,0,.7-.2,1-.1v.2c-.5,2.4-1,4.7-1.5,7.1-.6,2.8-1.2,5.7-1.8,8.5-.6,3.3-1.3,6.6-2,9.9-.2,1.2-.5,2.5-.7,3.7-.4,.1-.8,.3-1.2,.4-.1,0-.2,0-.3,.1h0c-1.2,.3-2.5,.5-3.7,.7-1.5,.3-3,.5-4.5,.7-1.1,.1-2.3,.3-3.4,.4-1.2,.1-2.4,.3-3.6,.4-1.3,.1-2.6,.3-3.8,.4-1.8,.2-3.6,.4-5.4,.6-1.6,.2-3.3,.3-4.9,.6-2.7,.5-5.4,1.4-7.9,2.6-1.3,.7-2.6,1.4-3.8,2.2,.3-.7,.4-1.4,.1-2.1v-.3c.1-.1,.2-.1,.3-.2,1-.7,2-1.3,3.1-1.8,3-1.5,6.1-2.6,9.4-3.5,3-.8,6-1.4,9-1.9,1.8-.3,3.6-.5,5.5-.7s3.7-.3,5.5-.5c.2,0,.3-.1,.4-.3,.4-1.3,.8-2.6,1.2-3.9l6-19.5q.1-.6-.5-.5c-2.4,.2-4.8,.5-7.2,.9-3.7,.5-7.3,1.2-10.8,2.1-1.6,.5-3.3,.9-4.9,1.7-3,1.5-5.6,3.5-8,5.9-.1,.1-.1,.2-.2,.3-1.5,2.8-2.9,5.7-4.4,8.6-.1-.2-.1-.5-.1-.7,.1-.5,0-1-.1-1.4,.1-.2,.2-.4,.3-.6,.7-1.5,1.5-2.9,2.2-4.3,.2-.3,.4-.6,.4-.9h0Z" fill="#ffe7d2"/>
      <path d="M251.7,110.6c0,.3-.2,.5,0,.9-.7,1.5-1.5,2.9-2.2,4.3-.1,.2-.2,.4-.3,.6-.4-.7-.9-1.2-1.8-1.2,0-.1,.1-.2,.2-.2,.6-.4,.9-1,.9-1.8,0-.2-.1-.4-.1-.6,.4-.6,.8-1.4,1.2-2.1q.4-.6-.1-1.2c-.8-1-1.7-2-2.6-3-.4-.5-.8-1-1.3-1.3l-.1-.1-.1-.1c-.2-.1-.3-.3-.5-.4-.5-.6-1.1-1.1-1.8-1.6-.4-.8-.9-1.3-1.8-1.4-.4-.3-.8-.6-1.2-.8-.4-.5-.9-.9-1.6-1-.7-.5-1.4-.9-2.1-1.3-4.7-2.9-9.4-5.7-14.1-8.5-.2-.1-.3-.1-.4,.1-.4,.3-.7,.7-1.1,1.1-2.1,2.2-4.2,4.5-6.3,6.7s-4.2,4.5-6.3,6.7c-1.7,1.8-3.5,3.7-5.2,5.5-.3,.4-.4,.4,.1,.7,2.2,1.5,4.5,2.9,6.7,4.4,4.8,3.1,9.5,6.2,14.2,9.3,.4,.2,.8,.6,1.3,.8,.5,.6,1.1,1,1.9,.9,.2,0,.1,.2,.1,.3,0,1.1,.6,1.9,1.6,2.1,.2,.1,.5,.1,.7,.1-.6,1.4,0,2.8,1.6,3.1-.2,.3-.3,.5-.4,.8-1.2-1.1-2.5-2.3-3.8-3.3-2.5-2-5.2-3.9-7.9-5.6-2.5-1.6-5.1-3.2-7.7-4.7-2.5-1.5-4.9-2.9-7.4-4.4-2-1.2-4-2.4-6.1-3.6-1-.6-2.1-1.2-3.1-1.8h0q-.1-.1-.2-.2h-.1l-.1-.1c-.2-.2-.6-.3-.8-.6,1.1-1.1,2.2-2.2,3.3-3.3,1.1-1.1,2.1-2.2,3.2-3.2,1-1,2-2.1,3.1-3.1,1.2-1.1,2.3-2.3,3.5-3.5,.9-.9,1.8-1.8,2.7-2.7,1.1-1.1,2.2-2.3,3.4-3.4,.9-.9,1.8-1.9,2.8-2.8,.6-.6,1.1-1.2,1.7-1.8,.4,.1,.8,.4,1.2,.7,2.7,1.8,5.4,3.4,8.1,5.1,1.7,1,3.4,2,5.2,3,1.7,1,3.6,1.9,5.4,2.8,1.9,.9,3.8,2,5.6,3.2,2.9,2.1,5.3,4.6,7.1,7.8,.6,1.1,1.2,2.3,1.7,3.5,0,.1,.1,.1,.1,.2h0Z" fill="#ffe5be"/>
      <path d="M277.5,139.9c-.7,.1-1.4,.4-1.8,.3-3,1-5.9,2-8.8,3-6.7,2.3-13.3,4.6-20,6.8-2,.7-4.1,1.4-6.1,2.1-.1,.1-.3,.1-.5,.2,.9,.7,1.9,1.4,2.8,2.1,1.5,1.2,3,2.3,4.5,3.4,2.2,1.7,4.3,3.3,6.5,4.9,1.9,1.5,3.8,2.9,5.7,4.3l6,4.5c2.2,1.7,4.4,3.4,6.6,5,2.7,2,5.5,4.1,8.2,6.1,2.4,1.8,4.8,3.6,7.2,5.4,.6,.4,1.2,.9,1.8,1.3,.1,.1,.2,.1,.2,.3-.6,.5-1.2,1-1.8,1.5-.3,.2-.5,.2-.7,0-2.2-1.7-4.3-3.3-6.5-4.9-2.6-2-5.3-4-7.9-6s-5.3-4-7.9-6c-2.7-2-5.3-3.9-7.9-5.9-6.4-4.8-12.8-9.7-19.2-14.5,.2-.9,0-1.7-.8-2.3,1-.4,1.3-1.1,1.4-2,1.7-.5,3.3-1.1,5-1.6,2.9-.9,5.8-1.9,8.7-2.8,2-.7,4-1.3,6-2,2.7-.9,5.5-1.8,8.2-2.7,1.9-.6,3.7-1.2,5.6-1.8,2.7-.9,5.5-1.8,8.2-2.7s5.4-1.7,8-2.6c3.1-1,6.2-2,9.3-3,.4-.1,.5-.3,.5-.7,0-.9,.1-1.7,.2-2.6s.2-1.8,.3-2.7c0-.8,.1-1.7,.2-2.5,.1-1,.2-1.9,.3-2.8,0-.8,.1-1.7,.2-2.5,.1-1,.2-1.9,.3-2.8,0-.8,.1-1.7,.2-2.5,.1-.9,.2-1.7,.3-2.6,0-.9,.1-1.7,.2-2.6s.2-1.9,.3-2.8c.1-.6,.2-1.2,.2-1.8,0-.4,.2-.8,0-1.2,.1-.1,.2,0,.2,.1,.4,.4,.6,.8,1,1.2,.2,.2,.2,.5,.2,.8-.2,2.4-.4,4.9-.6,7.3s-.4,4.7-.6,7c-.2,2-.3,4-.5,6s-.3,4.1-.5,6.1c0,1.1-.1,2.1-.2,3.2,0,.4-.1,.5-.4,.6-7.1,2.4-14.3,4.8-21.4,7.2-.2,0-.4,0-.4,.2h0Z" fill="#382115"/>
      <path d="M207.6,138.6c.6-.8,1.2-1.5,1.7-2.4,.1-.1,.3-.2,.4-.2,.8-.3,1.7-.7,2.6-1q.1,0,.2,.1c1.8,1.3,3.5,2.7,5.3,4,2.3,1.7,4.6,3.4,6.9,5.2,.6,.4,1.2,.8,1.7,1.3,0,.1,0,.2-.1,.3-.4,.7-.4,1.4-.1,2.1,.2,.4,.5,.6,.8,.9-1.2,.2-1.7,.7-1.9,1.8s.5,1.8,1.6,2.2c-.5,.2-.8,.5-1.1,.9-.4,.2-.8,.3-1.2,.4-2.7,.9-5.4,1.8-8.1,2.7-2.6,.8-5.3,1.7-8,2.6-2.7,.9-5.4,1.8-8.1,2.7-2.7,.9-5.4,1.8-8.2,2.7-2.6,.8-5.1,1.7-7.6,2.5-.4,.1-.8,.3-1.2,.3,.7-.8,1.4-1.7,2.1-2.5,1.7-2,3.4-4,5.1-6.1,.2-.2,.4-.3,.7-.4,4.9-1.3,9.8-2.6,14.7-3.8,1.6-.5,3-1.5,4.3-2.6,1.7-1.4,3.2-3.1,4.7-4.8,1.2-1.2,2.3-2.5,3.5-3.6l.2-.2c.3-.1,.4-.3,.6-.5,.6-.5,1.2-1,2-1.5-1.7-.2-3-.9-4.3-1.7-1.1-.7-2.2-1.2-3.4-1.5-.8-.2-1.7-.2-2.5-.2-1.1,0-2.2,.2-3.3,.3h0Z" fill="#693419"/>
      <path d="M183.1,167.7c.5,0,.9-.2,1.3-.3,2.6-.8,5.1-1.7,7.6-2.5,2.7-.9,5.4-1.8,8.2-2.7,2.7-.9,5.4-1.8,8.1-2.7,2.6-.8,5.3-1.7,8-2.6s5.4-1.8,8.1-2.7c.4-.2,.8-.3,1.2-.4-.3,.8-.3,1.6,.3,2.3,.3,.4,.7,.5,1.1,.7-6.8,2.3-13.5,4.6-20.3,6.9-7.3,2.4-14.5,4.8-21.7,7.3-.3,.1-.4,.1-.5-.2-.4-.9-.9-1.8-1.4-2.7,0-.1-.1-.2,0-.4h0Z" fill="#382115"/>
      <path d="M300.6,100.3c.2,.4,0,.8,0,1.2,0,.6-.1,1.2-.2,1.8-.1,.9-.2,1.9-.3,2.8,0,.9-.1,1.7-.2,2.6s-.2,1.7-.3,2.6c0,.8-.1,1.7-.2,2.5-.1,1-.2,1.9-.3,2.8,0,.8-.1,1.7-.2,2.5-.1,1-.2,1.9-.3,2.8,0,.8-.1,1.7-.2,2.5-.1,.9-.2,1.8-.3,2.7-.1,.9-.1,1.7-.2,2.6,0,.4-.1,.6-.5,.7-3.1,1-6.2,2-9.3,3-2.7,.9-5.4,1.7-8,2.6-2.7,.9-5.5,1.8-8.2,2.7-1.9,.6-3.7,1.2-5.6,1.8-2.7,.9-5.5,1.8-8.2,2.7-2,.7-4,1.3-6,2-2.9,.9-5.8,1.9-8.7,2.8-1.7,.5-3.3,1.1-5,1.6,0-.1-.1-.2-.1-.3-.1-.4-.2-.8-.6-1-.2-.2-.4-.5-.6-.7,.1-.1,.3-.2,.4-.3,.2,.1,.3,.1,.5,.1,1.3,0,2.6-.2,3.9-.6,3.4-1.1,6.8-2.2,10.2-3.3,2.6-.8,5.1-1.7,7.7-2.5,3.4-1.1,6.8-2.2,10.2-3.3,2-.6,4.1-1.3,6.2-2,3.6-1.2,7.1-2.3,10.7-3.5,1.3-.5,2.6-.9,3.9-1.3,1.7-.6,3.5-1.1,5.2-1.7,.1-.1,.2-.1,.2-.3,0-.4,.1-.9,.1-1.3,.1-1,.2-1.9,.3-2.9,.1-1.3,.3-2.5,.4-3.7,.2-.9,.3-1.9,.4-2.9,.1-.9,.2-1.9,.3-2.8,.1-1,.2-1.9,.3-2.9,.1-1.2,.3-2.4,.4-3.6,.1-.8,.2-1.6,.3-2.4,.1-1,.2-1.9,.3-2.9,.2-.9,.3-1.8,.4-2.7,.4-.2,.8-.4,1.2-.5h0Z" fill="#693419"/>
      <path d="M286.9,125c.3-1.3,.5-2.5,.9-3.6,.6-3.3,1.3-6.6,2-9.9,.6-2.8,1.2-5.7,1.8-8.5,.5-2.4,1-4.7,1.5-7.1v-.2c1.1,.5,2.2,1,3.3,1.5,.3,.2,.7,.4,1,.5,.2,.1,.2,.2,.2,.4-.1,.2-.1,.5-.1,.7-.1,.6-.2,1.2-.3,1.8-.3,2.1-.6,4.2-.9,6.3-.4,2.3-.7,4.6-1,6.9-.3,2.1-.6,4.3-.9,6.4-.2,1.7-.4,3.4-.7,5.2-.2,.8-.2,1.6-.4,2.4-.2-.1-.4-.1-.5-.2-2-.9-3.9-1.7-5.9-2.6h0Zm6.6-27.3c-1.8,8.5-3.4,17.1-4.9,25.7,1.8-8.5,3.4-17.1,4.9-25.7Zm-1.7,26.7c.5-2.8,1-5.7,1.5-8.6,.4-2.8,.9-5.7,1.3-8.6,.5-2.8,.9-5.7,1.3-8.5h-.1c-1.5,8.6-2.8,17.1-4,25.7h0Zm-1.1-.1c.4-1.2,4.5-25.4,4.3-25.9-1.6,8.6-3.1,17.2-4.3,25.9Zm3.5-26.3c-1.7,8.5-3.2,17.1-4.5,25.6,1.7-8.5,3.2-17,4.5-25.6Zm-1.5,27c1.1-5.5,4-25,3.9-25.6-1.5,8.5-2.8,17.1-3.9,25.6Zm4-25.8c.1-.1,0-.2,0-.3-.1,.1-.1,.2,0,.3Zm-7,24.7h0q-.1,0,0,0c-.1,0-.1,.1,0,0q0,.1,0,0h0Zm2,.8v.2s0,.1,0,0q.1-.1,0-.2h0Zm1,.8v0c0-.1,0,0,0,0,0,0,0-.1,0,0Zm.8-28.2c0,.1,.1,.1,0,0q.1,0,0,0h0q0,.1,0,0Zm-5,26.5q0-.1,0,0,0-.1,0,0h0Z" fill="#ebb67a"/>
      <path d="M236.9,147.7c.2,.2,.4,.5,.9,.6v.2c.4,1.3-.1,2.4-1.3,2.8,0,0-.1,0-.2,.1,.3,.1,.6,.2,.8,.3,.8,.6,1,1.4,.8,2.3-.3,.6-.6,1.1-1.3,1.3,1.7,.3,2.1,1.8,1.7,2.7-.5,1.2-1.7,1.6-3.1,.9,.2,1.5-.2,2.4-1.4,2.7-.9,.2-1.9-.3-2.2-1.3,0-.1-.1-.1-.1-.2-.1-.3-.1-.5-.1-.8-.2,.3-.4,.4-.6,.6-.1,0-.1,.1-.2,.1-.3,.1-.5,.1-.7,.2,.2,.1,.4,.1,.6,.2v.1h-.3c-.2,0-.4,0-.5,.2s0,.3,.1,.5c.2,.2,.4,.3,.6,.4,.3,.1,.5,.1,.7-.1,.1-.2,0-.4-.1-.6,0-.1-.1-.1-.1-.2l.1-.1c.2,.2,.4,.5,.5,.8,.2,.7-.1,1.3-.7,1.5-.2,.1-.3,.1-.3,.3s-.1,.3-.2,.5c-.8,1.3-1.5,2.5-2.3,3.7-.2,.4-.6,.7-1,.8-.1,0-.2,0-.2,.2,0,.3-.2,.5-.4,.7-.1,.1-.2,.1-.3,.2h-.1c-.5,.1-.8-.2-1.1-.6-.2-.5-.1-1,.5-1.2,.2,0,.1-.1,.1-.2-.2-.5,0-.9,.2-1.3,.8-1.2,1.5-2.5,2.3-3.7,.1,0,.1-.1,.1-.1,.3-.2,.4-.6,.4-1,0-.5,.4-.8,.9-.9-.9-.3-1.5-.9-1.7-1.8-.1-.6,.1-1.1,.4-1.6v-.1h-.1c-.3,0-.6,.1-.9,.1-.4-.2-.8-.4-1.1-.7-.6-.7-.6-1.5-.3-2.3,.3-.3,.6-.7,1.1-.9-1.1-.4-1.8-1-1.6-2.2,.2-1.1,.7-1.6,1.9-1.8-.3-.3-.6-.5-.8-.9-.4-.8-.3-1.4,.1-2.1,0-.1,.1-.2,.1-.3,.5-.4,1-.7,1.8-.6-.7-.5-.9-1.2-.9-2,.1-.4,.2-.7,.4-1,.1-.2,.3-.3,.5-.5,.4-.1,.8-.2,1.2-.2,.1,0,.2,.1,.3,0-.8-1-.9-1.9-.1-2.9,0-.1,.1-.1,.1-.2,.3-.2,.6-.4,.9-.4,.1,0,.3,0,.4-.1h.1c.4,.1,.8,.2,1.1,.5,.2,.1,.3,.4,.5,.6q.1,.1,.1,.2c.2,.7,.2,1.3-.2,1.9-.5,.8-1.3,1-2.2,.8,.7,.7,.9,1.4,.6,2.3-.4,.9-1.1,1.3-2.1,1.3,.7,.6,1,1.4,.7,2.3-.3,.9-.9,1.3-1.8,1.4,.7,.4,1.1,1.1,1,1.9s-.6,1.4-1.3,1.7c.3,.2,.5,.3,.8,.4l.1,.1c.2,.2,.5,.5,.6,.8,.3,.8,.2,1.5-.3,2.1,.2-.2,.3,0,.5-.1,1.2,.1,1.9,.7,2,1.8v.5c.8-.9,1.8-1,2.8-.4-.3-1.2,.1-2.1,1.3-2.7-.7-.1-1.1-.4-1.5-.9,0-.1-.1-.2-.1-.3-.3-.9,0-2.1,.9-2.5,.3-.2,.3-.3,0-.5-.1,0-.1-.1-.2-.1-.6-.5-.9-1.2-.8-2,.1-.7,.5-1.1,1-1.5,.2,0,.3,0,.4-.1-.2-.1-.5-.1-.7-.2-.4-.2-.7-.4-.9-.8-.1-.3-.2-.7-.2-1,.1-.8,.5-1.5,1.3-1.8,.2-.1,.3-.2,.1-.3-.4-.3-.6-.8-.9-1.2,0-.4-.1-.8,0-1.2,.2-.4,.5-.8,.9-1.1,.3,0,.5-.1,.7-.2,.3,0,.5,.1,.8,.1,.4,.2,.8,.4,1.1,.7,.5,.5,.6,1.1,.4,1.8-.3,.7-.8,1.2-1.6,1.4,.3,.1,.5,.3,.8,.5,.1,.2,.2,.3,.3,.5,.5,1.3,.1,2.2-1.2,2.9,.3,0,.6,.2,.9,.3h0Zm-8.3,14.9c-.1,.1-.2,.1-.3,.3-.8,1.2-1.5,2.5-2.3,3.7-.1,.3-.1,.6,.2,.7,.2,.1,.5,0,.6-.2,.5-.9,1.1-1.8,1.6-2.7,.2-.4,.4-.7,.6-1.1s0-.7-.4-.7h0Zm7.2-13.3c.5,0,.9-.3,.9-.8,0-.4-.4-.8-.9-.8s-.9,.4-.9,.8c0,.4,.4,.8,.9,.8h0Zm-6.1,7.2c-.6,0-1,.3-1,.8,0,.4,.4,.8,.9,.8s.9-.3,.9-.8-.4-.9-.8-.8Zm-1.7-6.5c0-.5-.4-.8-.9-.8s-.9,.3-.9,.8c0,.4,.4,.8,.9,.8s.9-.3,.9-.8Zm-.5,4.7c.5,0,.9-.3,.9-.8,0-.4-.4-.8-.9-.8s-.9,.4-.9,.8,.4,.8,.9,.8h0Zm1.4-8.5c0-.4-.4-.8-.9-.8s-.9,.4-.9,.8,.4,.8,.9,.8,.9-.3,.9-.8Zm7.3,11c.5,0,.9-.3,1-.8,0-.4-.4-.8-.9-.8-.5-.1-1,.4-1,.8s.4,.8,.9,.8h0Zm-.7-11.9c.5,0,.9-.4,.9-.8s-.4-.8-.9-.8-1,.4-1,.8c0,.5,.4,.8,1,.8Zm-2.3,12.7c-.5,0-1,.4-1,.8s.4,.8,.9,.8c.5,.1,1-.4,1-.8,0-.4-.4-.8-.9-.8h0Zm-3.8-14.6c.5,0,.9-.3,.9-.8s-.3-.8-.9-.8c-.5,0-.9,.3-.9,.8,0,.4,.3,.7,.9,.8Zm6.4-2c.5,0,.9-.4,.9-.7,0-.5-.4-.8-.9-.8s-.9,.3-.9,.8c0,.4,.3,.7,.9,.7h0Zm-4.5-3.1c-.5,0-.8,.2-1,.6-.1,.5,.1,.8,.5,.9,.4,.2,.8,.1,1.1-.2,.2-.2,.3-.5,.2-.8s-.4-.5-.8-.5h0Zm4.5,15c.5,0,.9-.3,.9-.8s-.4-.8-.9-.8-.9,.3-.9,.8,.4,.8,.9,.8Z" fill="#a95426"/>
      <path d="M237.2,144.5c-.1-.2-.2-.3-.5-.6,.5-.2,.9-.6,1.2-1.1,.9,.6,1.7,1.2,2.5,1.9,.2,.1,.3,.2,.6,.1,2.2-.7,4.5-1.5,6.7-2.2,15-5,30-9.9,45-14.9,.1,0,.3,0,.4-.2,.2-.8,.3-1.6,.4-2.4,.2-1.7,.5-3.4,.7-5.2,.3-2.1,.6-4.3,.9-6.4,.4-2.3,.7-4.6,1-6.9,.3-2.1,.6-4.2,.9-6.3,.1-.6,.2-1.2,.3-1.8,.6-.1,1.1-.3,1.7-.5,.1,0,.3-.1,.3,.1s-.1,.3-.1,.5c-.2,1.3-.3,2.5-.5,3.8s-.3,2.6-.5,3.9-.3,2.6-.5,3.9c-.1,1.3-.3,2.5-.5,3.8-.1,1.3-.3,2.6-.4,3.9-.2,1.7-.5,3.3-.7,5-.2,1.6-.5,3.1-.6,4.7,0,.7-.3,1-1,1.2-2.7,.9-5.5,1.8-8.2,2.7-2.8,1-5.6,1.9-8.4,2.8-2.7,.9-5.4,1.7-8,2.6-3.4,1.1-6.7,2.2-10.1,3.3-2.6,.8-5.2,1.7-7.8,2.5-3.2,1-6.4,2-9.6,3.1-1.5,.5-3,.9-4.6,.8,.2-.8,.1-1.5-.6-2.1h0Z" fill="#5f7233"/>
      <path d="M227.4,143.1c0,.8,.3,1.5,1.1,1.8-.8-.1-1.3,.2-1.8,.6-.5-.5-1.1-.9-1.7-1.3-2.3-1.7-4.6-3.5-6.9-5.2-1.8-1.3-3.5-2.7-5.3-4,0,0-.1-.1-.2-.1-3-2.3-6-4.6-9-6.8-6.6-4.9-13.1-9.9-19.7-14.8-.1-.1-.3-.1-.1-.3,.5-.6,.9-1.3,1.4-1.9,.2,.3,.5,.5,.8,.7l6,4.5c2.1,1.6,4.3,3.3,6.5,4.9,1.9,1.5,3.8,2.9,5.7,4.3,2.2,1.7,4.3,3.3,6.5,4.9,2.6,1.9,5.1,3.9,7.6,5.8,2.6,2,5.1,3.9,7.7,5.9,.4,.3,.8,.7,1.4,1h0Z" fill="#382115"/>
      <path d="M227.4,143.2c-.5-.3-.9-.7-1.6-1-2.6-2-5.1-3.9-7.7-5.9-2.6-1.9-5.1-3.9-7.6-5.8-2.2-1.7-4.3-3.3-6.5-4.9-1.9-1.5-3.8-2.9-5.7-4.3-2.1-1.6-4.3-3.3-6.5-4.9l-6-4.5c-.2-.3-.6-.4-.8-.7,1.5-1.4,3-2.9,4.5-4.3,6.4-6,12.7-12.1,19.1-18.1,.2-.1,.3-.3,.5,0-.1,.2-.2,.3-.4,.5-2,1.9-4,3.8-6,5.7-1,.9-2.1,1.9-3.1,2.9-2,2-4.1,3.9-6.1,5.9-1,1-2.1,2-3.1,3-.5,.5-1,.9-1.5,1.4s-1,.8-1.4,1.4c-.1,.4-.2,.8,.3,1.2,1.4,1.1,2.9,2.3,4.3,3.4,1.9,1.5,3.9,3.1,5.8,4.6,1.7,1.3,3.4,2.7,5.1,4,1.8,1.4,3.7,2.9,5.6,4.4,1.4,1.1,2.8,2.1,4.1,3.2,2,1.6,3.9,3.1,5.9,4.7,1.5,1.1,2.9,2.2,4.4,3.4,1.6,1.2,3.2,2.5,4.8,3.7-.1,.3-.3,.7-.4,1h0Z" fill="#4b2716"/>
      <path d="M187.6,109.6c.3-.6,.9-.9,1.4-1.3,.4-.5,1-.9,1.5-1.4,1-1,2.1-2,3.1-3,2-2,4-3.9,6.1-5.9,1-.9,2.1-1.9,3.1-2.9,2-1.9,4-3.8,6-5.7,.1-.2,.3-.3,.4-.5,.2-.1,.3-.2,.4-.3,1.2-1.2,2.4-2.3,3.6-3.5,.3-.2,.4-.2,.6,0,.2,.2,.3,.3,.5,.4-.1,.3-.4,.5-.6,.7-4.8,4.5-9.6,9-14.4,13.5-2.1,2-4.3,4-6.4,6-1.3,1.2-2.6,2.5-3.9,3.7,0,.2,.1,.2,.2,.3,3.9,3.1,7.9,6.2,11.8,9.3,7.9,6.2,15.9,12.5,23.9,18.8,1.6,1.3,3.2,2.5,4.8,3.8-.4-.1-.8,0-1.2,.2-1.1-.8-2.1-1.7-3.2-2.5-1.7-1.3-3.4-2.7-5.1-4-2.3-1.8-4.6-3.6-6.9-5.4-1.7-1.4-3.4-2.7-5.1-4-2.5-1.9-4.9-3.8-7.3-5.7-1.9-1.6-3.9-3.1-5.8-4.6-1.9-1.5-3.8-3-5.7-4.5-.6-.5-1.2-.9-1.8-1.5h0Z" fill="#5f7233"/>
      <path d="M237.8,146.6c1.6,0,3.1-.3,4.5-.8,3.2-1,6.4-2,9.6-3.1,2.6-.8,5.2-1.7,7.8-2.5,3.4-1.1,6.7-2.2,10.1-3.3,2.7-.9,5.4-1.7,8-2.6,2.8-1,5.6-1.9,8.4-2.8,2.7-.9,5.4-1.9,8.2-2.7,.7-.2,.9-.5,1-1.2,.1-1.6,.4-3.1,.6-4.7,.2-1.7,.5-3.3,.7-5,.2-1.3,.3-2.6,.5-3.9s.4-2.6,.5-3.8c.2-1.3,.3-2.6,.5-3.9s.4-2.6,.7-3.9c.2-1.3,.4-2.5,.5-3.8,0-.2,0-.4,.1-.5,.4,.6,.1,1.3,.1,1.9,0,.3-.1,.5-.1,.8-.2,.9-.3,1.8-.4,2.7-.1,1-.2,1.9-.3,2.9-.1,.8-.2,1.6-.3,2.4-.2,1.2-.3,2.4-.7,3.7-.1,1-.2,1.9-.3,2.9-.1,.9-.2,1.9-.3,2.8-.2,.9-.3,1.9-.4,2.9-.1,1.3-.3,2.5-.4,3.7-.1,1-.2,1.9-.3,2.9,0,.4-.1,.9-.1,1.3,0,.2-.1,.3-.2,.3-1.7,.6-3.5,1.1-5.2,1.7-1.3,.5-2.6,.9-3.9,1.3-3.6,1.2-7.1,2.3-10.7,3.5-2,.6-4.1,1.3-6.2,2-3.4,1.1-6.8,2.2-10.2,3.3-2.6,.8-5.1,1.7-7.7,2.5-3.4,1.1-6.8,2.2-10.2,3.3-1.3,.4-2.6,.6-3.9,.6-.2,0-.4,0-.5-.1,.2-.2,.4-.5,.5-.8h0Z" fill="#455325"/>
      <path d="M188.9,109.3c1.3-1.3,2.6-2.5,3.8-3.7,2.1-2,4.3-4,6.4-6,4.8-4.5,9.6-9,14.4-13.5,.2-.2,.4-.4,.6-.7,.4-.3,.7-.6,1-.9,.2-.2,.4-.3,.7-.3h1.1c-.5,.6-1.1,1.2-1.7,1.8-1,.9-1.8,1.9-2.8,2.8-1.1,1.1-2.2,2.3-3.4,3.4-.9,.9-1.8,1.8-2.7,2.7-1.2,1.2-2.3,2.4-3.5,3.5-1,1-2,2.1-3.1,3.1-1.1,1.1-2.1,2.2-3.2,3.2-1.1,1.1-2.1,2.2-3.3,3.3-.4,.2-.8,.3-1.2,.4-1,.3-2,.6-3.1,.9h0Z" fill="#ebb67a"/>
      <path d="M275.1,153.4c-.3-.4-.3-.9-.5-1.3-.1-.2-.4-.5-.2-.7,.1-.2,.5,0,.7,.1,1.3,.3,2.7,.3,4,.3,1.7,0,3.3,.1,4.9,.5,.8,.2,1.7,.5,2.5,.9,1.5,.7,3,1.6,4.3,2.7,.2,.1,.3,.3,.4,.4-.6,.5-1.2,.9-1.7,1.4-.1,.1-.2,0-.3-.1-1.1-1.1-2.4-2-3.8-2.7-1.8-.9-3.6-1.2-5.5-1.1-1.6,.1-3.3,.2-4.8-.4h0Z" fill="#382115"/>
      <path d="M207.6,138.6c1.1-.1,2.2-.3,3.3-.4,.8,0,1.7,0,2.5,.2,1.2,.3,2.3,.8,3.4,1.5,1.3,.9,2.6,1.5,4.3,1.7-.8,.5-1.4,1-2,1.5-.2,.2-.3,.4-.6,.5-.9-.3-1.8-.8-2.6-1.3-.6-.3-1.1-.7-1.7-1-1.7-1-3.5-1.1-5.3-.3-.2,.1-.3,0-.4-.2-.2-.6-.5-1.3-.8-1.9-.1-.1-.2-.2-.1-.3h0Z" fill="#382115"/>
      <path d="M230.3,160q.1,0,.1-.1v.3c0,.1,0,.2,.1,.3,.2,.1,.2-.1,.3-.1,.1-.1,.3-.2,.4-.3,0,.1,.1,.1,.1,.2-.2,0-.4,.1-.5,.3l-.1,.1c-.2,0-.3,.4-.5,.3-.2-.2,.1-.4,0-.6v-.1c.1-.1,.1-.2,.1-.3h0Z" fill="#693419"/>
      <path d="M278.4,140.6c-.2,.1-.3,0-.3-.2,.2,0,.2,.2,.3,.2Z" fill="#382115"/>
      <path d="M278.1,140.4c-.2,.1-.3,0-.3-.2,.1,0,.2,.1,.3,.2Z" fill="#382115"/>
      <path d="M277.8,140.1c-.2,.1-.3,0-.3-.2,.1,.1,.2,.2,.3,.2Z" fill="#382115"/>
      <path d="M279.2,141.3c-.1,0-.2,0-.2-.2,.1,0,.2,.1,.2,.2Z" fill="#382115"/>
      <path d="M279.5,141.5c-.1,0-.2,0-.2-.2,.1,0,.2,.1,.2,.2Z" fill="#382115"/>
      <path d="M279.8,141.8c-.1,0-.2,0-.2-.2,.1,0,.2,0,.2,.2Z" fill="#382115"/>
      <path d="M280.1,142c-.1,0-.2,0-.2-.2,.1,0,.2,.1,.2,.2Z" fill="#382115"/>
      <path d="M278.9,141.1c-.1,0-.2,0-.2-.2,.1,0,.2,.1,.2,.2Z" fill="#382115"/>
      <path d="M278.6,140.8c-.1,0-.2,0-.2-.2,.1,0,.2,.1,.2,.2Z" fill="#382115"/>
      <path d="M183.1,167.8c.1-.1,0-.1,0,0q0-.1,0,0Z" fill="#693419"/>
      <path d="M293.3,127.7c-.1,.2-.3,.1-.5-.3-15,5-30,9.9-45,14.9-2.3,.7-4.5,1.4-6.7,2.2-.2,.1-.4,.1-.6-.1-.8-.7-1.6-1.3-2.5-1.9,.3-.7,.2-1.4-.3-2.1,.5,.1,.8,.1,1.2,0,0,.1,0,.2-.1,.3,1.1-.5,2.2-.9,3.2-1.4,2.4-1.1,4.8-2.2,7.2-3.2,1.9-.8,3.8-1.6,5.7-2.3,2.6-.9,5.2-1.5,7.8-2.1,3.3-.8,6.7-1.5,10-2.2,3.6-.7,7.2-1.5,10.8-2.4,.9-.3,1.8-.4,2.6-.8h.1l-.1,.1h-.3c-3.2,.8-6.5,1.4-9.8,2-2.8,.6-5.6,1.1-8.4,1.7-3,.6-6,1.3-8.9,2.1-1.6,.5-3.2,1-4.8,1.6-2.1,.9-4.1,1.8-6.1,2.7-2.5,1.2-5.1,2.5-7.6,3.8-.3,.1-.5,.3-.8,.3,.6-.5,1-1.2,.9-2h.1c2.5-1.5,5-2.7,7.6-3.8,2.3-1,4.6-1.8,7-2.6,2.1-.7,4.2-1.3,6.4-1.9,2.7-.7,5.5-1.3,8.2-1.8,2.3-.4,4.7-.9,7.1-1.3s4.9-.7,7.3-1.3c.5-.2,1-.2,1.4-.5h0c.1,0,.2,0,.3-.1,.4-.1,.8-.3,1.2-.4,2,.9,3.9,1.7,5.9,2.6,.2,.1,.4,.1,.5,.2h0Zm-50.4,12.9h0s.1,.1-.1,0c3-1.2,6-2.3,9.1-3.4,2.2-.8,4.4-1.5,6.6-2.1,3.8-1.1,7.7-2.1,11.5-3.1,2.3-.6,4.5-1.2,6.7-1.8,2.2-.6,4.3-1.2,6.4-1.8,.5-.1,1-.3,1.6-.5-.1-.1-.2,0-.3,0-1.4,.5-2.9,.9-4.4,1.3-3.1,.9-6.1,1.7-9.2,2.5-3.6,.9-7.2,1.9-10.8,2.8-2,.5-4,1.1-6,1.8-2.7,.9-5.3,1.9-8,3-1,.4-2.1,.9-3.1,1.3h0Zm-.3,.3s.1-.1,.1-.2h-.1l-.1,.1,.1,.1h0Zm42.6-13.1c.1-.1,0-.1,0,0q0-.1,0,0c0-.1,0,0,0,0,0,0,0-.1,0,0Zm-42.9,13h0q0,.1,0,0c0,.1,0,0,0,0h0Zm-4,.5s-.1,0,0,0q-.1,0,0,0-.1,0,0,0h0Zm46.6-13.5h0Z" fill="#fdc993"/>
      <path d="M237.3,140.3c-.3-.3-.6-.5-1.1-.6,.2-.1,0-.1,0-.2-.4-.5-.5-1.1-.3-1.7,.3-1.1,1.2-1.5,2.5-1.3h.1c0-.1-.1-.1-.1-.1-.7-1-.7-2.2,.2-2.9,.6-.5,1.3-.5,2-.3h.1c.1,0,0-.1,0-.1-.7-1.4,.1-2.7,1.2-3,.3-.1,.5-.1,.8-.1-.9-.8-1.1-1.5-.8-2.4,.4-1,1.3-1.4,2.5-1.2-.6-.7-.8-1.4-.5-2.2s.9-1.2,1.7-1.3c-.8-.5-1.3-1.1-1.2-2s.7-1.5,1.7-1.8c-.6-.2-.9-.7-1.2-1.1,0-.3-.1-.7-.1-1,.3-.7,.6-1.3,1.3-1.6-.3,0-.4,0-.6-.1-.8-.3-1.3-.8-1.4-1.6s.1-1.5,.8-2,1.7-.6,2.6,.3c.1,.2,.3,.4,.4,.6,.1,.2,.1,.4,.1,.6,.1,.8-.3,1.4-.9,1.8-.1,.1-.2,.1-.2,.2,.8,0,1.4,.5,1.8,1.2,.2,.5,.2,.9,.1,1.4-.2,.7-.7,1.2-1.6,1.4,.5,.2,.7,.5,1,.8,0,.1,.1,.3,.1,.4,.1,.4,.1,.8,0,1.2-.3,.8-.9,1.3-1.8,1.4,.4,.2,.7,.4,.9,.7,.2,.4,.4,.9,.3,1.4-.2,.7-.5,1.2-1.1,1.5-.5,.3-1,.2-1.6,.1,.4,.3,.6,.7,.7,1.1v.8c-.3,.7-.7,1.3-1.4,1.5-.3,.1-.5,.1-.9,.1,.5,.3,.7,.6,.9,1,0,.1,.1,.2,.1,.3v.3c-.1,1.2-.6,1.9-1.6,2.1-.4,.1-.8,0-1.2-.1,.5,.9,.5,1.7-.1,2.4s-1.4,.9-2.3,.6c.3,.2,.4,.6,.6,.9h0v.1c.1,1.6-.7,2.4-2.3,2.4-.1,0-.2,0-.2,.1h0Zm7.5-13c0-.5-.5-.8-1-.7-.5,0-.9,.4-.9,.8,.1,.4,.6,.8,1,.8,.4-.1,.9-.5,.9-.9h0Zm1.3-15.8c-.4,0-.9,.4-.9,.8s.5,.8,.9,.8c.5,0,1-.4,1-.8,0-.5-.5-.8-1-.8h0Zm0,4.6c0,.4,.4,.8,.9,.8s.9-.4,.9-.8-.4-.8-.9-.8c-.6,0-.9,.4-.9,.8Zm-8.3,22c.7,0,1-.3,1-.8s-.3-.8-.9-.8-1,.4-1,.8c0,.4,.4,.8,.9,.8h0Zm2.3-4.9c-.5,0-.9,.4-.9,.8s.4,.8,.9,.8c.4,0,.9-.4,.9-.8s-.4-.8-.9-.8h0Zm2.6-1.4c.4,0,.9-.4,.9-.8s-.5-.8-1-.8-.9,.4-.9,.9c0,.4,.4,.8,1,.7Zm3.9-11c.5,0,.9-.4,.9-.8,0-.5-.3-.8-.9-.8s-1,.4-1,.8c0,.5,.3,.8,1,.8Zm-.8,3.9c.5,0,.9-.4,.9-.9s-.3-.7-.9-.7c-.5,0-.9,.4-.9,.8s.4,.8,.9,.8h0Zm-1.3,1.6h0Z" fill="#b86428"/>
      <path d="M239.8,137.8h0c.2-.3,.5-.2,.5-.2,.9,0,1.8-.8,1.8-1.7,.1-.3,.2-.4,.4-.6,.6-.4,1.2-.8,1.8-1.3,1.2-.8,2.5-1.6,3.8-2.2,2.5-1.3,5.1-2.1,7.9-2.6,1.6-.3,3.3-.4,4.9-.6,1.8-.2,3.6-.4,5.4-.6,1.3-.1,2.6-.3,3.8-.4s2.4-.3,3.6-.4c1.1-.1,2.3-.2,3.4-.4,1.5-.2,3-.5,4.5-.7,1.2-.2,2.5-.5,3.7-.7-.4,.4-.9,.4-1.4,.5-2.4,.5-4.9,.9-7.3,1.3-2.3,.4-4.7,.8-7.1,1.3-2.8,.5-5.5,1.1-8.2,1.8-2.1,.6-4.3,1.2-6.4,1.9-2.4,.8-4.7,1.6-7,2.6-2.6,1.1-5.2,2.4-7.6,3.8h-.1c-.1-.3-.1-.6-.4-.8h0Z" fill="#ebb67a"/>
      <path d="M248.4,120.3c-.1-.1-.1-.2-.3-.3,.3-.6,.7-1,.8-1.6,1.5-2.9,2.9-5.7,4.4-8.6,0-.1,.1-.2,.2-.3,2.4-2.4,5-4.4,8-5.9,1.5-.8,3.2-1.3,4.9-1.7,3.6-.9,7.2-1.6,10.8-2.1,2.4-.3,4.8-.7,7.2-.9q.7-.1,.5,.5l-6,19.5c-.4,1.3-.8,2.6-1.2,3.9,0,.2-.2,.3-.4,.3-1.9,.2-3.7,.3-5.5,.5s-3.7,.4-5.5,.7c-3,.5-6.1,1.1-9,1.9-3.2,.9-6.4,2-9.4,3.5-1.1,.6-2.1,1.2-3.1,1.8-.1,.1-.2,.1-.3,.2,0-.1-.1-.2-.1-.3,.4-.2,.7-.5,1.1-.7,.1,0,.1-.1,.2-.1,3.2-1.9,6.6-3.2,10.2-4.3,3.9-1.1,7.8-1.9,11.8-2.5,2.8-.4,5.7-.7,8.6-.9,.3,0,.5-.1,.6-.5,2.1-7.1,4.3-14.2,6.5-21.3,.1-.6,.3-1.2,.5-1.8h-.3c-2.4,.3-4.8,.6-7.2,1-3.6,.6-7.2,1.2-10.7,2.2-1.9,.5-3.7,1.1-5.4,2.1-1.9,1.1-3.7,2.5-5.4,4-.4,.4-1,.8-1.3,1.4-1.7,3.4-3.5,6.9-5.2,10.3h0Z" fill="#e5a360"/>
      <path d="M244.4,134c-.5,.5-1.2,.8-1.7,1.4-.2,.1-.4,.3-.4,.6,0,.9-.9,1.7-1.8,1.7-.2,0-.4-.1-.6,.1-.2-.3-.3-.6-.6-.9,.9,.3,1.7,.1,2.3-.6,.5-.7,.5-1.5,.1-2.4,.4,.1,.8,.2,1.2,.1,1-.2,1.5-.9,1.6-2.1,.3,.7,.2,1.4-.1,2.1h0Z" fill="#ffe5be"/>
      <path d="M249,118.2c-.2,.6-.6,1.1-.8,1.6-.2-.3-.5-.6-1-.8,.8-.2,1.3-.7,1.6-1.4,0,.3,.1,.5,.2,.6Z" fill="#ffe5be"/>
      <path d="M285.7,125.4c-.1,.2-.2,.1-.3,.1,.1-.1,.2-.1,.3-.1Z" fill="#ebb67a"/>
      <path d="M188.9,109.3c1-.3,2.1-.6,3.1-1.1,.4-.1,.8-.2,1.2-.4,.1,.3,.6,.4,.8,.6,0,.1,.1,.1,.1,.1h.1c0,.2,.1,.2,.2,.2h0c0,.3,.3,.3,.4,.4,2.5,1.7,4.9,3.4,7.4,5.1,2.7,1.8,5.4,3.7,8.1,5.5,2.4,1.6,4.8,3.3,7.2,4.9,2,1.5,4.1,2.9,6.2,4.3,2.6,1.7,4.9,3.7,7.1,5.9,.1,0,.2,.1,.3,.2-.4,.6-.5,1.1-.4,1.8q-.1,0-.2-.1c-1.4-1.3-2.8-2.5-4.3-3.7s-3-2.4-4.8-3.7c-2.1-1.6-4.3-3.2-6.4-4.8-3.7-2.8-7.3-5.4-11.1-8-2.7-1.9-5.4-3.7-8.1-5.4-.6-.4-1.2-.8-1.9-1.1-.1-.1-.2-.2-.4-.2,.2,.1,.3,.2,.4,.2,.1,.2,.3,.3,.5,.4,2.4,1.8,4.7,3.5,7.1,5.2,2.1,1.6,4.3,3.1,6.4,4.7,2.4,1.7,4.7,3.5,7,5.2,2.5,1.9,5.1,3.8,7.6,5.7,2.2,1.7,4.3,3.3,6.4,5,.7,.6,1.4,1.1,2,1.7-.1,0-.1,.1-.2,.1-.4,0-.6,.2-.9,.4h-.1s0-.1-.1-.1h0q.1,.1,.2,.1v.2c-.8,1-.8,1.9,.1,2.9-.1,.1-.2,0-.3,0-1.6-1.3-3.2-2.5-4.8-3.8-7.9-6.2-15.9-12.5-23.9-18.8-3.9-3.1-7.9-6.2-11.8-9.3-.1-.1-.3-.1-.2-.3h0Zm6.2,2.6h.1c-.1,0,0,0,0,0h-.1Zm.4,.2s0-.1-.2-.2v.1q.1,.1,.2,.1c0,.1,.1,.2,.1,.2q.1,0,.1-.1c0-.1-.1-.1-.2-.1h0Zm.7,.6c10.9,8.6,21.9,17,33.1,25.3-10.9-8.6-22-17-33.1-25.3Zm-.2-.2c.1,0,0-.1-.1-.1s-.1,.1-.1,.1c0,0,.1,.1,.2,0q0,.1,0,0h0Zm33.5,25.6h0c-.1,0,0,0,0,0,0,.1,0,0,0,0h0Zm-34.6-26.4s0-.1,0,0c0-.1-.1-.1,0,0q-.1,0,0,0c-.1,0,0,0,0,0h0Z" fill="#fdc993"/>
      <path d="M230.7,136.8c-.1-.6,.1-1.2,.5-1,.2-.2,.4-.4,.7-.5-.4-.2-.7-.3-.9-.6-.4-.5-.5-1.1-.4-1.8,.2-.3,.3-.5,.4-.8-1.6-.3-2.2-1.7-1.6-3.1-.2-.1-.5,0-.7-.1-1-.2-1.7-1.1-1.6-2.1,0-.1,.1-.3-.1-.3-.8,.1-1.4-.3-1.9-.9-.1-.2-.1-.3-.2-.5v-.1c-.1-.3,0-.6-.1-.8s-.5,0-.8-.1-.5-.3-.8-.3h0c.1,0,0-.1,0-.1-.6-.4-.9-1-.8-1.8q0-.2-.2-.2c-1.4,.1-2.4-1.1-2.1-2.5,.1-.3,0-.3-.2-.3-1.3-.1-2.1-1.4-1.7-2.6,.1-.3,0-.3-.2-.4-1.4-.5-1.9-2.1-.9-3.3q.2-.2,0-.4c-1-.9-.9-2.5,.2-3.2,.2-.2,.3-.3,.1-.5-.8-1.2-.2-2.7,1.1-3.1,.3,0,.3-.1,.2-.3-.2-.8-.1-1.4,.4-2,.7-.8,1.5-.9,2.6-.3h.1v-.1s-.1-.1-.1-.2c-.4-.9-.1-1.9,.7-2.4,.8-.6,1.8-.5,2.5,.2,.1,0,.1,.1,.2,.1-.1-1.3,.5-2.2,1.5-2.4,1.1-.3,2,.3,2.4,1.5,.2-1.1,.8-1.8,1.9-1.8,.9,0,1.5,.5,2,1.7,.5-.9,1.2-1.3,2.2-1.1,1.1,.3,1.6,1.1,1.6,2.2,.3-.3,.7-.6,1.1-.7,.2-.1,.4-.1,.6-.1,.7,.1,1.2,.5,1.6,1,0,.2,0,.3,.1,.5,0,.3,.1,.4,.4,.3h.6c.9,.1,1.4,.6,1.8,1.4,0,.2,.1,.3,.1,.5,0,.4,0,.7-.2,1.1,.4-.1,.7-.2,1.1-.2,.2,.1,.5,.1,.8,.2,.2,.1,.3,.3,.5,.4l.1,.1,.1,.1c0,.2,.1,.5,.2,.7,.1,.6-.1,1.1-.4,1.6h.4c1,0,1.9,.9,1.9,1.9s-.8,1.9-1.7,2c-1.1,.1-2-.6-2.2-1.7-.1-.6,.1-1.1,.4-1.6-.8,.1-1.5-.2-2-.8-.5-.7-.5-1.4-.2-2.2-.1,.1-.2,.1-.2,.1-1.2,.4-2.3-.2-2.6-1.5-.1-.3-.2-.2-.4-.2-1.1,.3-2.1-.4-2.4-1.5-.1-.2-.1-.5-.1-.7-1.1,1.2-3.1,.8-3.5-1-.4,.8-1.1,1.3-2,1.2-.9-.1-1.5-.7-1.8-1.6-.2,.9-.7,1.5-1.5,1.7s-1.5-.1-2.1-.8c.1,.4,.1,.8,0,1.1-.3,1.1-1.7,1.9-3,1h-.1v.1s.1,.1,.1,.2c.5,1.2-.1,2.4-1.2,2.7-.3,.1-.3,.2-.2,.4,.3,.9-.1,1.7-.8,2.2-.3,.2-.3,.3-.1,.5s.2,.5,.3,.7c.2,.8-.1,1.4-.7,2,.8,.6,1.1,1.4,.8,2.4,0,.2,.1,.2,.2,.2,.5,.2,.8,.4,1.1,.8,.4,.6,.4,1.3,.2,2,.6,0,1.2,.2,1.6,.7,.4,.5,.5,1.1,.4,1.7,.8-.1,1.6,.2,2,.8,.4,.5,.4,1,.4,1.6h.3c1.4-.1,2.3,1,2.2,2.2,0,.2,.1,.2,.3,.2,1,0,1.7,.6,1.9,1.6,.1,.5-.1,1-.3,1.5,.9-.1,1.6,.1,2.1,.9,.4,.8,.3,1.5-.2,2.3,.9,.2,1.6,.6,1.8,1.6s-.2,1.7-1,2.3q.1,.1,.2,.1c.8,.5,1.3,1.4,1.1,2.2-.2,1-.9,1.5-1.9,1.6-.1,0-.2,0-.2,.1-.3-.3-.7-.4-1.1-.5-.3-.3-.6-.7-.7-1.1h0Zm-12.3-23.6c.5,0,.9-.3,.9-.8,0-.4-.4-.8-.9-.8s-.9,.3-.9,.8,.4,.8,.9,.8h0Zm10.6,12.9c.5,0,.9-.3,.9-.8,0-.4-.4-.8-.9-.8s-1,.4-1,.8c0,.5,.4,.8,1,.8Zm9.1-24.8c.5,0,.9-.4,1-.8,0-.4-.5-.8-.9-.8-.6,0-1,.2-1,.8,0,.5,.4,.8,.9,.8h0Zm-11.4,22.4c.5,0,.9-.4,.9-.8s-.4-.8-.9-.8-.9,.4-.9,.9c0,.4,.4,.7,.9,.7Zm-6.4-21.4c-.5,0-.9,.3-.9,.8,0,.4,.4,.8,.9,.8s.9-.4,.9-.9-.4-.8-.9-.7Zm23.2,3.5h.3c.3-.1,.6-.3,.7-.7,.1-.3-.1-.5-.3-.7s-.5-.2-.7-.2c-.5,0-.9,.4-.9,.8s.4,.8,.9,.8Zm-16.7-6.4c.6,0,.9-.3,.9-.8s-.3-.8-.9-.8c-.5,0-.9,.4-.9,.8,0,.5,.3,.8,.9,.8h0Zm14,3.7c.6,0,.9-.4,.9-.8,0-.5-.4-.8-.9-.8-.4,0-.9,.4-.9,.8,0,.4,.4,.8,.9,.8h0Zm-20.9,11.5c-.6-.1-.9,.4-1,.8,0,.5,.5,.8,1,.8,.6,0,.9-.3,.9-.8s-.3-.8-.9-.8h0Zm4.3,6.7c.6,0,.9-.2,1-.8,0-.5-.3-.8-.9-.8s-1,.4-1,.8,.4,.8,.9,.8h0Zm6.5-22c.5,0,1-.4,1-.8,.1-.4-.4-.8-.8-.8-.6,0-1,.3-1,.8s.2,.8,.8,.8h0Zm.4,29.9c.6,0,.9-.3,.9-.8s-.3-.8-.9-.8-1,.3-1,.8c0,.4,.4,.8,1,.8Zm-7.9-28.1c.6,0,1-.4,1-.8,0-.5-.3-.8-.9-.8-.5,0-.9,.3-.9,.8s.2,.8,.8,.8Zm-1.4,17.8c.6,0,1-.2,.9-.8,0-.5-.4-.8-.9-.8s-.9,.4-.9,.8c0,.5,.4,.8,.9,.8h0Zm-3-12.3c.6,0,1-.3,1-.8s-.3-.8-.9-.8-1,.3-1,.8c0,.4,.4,.8,.9,.8h0Zm26.7,.9c-.5,0-.9,.3-.9,.8s.4,.8,.9,.8,.9-.4,.9-.8c0-.5-.3-.8-.9-.8h0Zm-27.3,2.4c.5,0,.9-.3,.9-.8s-.4-.8-.9-.8-.9,.3-.9,.8,.3,.8,.9,.8h0Zm14.2,22.6c.6,0,1-.3,1-.8s-.3-.8-.9-.8-1,.4-1,.8,.4,.8,.9,.8h0Zm2.1-32.7c.5,0,.9-.3,.9-.9,0-.4-.3-.7-.9-.7-.5,0-.9,.4-.9,.8,0,.5,.4,.8,.9,.8h0Zm-1.8,34.9c-.5,0-.9,.3-.9,.7,0,.5,.4,.8,.9,.8s.9-.3,.9-.8c0-.4-.4-.7-.9-.7h0Z" fill="#b86428"/>
      <path d="M230.5,132.1c-.1,.7,0,1.3,.5,1.8,.2,.3,.6,.4,.9,.6-.3,.1-.5,.3-.7,.5-.1,0-.2-.1-.3-.2-2.1-2.2-4.5-4.2-7.1-5.9-2.1-1.4-4.1-2.9-6.2-4.3-2.4-1.6-4.8-3.3-7.2-4.9-2.7-1.8-5.4-3.7-8.1-5.5-2.5-1.7-4.9-3.4-7.4-5.1-.2-.1-.4-.2-.4-.4,1,.6,2.1,1.2,3.1,1.8,2,1.2,4.1,2.4,6.1,3.6,2.5,1.5,4.9,2.9,7.4,4.4,2.6,1.5,5.2,3.1,7.7,4.7,2.7,1.8,5.4,3.6,7.9,5.6,1.3,1,2.6,2.2,3.8,3.3h0Z" fill="#ebb67a"/>
      <path d="M224.8,124.4c.1,.2,.1,.3-.1,.5-.5-.2-.9-.5-1.3-.8-4.8-3.1-9.5-6.2-14.2-9.3-2.3-1.5-4.5-2.9-6.7-4.4q-.5-.3-.1-.7c1.7-1.8,3.5-3.7,5.2-5.5,2.1-2.2,4.2-4.5,6.3-6.7s4.2-4.5,6.3-6.7c.4-.3,.7-.7,1.1-1.1,.1-.2,.2-.2,.4-.1,4.7,2.8,9.4,5.6,14.1,8.5,.7,.4,1.4,.8,2.1,1.3-.2,.1-.4,.1-.6,.1,0-.2-.1-.2-.2-.3-.6-.4-1.1-.8-1.7-1.1-4.4-2.7-8.8-5.3-13.2-7.9-.2-.2-.4-.1-.6,.1-1.2,1.2-2.3,2.5-3.5,3.7-1.3,1.5-2.7,2.9-4.1,4.4-2.1,2.3-4.3,4.5-6.4,6.8-1.4,1.6-2.9,3.2-4.4,4.7-.2,.2-.1,.3,.1,.4,1,.6,1.9,1.2,2.8,1.8,5.1,3.5,10.3,6.9,15.5,10.3,.5,.3,.9,.6,1.4,.8h0c.4,.3,.8,.7,1.2,1,.2,.1,.4,.2,.6,.2h0Z" fill="#e5a360"/>
      <path d="M245.5,105.5c-.1-.2-.2-.5-.2-.7,.5,.4,.9,.8,1.3,1.3,.9,1,1.8,2,2.6,3q.5,.5,.1,1.2c-.4,.7-.7,1.4-1.2,2.1-.1-.2-.3-.4-.4-.6,.4-.7,.9-1.5,1.3-2.2,.1-.2,0-.3-.1-.4-.9-1.2-2-2.3-3-3.4-.1-.2-.2-.3-.4-.3h0Z" fill="#e5a360"/>
      <path d="M242.8,103.1c0-.2-.1-.4-.1-.5,.7,.5,1.3,1,1.8,1.6-.2-.1-.5-.1-.8-.2-.1-.5-.5-.7-.9-.9h0Z" fill="#e5a360"/>
      <path d="M240,100.9c-.1-.2-.1-.3-.2-.5,.5,.2,.8,.5,1.2,.8h-.6c-.1-.2-.2-.2-.4-.3h0Z" fill="#e5a360"/>
      <path d="M194.4,108.9c-.1,0-.2,0-.2-.2,.1,0,.2,.1,.2,.2Z" fill="#ebb67a"/>
      <path d="M194.1,108.6c.1,.1-.1,.1,0,0h0Z" fill="#ebb67a"/>
      <path d="M236.9,151.7c-.2-.1-.5-.2-.8-.2,.1,0,.1-.1,.2-.1,1.2-.5,1.8-1.6,1.3-2.8v-.2c.4,.2,.5,.6,.6,1,.1,.1,.1,.2,.1,.3-.1,1-.5,1.7-1.4,2h0Z" fill="#ffe5be"/>
      <path d="M237.8,146.6c-.1,.3-.3,.6-.5,.8-.1,.1-.3,.2-.4,.3-.3-.1-.6-.3-.9-.3,1.4-.7,1.7-1.6,1.2-2.9,.6,.6,.8,1.3,.6,2.1h0Z" fill="#ffe5be"/>
      <path d="M293.4,97.7c-1.4,8.6-3,17.2-4.9,25.7,1.5-8.6,3.1-17.2,4.9-25.7Z" fill="#e5a360"/>
      <path d="M291.8,124.4c1.1-8.6,2.5-17.1,4-25.6h.1c-.5,2.8-.9,5.7-1.3,8.5s-.9,5.7-1.3,8.5c-.4,2.9-.9,5.8-1.5,8.6h0Z" fill="#e5a360"/>
      <path d="M290.6,124.3c1.3-8.7,2.7-17.3,4.3-25.9,.2,.6-3.8,24.7-4.3,25.9Z" fill="#e5a360"/>
      <path d="M294.2,98c-1.3,8.6-2.8,17.1-4.5,25.6,1.3-8.5,2.8-17.1,4.5-25.6Z" fill="#e5a360"/>
      <path d="M292.7,125c1.1-8.5,2.4-17.1,3.9-25.6,.1,.6-2.8,20.1-3.9,25.6Z" fill="#e5a360"/>
      <path d="M289.7,124s-.1,0,0,0q-.1,0,0,0-.1-.1,0,0,0-.1,0,0h0Z" fill="#e5a360"/>
      <path d="M293.6,97.4q-.1,0,0,0-.1-.1,0,0c-.1-.1,0-.1,0,0,0,0-.1,0,0,0Z" fill="#e5a360"/>
      <path d="M245.5,105.6c.2-.1,.3,.1,.4,.4,1,1.1,2.1,2.2,3,3.4,.1,.2,.2,.2,.1,.4-.5,.7-.9,1.4-1.3,2.2-.9-.8-1.9-.8-2.6-.3s-.9,1.2-.8,2c.1,.8,.6,1.4,1.4,1.6,.2,0,.4,0,.6,.1-.8,.4-1.1,.9-1.3,1.6-.1,0-.1,.1-.2,.2-.4,.7-.8,1.4-1.2,2.1-2.7,4.8-5.4,9.5-8.1,14.3-.1,.3-.2,.3-.4,.1-.2,.4,0,.6,.2,.9q.2,.3,.4,0c1-1.8,2.1-3.6,3.1-5.4,1.7-3,3.5-6.1,5.2-9.2,.4-.7,.8-1.3,1.1-2,.3,.4,.6,.9,1.2,1.1-1.1,.2-1.6,.8-1.7,1.8,0,.9,.4,1.5,1.2,2-.8,.1-1.4,.5-1.7,1.3s-.1,1.5,.5,2.2c-1.2-.2-2,.1-2.5,1.2-.4,.8-.1,1.6,.8,2.4-.3,0-.6,0-1-.3-1.1,.3-1.9,1.6-1.2,3l-.1,.1c-.7-.3-1.4-.2-2,.3-.9,.7-.9,1.9-.2,2.9l-.1,.1c-1.3-.3-2.2,.2-2.5,1.3-.1,.6-.1,1.2,.3,1.7,0,.1,.2,.2,0,.2-.3,0-.5-.2-.8-.1-.1-.5-.2-1-.5-1.5-.1,.4-.5,.5-.7,.8-.4,.1-.8,.2-1.2,.2-.1-.2-.3-.5-.5-.6q.1-.1,.2-.1c1,0,1.7-.6,1.9-1.6,.2-.9-.2-1.7-1.1-2.2-.1,0-.1-.1-.2-.1,.8-.6,1.2-1.3,1-2.3s-.9-1.4-1.8-1.6c.5-.7,.7-1.5,.2-2.3-.5-.7-1.2-1-2.1-.9,.2-.5,.4-1,.3-1.5-.2-1-.9-1.6-1.9-1.6-.2,0-.3,.1-.3-.2,.1-1.2-.8-2.4-2.2-2.2h-.3c0-.6-.1-1.1-.4-1.6-.4-.6-1.1-.9-2-.8,.1-.6,0-1.2-.4-1.7s-1-.7-1.6-.7c.3-.7,.2-1.4-.2-2-.3-.4-.7-.7-1.1-.8-.1,0-.3,0-.2-.2,.3-1,0-1.8-.8-2.4,.6-.5,.9-1.2,.7-2-.1-.3-.1-.5-.3-.7-.1-.2-.2-.3,.1-.5,.7-.5,1-1.3,.8-2.2-.1-.2-.1-.3,.2-.4,1.1-.4,1.6-1.6,1.2-2.7,0,0-.1-.1-.1-.2h.1c1.2,.9,2.7,.2,3-1,.1-.3,.1-.7,0-1.1,.6,.7,1.3,1,2.1,.8s1.3-.8,1.5-1.7c.4,1,.9,1.5,1.8,1.6,.9,0,1.6-.4,2-1.2,.4,1.9,2.4,2.3,3.5,1,.1,.3,0,.5,.1,.7,.3,1.1,1.3,1.8,2.4,1.5,.2,0,.3-.1,.4,.2,.2,1.3,1.3,1.9,2.6,1.5q.1-.1,.2-.1c-.3,.8-.3,1.5,.2,2.2s1.2,.9,2,.8c-.3,.5-.5,1-.4,1.6,.1,1.1,1,1.8,2.2,1.7,.9,0,1.7-1,1.7-2s-.9-1.9-1.9-1.9h-.4c.3-.5,.5-1,.4-1.6h0Z" fill="#ffe5be"/>
      <path d="M187.6,109.6c.5,.5,1.2,1,1.7,1.4,1.9,1.5,3.8,3,5.7,4.5s3.9,3.1,5.8,4.6c2.5,1.9,4.9,3.8,7.3,5.7,1.7,1.4,3.4,2.7,5.1,4,2.3,1.8,4.6,3.6,6.9,5.4,1.7,1.3,3.4,2.7,5.1,4,1.1,.8,2.1,1.7,3.2,2.5-.1,.2-.3,.3-.5,.5-1.6-1.2-3.2-2.5-4.8-3.7-1.5-1.1-2.9-2.2-4.4-3.4-2-1.6-3.9-3.1-5.9-4.7-1.4-1.1-2.8-2.1-4.1-3.2-1.8-1.4-3.7-2.9-5.6-4.4-1.7-1.3-3.4-2.7-5.1-4-1.9-1.5-3.9-3.1-5.8-4.6-1.4-1.2-2.8-2.3-4.3-3.4-.5-.4-.4-.8-.3-1.2h0Z" fill="#455325"/>
      <path d="M230.8,136.9c.1,.4,.3,.7,.7,1.1h-.3c-.6-.7-1.3-1.2-2-1.7-2.1-1.7-4.3-3.4-6.4-5-2.5-1.9-5.1-3.8-7.6-5.7-2.3-1.7-4.7-3.5-7-5.2-2.1-1.6-4.2-3.1-6.4-4.7-2.4-1.8-4.8-3.5-7.1-5.2-.2-.1-.5-.1-.5-.4h0c.7,.3,1.3,.7,1.9,1.1,2.8,1.8,5.4,3.6,8.1,5.4,3.7,2.6,7.4,5.3,11.1,8,2.2,1.6,4.3,3.2,6.4,4.8,1.5,1.2,3.1,2.5,4.6,3.7,1.4,1.2,2.9,2.4,4.3,3.7,0,0,.1,.1,.2,.1h0Z" fill="#ebb67a"/>
      <path d="M233.7,146.4c.2,.4,.5,.7,.9,.9l.3,.3c-.5,.4-.9,.8-1,1.5-.1,.8,.2,1.6,.8,2,.1,0,.1,.1,.2,.1q.4,.3,0,.5c-.9,.5-1.3,1.6-.9,2.5,0,.1,.1,.2,.1,.3-1.2,.4-2.5,.9-3.8,1.3h-.2c.1-.2,.1-.3,.1-.5,0-1-.5-1.8-1.5-2l-.1-.1c.3-.2,.6-.4,.8-.6l.1-.1h0c.1,0,.3,0,.4-.1,1-.3,1.9-.6,2.9-.9,.3-.1,.7-.2,1.1-.3-1.2-.8-2.3-1.7-3.4-2.5,.5-1,.3-1.9-.6-2.7,.8,.1,1.3-.2,1.8-.7,.3,0,.4,.2,.6,.3,.4,.3,.9,.6,1.4,.8h0Z" fill="#382115"/>
      <path d="M231.7,145.2c-.5,.6-1,.8-1.8,.7,.9,.8,1.1,1.7,.6,2.7-.3,.6-.9,.9-1.6,1,.5,.3,.8,.7,.9,1.2,.1,.6,0,1.2-.3,1.7h0l-.1,.1c-.2,.3-.5,.5-.8,.6-.2-.2-.5-.3-.8-.4,.8-.3,1.2-.9,1.3-1.7s-.3-1.4-1-1.9c.9-.1,1.5-.6,1.8-1.4,.4-.9,0-1.7-.7-2.3,1,0,1.7-.4,2.1-1.3,.3-.8,.1-1.6-.6-2.3,.9,.2,1.7,0,2.2-.8,.4-.6,.4-1.2,.2-1.9,.3,0,.4,.2,.5,.4,.2,.4,.4,.8,.3,1.3-.1,.4,0,.8,0,1.2-.7,.2-1.4,.5-2,.7-.2,.1-.2,.2-.1,.3,.3,.4,.3,.9,.2,1.4-.1,.2-.2,.5-.3,.7h0Z" fill="#ffe5be"/>
      <path d="M230.1,155.8c.1,0,.2,0,.2-.1,1.2-.4,2.5-.9,3.8-1.3,.4,.5,.8,.8,1.5,.9-1.2,.5-1.6,1.4-1.3,2.7-1-.6-1.9-.5-2.8,.4v-.5c-.1-1-.8-1.6-2-1.8,.1-.2,.4-.2,.6-.3h0Z" fill="#fff"/>
      <path d="M232,144.5c.1-.5,.1-1-.1-1.4q-.1-.2,.1-.3c.7-.3,1.3-.6,2-.7,.2,.5,.5,.9,.9,1.2,.1,.1,.1,.2-.1,.3-.8,.3-1.2,.9-1.3,1.8-.6-.2-1-.6-1.5-.9h0Z" fill="#5f7233"/>
      <path d="M239.8,137.8c.3,.2,.3,.6,.5,.8,.1,.8-.2,1.5-.9,2-.2,.1-.3,.1-.4,.2-.4,.1-.8,.1-1.2,0,.5,.7,.5,1.4,.3,2.1-.3,.5-.6,.9-1.2,1.1-.3-.2-.5-.4-.8-.5,.8-.2,1.4-.6,1.6-1.4,.2-.7,0-1.3-.4-1.8q.1-.1,.2-.1c1.6,0,2.4-.8,2.3-2.4h0Z" fill="#ffe5be"/>
      <path d="M228.6,162.6c.4,0,.6,.4,.3,.6-.1,.4-.4,.7-.6,1.1-.5,.9-1,1.8-1.6,2.7-.1,.2-.4,.3-.6,.2-.3-.2-.4-.4-.2-.7,.8-1.2,1.5-2.5,2.3-3.7,.1-.1,.3-.2,.4-.2h0Z" fill="#d57328"/>
      <path d="M235.8,149.3c-.5,0-.9-.4-.8-.8,0-.4,.4-.8,.9-.8s.9,.3,.9,.8-.5,.8-1,.8h0Z" fill="#d57328"/>
      <path d="M229.5,156.4c.5,0,.9,.3,.9,.8,0,.4-.4,.8-.9,.8s-.9-.4-.9-.8,.5-.8,.9-.8Z" fill="#d57328"/>
      <path d="M228,150c0,.4-.4,.8-.9,.8s-.9-.4-.9-.8c0-.5,.3-.8,.9-.8,.5,0,.9,.4,.9,.8Z" fill="#d57328"/>
      <path d="M227.5,154.7c-.5,0-.9-.4-.9-.8s.4-.8,.9-.8,.9,.3,.9,.8-.4,.8-.9,.8h0Z" fill="#d57328"/>
      <path d="M228.9,146.2c0,.5-.4,.8-.9,.8s-.9-.4-.9-.8,.4-.8,.9-.8c.6,0,1,.4,.9,.8Z" fill="#d57328"/>
      <path d="M236.2,157.2c-.5,0-.9-.4-1-.8,0-.4,.5-.8,1-.8s.9,.4,.9,.8c0,.5-.4,.8-.9,.8h0Z" fill="#d57328"/>
      <path d="M235.4,145.3c-.5,0-.9-.4-.9-.8s.6-.8,1-.8c.5,0,.9,.3,.9,.8s-.4,.8-1,.8Z" fill="#d57328"/>
      <path d="M233.2,158c.5,0,.9,.3,1,.8,0,.4-.5,.8-1,.8s-.9-.3-.9-.8,.4-.8,.9-.8h0Z" fill="#d57328"/>
      <path d="M229.4,143.3c-.5,0-.9-.3-.9-.8s.4-.8,.9-.8,.9,.3,.9,.8-.4,.8-.9,.8Z" fill="#d57328"/>
      <path d="M235.8,141.4c-.6,0-.9-.3-.9-.8s.3-.8,.9-.8c.5,0,.9,.4,.9,.8s-.4,.8-.9,.8h0Z" fill="#d57328"/>
      <path d="M231.3,138.3c.4-.1,.7,.1,.9,.5,.1,.3,0,.6-.2,.8-.3,.3-.7,.3-1.1,.2-.4-.1-.6-.5-.5-.9,0-.4,.4-.6,.9-.6h0Z" fill="#d57328"/>
      <path d="M235.8,153.2c-.5,0-.9-.3-.9-.7,0-.5,.3-.8,.9-.8,.5,0,.9,.4,.9,.8s-.4,.7-.9,.7Z" fill="#d57328"/>
      <path d="M230.1,155.8c-.2,.1-.5,.1-.6,.3-.2,.2-.3,0-.5,.1,.4-.7,.6-1.3,.3-2.1-.1-.3-.4-.5-.6-.8,1,.2,1.5,1,1.5,2,0,.2,0,.3-.1,.5Z" fill="#ffe5be"/>
      <path d="M232,144.5c.5,.3,1,.7,1.5,.8,0,.3,0,.7,.2,1-.5-.2-.9-.5-1.4-.8-.2-.1-.4-.3-.6-.3,.1-.2,.2-.5,.3-.7h0Z" fill="#455325"/>
      <path d="M233.9,140.9c.1-.5-.1-.9-.3-1.2-.1-.2-.2-.4-.5-.4q-.1-.1-.1-.2c.4,0,.8-.1,1.2-.2,.3,.2,.5,.6,.6,.9-.4,.2-.7,.7-.9,1.1h0Z" fill="#fdc993"/>
      <path d="M230.2,160.5c.1,.2-.3,.4-.1,.5s.3-.3,.5-.3c0,.1,.1,.2,.1,.2,.2,.2,.3,.4,.1,.6s-.5,.2-.7,.1c-.2-.1-.4-.2-.6-.4-.1-.1-.2-.3-.1-.5,.1-.2,.3-.2,.5-.2,.1,0,.2,0,.3,0h0Z" fill="#d57328"/>
      <path d="M234.8,139.7c-.1-.3-.3-.6-.5-.9,.2-.2,.6-.4,.7-.8,.3,.6,.3,1,.5,1.5-.3,0-.5,.1-.7,.2h0Z" fill="#ebb67a"/>
      <path d="M231.2,160.1c-.1,.1-.3,.2-.3,.3-.1,.1-.2,.2-.3,.1-.2-.1-.1-.2-.1-.3v-.3l.6-.6c.1,.3,0,.6,.1,.8h0Z" fill="#fff"/>
      <path d="M230.3,160c0,.1,.1,.3-.1,.4-.2-.2-.5-.2-.6-.2,.2-.1,.5-.1,.7-.2h0Z" fill="#ffe7d2"/>
      <path d="M234.9,147.6l-.3-.3c.2,.1,.5,.1,.7,.2-.1,.1-.3,.1-.4,.1h0Z" fill="#fdc993"/>
      <path d="M231.1,137.9h.2c-.1,.2-.3,.1-.4,.1q.1,0,.2-.1Z" fill="#b86428"/>
      <path d="M229.9,138.6v-.2h.1c0,.1-.1,.1-.1,.2Z" fill="#ebb67a"/>
      <path d="M238.9,140.8c.2,0,.3-.1,.5,.1,.4,0,.6-.2,.8-.3,2.5-1.4,5-2.6,7.6-3.8,2-1,4-1.9,6.1-2.7,1.6-.7,3.2-1.1,4.8-1.6,3-.9,5.9-1.5,8.9-2.1,2.8-.6,5.6-1.1,8.4-1.7,3.3-.6,6.6-1.2,9.8-2h.3c-.9,.4-1.7,.6-2.6,.8-3.6,.9-7.2,1.6-10.8,2.4-3.3,.7-6.7,1.4-10,2.2-2.7,.6-5.3,1.2-7.8,2.1-1.9,.7-3.8,1.5-5.7,2.3-2.4,1-4.8,2.1-7.2,3.2-1.1,.4-2.1,.9-3.2,1.4,0-.1,.1-.2,.1-.3h0Z" fill="#ebb67a"/>
      <path d="M242.9,140.6c1-.5,2.1-.9,3.3-1.2,2.6-1.1,5.3-2.1,8-3,2-.6,4-1.3,6-1.8,3.6-.9,7.2-1.9,10.8-2.8,3.1-.8,6.1-1.7,9.2-2.5,1.5-.4,2.9-.9,4.4-1.3,.1,0,.2-.1,.3,0-.5,.2-1.1,.3-1.6,.5-2.2,.6-4.3,1.2-6.4,1.8-2.2,.6-4.5,1.2-6.7,1.8-3.8,1.1-7.7,2-11.5,3.1-2.3,.6-4.4,1.3-6.6,2.1-3.1,1.1-6.1,2.2-9.2,3.3q.1,.1,0,0h0Z" fill="#ebb67a"/>
      <path d="M242.6,140.8s-.1,0,0,0h0l.1-.1s-.1,0-.1,.1h0Z" fill="#ebb67a"/>
      <path d="M285.2,127.7c.1,0,0,.1,0,0,0,.1,0,0,0,0h0s.1,0,0,0Z" fill="#ebb67a"/>
      <path d="M286,126.6h0c.1-.1,.1,0,.1,0h-.1Z" fill="#ebb67a"/>
      <path d="M248.4,120.3c1.7-3.4,3.5-6.9,5.2-10.4,.3-.6,.8-1,1.3-1.4,1.6-1.5,3.4-2.9,5.4-4,1.7-1,3.5-1.6,5.4-2.1,3.6-1,7.1-1.6,10.7-2.2,2.4-.4,4.8-.7,7.2-1h.3c-.1,.6-.3,1.2-.5,1.8-2.2,7.1-4.3,14.2-6.5,21.3-.1,.4-.3,.5-.6,.5-2.9,.2-5.7,.5-8.6,.9-4,.6-7.9,1.3-11.8,2.5-3.5,1.1-7,2.4-10.2,4.3-.1,0-.1,.1-.2,.1,0-.2,.1-.3,.2-.4,.2-.5,.4-1,.1-1.6v-.8c1.1,0,2-.8,2-1.8,0-.3-.1-.6,0-.9,.1-.5-.1-1-.3-1.4,.1-.1,.1,0,.2-.1,.6-.5,1-1.4,.7-2.1,.1-.4,.1-.8,0-1.2h0Z" fill="#ffe7d2"/>
      <path d="M245,117.8c-.3,.7-.7,1.3-1.1,2-1.7,3.1-3.5,6.1-5.2,9.2-1,1.8-2.1,3.6-3.1,5.4q-.2,.4-.4,0c-.1-.3-.4-.5-.2-.9,.2,.2,.3,.1,.4-.1,2.7-4.8,5.4-9.5,8.1-14.3,.4-.7,.8-1.4,1.2-2.1,.1-.1,.1-.2,.2-.2,.1,.3,.1,.7,.1,1Z" fill="#e5a360"/>
      <path d="M244.8,127.3c0,.4-.5,.8-.9,.8-.5,0-1-.4-1-.8s.5-.8,.9-.8c.5,0,1,.3,1,.8h0Z" fill="#d57328"/>
      <path d="M247.8,125.1c-.1,.3,0,.6,0,.9,0,1-.9,1.8-2,1.8-.1-.4-.3-.8-.7-1.1,.6,.1,1.1,.1,1.6-.1,.6-.3,.9-.9,1.1-1.5h0Z" fill="#ffe5be"/>
      <path d="M246.1,111.5c.6,0,1,.4,1,.8s-.5,.8-1,.8c-.4,0-.9-.4-.9-.8s.5-.8,.9-.8h0Z" fill="#d57328"/>
      <path d="M246.1,116.2c0-.5,.4-.8,.9-.8s.9,.4,.9,.8-.4,.8-.9,.8-.9-.3-.9-.8Z" fill="#d57328"/>
      <path d="M237.9,138.1c-.5,0-1-.4-1-.8,0-.5,.4-.8,1-.8s.9,.3,.9,.8-.3,.8-.9,.8h0Z" fill="#d57328"/>
      <path d="M240.1,133.2c.5,0,.9,.4,.9,.8s-.4,.8-.9,.8-.9-.4-.9-.8c0-.4,.4-.8,.9-.8h0Z" fill="#d57328"/>
      <path d="M242.5,131.9c-.5,0-.9-.4-.9-.8,0-.5,.4-.9,.9-.9,.6,0,1,.3,1,.8,0,.4-.5,.9-1,.9Z" fill="#d57328"/>
      <path d="M246.4,120.8c-.6,0-.9-.3-.9-.8s.4-.8,1-.8,.9,.3,.9,.8-.4,.8-1,.8Z" fill="#d57328"/>
      <path d="M245.8,124.6c-.5,.1-.9-.3-.9-.8s.4-.8,.9-.8c.6,0,.9,.2,.9,.7,.1,.6-.3,.9-.9,.9h0Z" fill="#d57328"/>
      <path d="M245.8,128.6c.3,.6,.1,1.1-.1,1.5-.1,.1-.2,.2-.2,.4-.4,.3-.7,.5-1.1,.7-.2-.4-.5-.7-.9-1,.4,0,.7,0,.9-.1,.8-.2,1.2-.8,1.4-1.5h0Z" fill="#ffe5be"/>
      <path d="M248.4,121.4c.3,.7-.1,1.7-.7,2.1,0,.1-.1,.1-.2,.1-.3-.2-.5-.5-.9-.7,.9-.1,1.5-.6,1.8-1.5Z" fill="#ffe5be"/>
      <path d="M238.6,136.3s.1,0,0,0q0,.1,0,0h0Z" fill="#ffe5be"/>
      <path d="M240.8,133.1c.1-.1,.1,0,0,0,.1,0,0,0,0,0q.1-.1,0,0Z" fill="#ffe5be"/>
      <path d="M196.2,112.7c11.1,8.3,22.2,16.7,33.1,25.3-11.2-8.3-22.2-16.7-33.1-25.3Z" fill="#ebb67a"/>
      <path d="M194.2,110.1c-.2-.1-.3-.1-.4-.2,.2,0,.3,.1,.4,.2h0Z" fill="#ebb67a"/>
      <path d="M196.1,112.5s-.1,.1,0,0c-.2,.1-.2,0-.2,0q0-.1,.2,0c-.1-.1-.1,0,0,0h0Z" fill="#ebb67a"/>
      <path d="M195.5,112.2c.1,0,.2,0,.2,.1s-.1,.1-.1,.1c-.1,0-.1-.1-.1-.2h0Z" fill="#ebb67a"/>
      <path d="M195.5,112.2h-.2v-.1c.1,0,.2,0,.2,.1h0Z" fill="#ebb67a"/>
      <path d="M229.9,138.4c-.1,0-.2,0-.1-.1h0q.1,0,.1,.1h0Z" fill="#ebb67a"/>
      <path d="M194.9,111.7s-.1,0,0,0q-.1,0,0,0-.1-.1,0,0,0-.1,0,0h0Z" fill="#ebb67a"/>
      <path d="M195.1,111.8s0,.1,.1,0h-.1q0,.1,0,0h0Z" fill="#ebb67a"/>
      <path d="M223.1,123.2c-.5-.2-1-.6-1.1-.9-5.1-3.5-10.3-6.9-15.5-10.3-1-.6-1.9-1.2-2.8-1.8-.3-.2-.3-.3-.1-.5,1.4-1.6,2.9-3.1,4.4-4.7,2.1-2.3,4.3-4.5,6.4-6.8,1.3-1.5,2.7-2.9,4.1-4.4,1.2-1.2,2.4-2.5,3.5-3.7,.2-.2,.3-.3,.6-.1,4.4,2.6,8.8,5.2,13.2,7.9,.6,.4,1.1,.7,1.7,1.1,.1,.1,.2,.1,.2,.3-.4,.1-.8,.3-1.1,.7-.1-1.2-.5-2-1.6-2.2-1-.2-1.7,.2-2.2,1.1-.5-1.2-1.1-1.7-2-1.7-1,.1-1.7,.8-1.9,1.8-.4-1.2-1.3-1.7-2.4-1.5-1,.3-1.6,1.2-1.5,2.4-.1,.1-.1,0-.2-.1-.7-.7-1.7-.7-2.5-.2s-1.1,1.5-.7,2.4c0,0,.1,.1,.1,.2h-.1c-1.1-.5-1.9-.4-2.6,.3-.5,.6-.6,1.3-.4,2q0,.2-.2,.3c-1.3,.4-1.9,1.9-1.1,3.1,.2,.3,.1,.4-.1,.5-1.1,.8-1.2,2.3-.2,3.2,.1,.1,.2,.2,0,.4-1,1.2-.5,2.8,.9,3.3,.2,.1,.3,.2,.2,.4-.4,1.3,.4,2.5,1.7,2.6,.2,0,.3,0,.2,.3-.4,1.4,.6,2.6,2.1,2.5q.2,0,.2,.2c0,.7,.2,1.3,.8,1.9,0-.1,.1-.1,0,0h0Z" fill="#ffe5be"/>
      <path d="M218.4,113.2c-.5,0-.9-.3-.9-.8s.4-.8,.9-.8,.9,.3,.9,.8-.4,.8-.9,.8h0Z" fill="#d57328"/>
      <path d="M228.9,126.1c-.5,0-.9-.3-.9-.8,0-.4,.5-.8,1-.8s.9,.4,.9,.8c0,.5-.4,.8-1,.8Z" fill="#d57328"/>
      <path d="M238,101.3c-.4,0-.8-.4-.9-.8,0-.5,.5-.8,1-.8,.4,0,.9,.4,.9,.8,0,.5-.4,.8-1,.8h0Z" fill="#d57328"/>
      <path d="M226.7,123.8c-.5,0-.9-.4-.9-.8,0-.5,.4-.9,.9-.9s.9,.4,.9,.8c0,.5-.4,.8-.9,.9Z" fill="#d57328"/>
      <path d="M220.3,102.1c.5,0,.9,.4,.9,.8,0,.5-.4,.9-.9,.9s-.9-.4-.9-.8,.4-.8,.9-.9Z" fill="#d57328"/>
      <path d="M243.5,105.8c-.5,0-.9-.4-.9-.8s.4-.8,.9-.8c.3,0,.5,0,.7,.2s.4,.4,.3,.7c-.1,.4-.3,.6-.7,.7-.1,0-.2,0-.3,0Z" fill="#d57328"/>
      <path d="M226.8,99.4c-.6,0-.9-.3-.9-.8s.4-.8,.9-.8c.6,0,.9,.3,.9,.8s-.3,.8-.9,.8h0Z" fill="#d57328"/>
      <path d="M240.8,103.1c-.5,0-.9-.4-.9-.8s.5-.8,.9-.8c.5,0,.9,.3,.9,.8s-.4,.8-.9,.8h0Z" fill="#d57328"/>
      <path d="M219.9,114.6c.6,0,1,.3,1,.8s-.3,.8-.9,.8-1-.4-1-.8,.3-.9,.9-.8h0Z" fill="#d57328"/>
      <path d="M224.2,121.3c-.5,0-.9-.4-1-.8,0-.5,.5-.8,1-.8,.6,0,.9,.3,.9,.8,0,.6-.3,.8-.9,.8h0Z" fill="#d57328"/>
      <path d="M230.7,99.2c-.6,.1-.9-.2-.8-.8,0-.6,.4-.8,1-.8,.4,0,.8,.4,.8,.8,0,.5-.4,.8-1,.8h0Z" fill="#d57328"/>
      <path d="M230.9,129.2c-.5,0-.9-.4-.9-.8,0-.5,.4-.8,1-.8s.9,.3,.9,.8-.3,.8-1,.8Z" fill="#d57328"/>
      <path d="M223.3,101.2c-.6,0-.9-.3-.9-.8s.3-.8,.9-.8,.9,.3,.9,.8c0,.4-.4,.7-.9,.8Z" fill="#d57328"/>
      <path d="M221.8,118.9c-.5,0-.9-.3-.9-.8s.4-.8,.9-.8,.9,.3,.9,.8-.3,.8-.9,.8h0Z" fill="#d57328"/>
      <path d="M218.8,106.6c-.5,0-.9-.3-1-.8,0-.5,.4-.8,1-.8s.9,.3,.9,.8-.3,.8-.9,.8h0Z" fill="#d57328"/>
      <path d="M245.5,107.5c.6,0,.9,.3,.9,.8s-.4,.8-.9,.8-.9-.4-.9-.8,.4-.8,.9-.8h0Z" fill="#d57328"/>
      <path d="M218.2,109.9c-.6,0-.9-.3-.9-.8s.4-.8,.9-.8,.9,.4,.9,.8c0,.5-.4,.8-.9,.8h0Z" fill="#d57328"/>
      <path d="M232.4,132.5c-.5,0-.9-.4-1-.8,0-.5,.5-.8,1-.8,.6,0,.9,.3,.9,.8s-.3,.8-.9,.8h0Z" fill="#d57328"/>
      <path d="M234.5,99.8c-.5,0-.9-.3-.9-.7s.4-.8,.9-.8c.6,0,.9,.2,.9,.7s-.3,.8-.9,.8h0Z" fill="#d57328"/>
      <path d="M232.7,134.7c.6,0,.9,.2,.8,.8,0,.5-.4,.8-.9,.8s-.9-.4-.9-.8c0-.5,.5-.8,1-.8h0Z" fill="#d57328"/>
      <path d="M224.9,124.3c-.2,0-.4-.1-.6-.2-.4-.3-.8-.7-1.2-1,.3,0,.5,.2,.8,.3s.6-.1,.8,.1c.2,.2,0,.5,.2,.8-.1,0-.1,.1,0,0Z" fill="#ffe5be"/>
      <path d="M242.8,103.1c.4,.2,.8,.4,.9,.9-.3-.1-.7,.1-1.1,.2,.1-.4,.2-.7,.2-1.1h0Z" fill="#ffe5be"/>
      <path d="M240,100.9c.2,.1,.3,.1,.4,.3-.3,.1-.4,0-.4-.3Z" fill="#fdc993"/>
      <path d="M222.1,102.9s-.1,0,0,0c0-.1,0,0,0,0h0Z" fill="#ffe5be"/>
      <path d="M221.6,102.2q0,.1,0,0c0,.1-.1,.1,0,0-.1,.1,0,.1,0,0h0Z" fill="#ffe5be"/>
      <path d="M229.5,152.5c.3-.5,.5-1.1,.3-1.6-.1-.5-.4-.9-.9-1.2,.7-.1,1.2-.4,1.6-1,1.1,.8,2.2,1.6,3.4,2.5-.4,.1-.7,.2-1.1,.3-1,.3-1.9,.6-2.9,.9-.1,.1-.3,.1-.4,.1h0Z" fill="#693419"/>
    </g>
    <polygon points="186.7 131.6 185.9 128.6 183.1 127.3 186 126.5 187.2 123.6 188 126.7 190.9 127.9 187.9 128.7 186.7 131.6" fill="#ffd08c"/>
    <polygon points="259.5 84.1 259.1 82.6 257.7 82 259.2 81.6 259.8 80.2 260.2 81.7 261.6 82.3 260.1 82.7 259.5 84.1" fill="#ffd08c"/>
  </g>
  <circle cx="29.3" cy="32.1" r="47.2" fill="url(#linear-gradient)" isolation="isolate" opacity=".07"/>
</svg>