<svg width="24" height="16" viewBox="0 0 24 16" fill="none" xmlns="http://www.w3.org/2000/svg">
<mask id="path-1-outside-1_1114_971" maskUnits="userSpaceOnUse" x="-3.14453" y="-0.148926" width="30" height="16" fill="black">
<rect fill="white" x="-3.14453" y="-0.148926" width="30" height="16"/>
<path d="M25.8098 14.4806H22.2916L15.4621 10.14L23.1462 5.25286C23.508 5.02293 23.6148 4.54378 23.3846 4.182L22.2222 2.35414C22.0333 2.05767 21.6758 1.93598 21.3538 2.02861L20.7987 1.19733C20.5536 0.830498 20.0436 0.733601 19.6821 1.01262C18.8612 1.64669 16.0532 3.72815 14.3822 3.88525C13.3163 3.98377 12.4806 4.53716 11.9962 5.43835C11.5085 4.53693 10.6743 3.98377 9.61411 3.88525C7.93769 3.7282 5.13273 1.64652 4.31289 1.01223C3.95784 0.737528 3.44598 0.824101 3.1972 1.19514L2.63686 2.02861C2.3166 1.94024 1.96279 2.06171 1.77528 2.35644L0.614591 4.1843C0.385113 4.5454 0.492333 5.02568 0.853214 5.25493L8.53708 10.1388L1.71031 14.4806H-1.81041C-1.99489 14.4806 -2.14453 14.6303 -2.14453 14.8147C-2.14453 14.9992 -1.99489 15.1489 -1.81041 15.1489H25.8098C25.9942 15.1489 26.1439 14.9992 26.1439 14.8147C26.1439 14.6303 25.9942 14.4806 25.8098 14.4806ZM14.4444 4.55051C16.244 4.38152 18.9926 2.38988 20.0907 1.54154C20.1386 1.50423 20.2083 1.51663 20.2432 1.56876L20.7695 2.35706L12.3373 7.72067V6.38948C12.5153 5.73594 13.0198 4.68242 14.4444 4.55051ZM3.7521 1.5678C3.78694 1.51517 3.85612 1.50373 3.90415 1.54081C5.00087 2.38938 7.7467 4.38146 9.55211 4.55045C10.9913 4.68433 11.4953 5.77336 11.669 6.42443V7.72623L3.22178 2.35639L3.7521 1.5678ZM1.21163 4.69123C1.16158 4.65925 1.1466 4.59293 1.17858 4.54266L2.33927 2.7148C2.37164 2.66436 2.43824 2.65016 2.48806 2.68175C14.7018 10.4478 10.4475 7.74261 11.3762 8.33308L9.15965 9.74283L1.21163 4.69123ZM2.95532 14.4806C2.99993 14.4523 13.6248 7.70289 21.51 2.68001C21.5607 2.64758 21.6267 2.6634 21.6583 2.71283L22.8208 4.54069C22.8527 4.59063 22.8379 4.65711 22.7877 4.68904C16.5429 8.66069 12.496 11.234 7.3921 14.4806H2.95532ZM12.0025 12.3403L15.3673 14.4806H8.63718L12.0025 12.3403ZM16.6122 14.4806L12.6255 11.9448C12.6701 11.9164 14.9865 10.4424 14.8396 10.5358L21.046 14.4806H16.6122Z"/>
</mask>
<path d="M25.8098 14.4806H22.2916L15.4621 10.14L23.1462 5.25286C23.508 5.02293 23.6148 4.54378 23.3846 4.182L22.2222 2.35414C22.0333 2.05767 21.6758 1.93598 21.3538 2.02861L20.7987 1.19733C20.5536 0.830498 20.0436 0.733601 19.6821 1.01262C18.8612 1.64669 16.0532 3.72815 14.3822 3.88525C13.3163 3.98377 12.4806 4.53716 11.9962 5.43835C11.5085 4.53693 10.6743 3.98377 9.61411 3.88525C7.93769 3.7282 5.13273 1.64652 4.31289 1.01223C3.95784 0.737528 3.44598 0.824101 3.1972 1.19514L2.63686 2.02861C2.3166 1.94024 1.96279 2.06171 1.77528 2.35644L0.614591 4.1843C0.385113 4.5454 0.492333 5.02568 0.853214 5.25493L8.53708 10.1388L1.71031 14.4806H-1.81041C-1.99489 14.4806 -2.14453 14.6303 -2.14453 14.8147C-2.14453 14.9992 -1.99489 15.1489 -1.81041 15.1489H25.8098C25.9942 15.1489 26.1439 14.9992 26.1439 14.8147C26.1439 14.6303 25.9942 14.4806 25.8098 14.4806ZM14.4444 4.55051C16.244 4.38152 18.9926 2.38988 20.0907 1.54154C20.1386 1.50423 20.2083 1.51663 20.2432 1.56876L20.7695 2.35706L12.3373 7.72067V6.38948C12.5153 5.73594 13.0198 4.68242 14.4444 4.55051ZM3.7521 1.5678C3.78694 1.51517 3.85612 1.50373 3.90415 1.54081C5.00087 2.38938 7.7467 4.38146 9.55211 4.55045C10.9913 4.68433 11.4953 5.77336 11.669 6.42443V7.72623L3.22178 2.35639L3.7521 1.5678ZM1.21163 4.69123C1.16158 4.65925 1.1466 4.59293 1.17858 4.54266L2.33927 2.7148C2.37164 2.66436 2.43824 2.65016 2.48806 2.68175C14.7018 10.4478 10.4475 7.74261 11.3762 8.33308L9.15965 9.74283L1.21163 4.69123ZM2.95532 14.4806C2.99993 14.4523 13.6248 7.70289 21.51 2.68001C21.5607 2.64758 21.6267 2.6634 21.6583 2.71283L22.8208 4.54069C22.8527 4.59063 22.8379 4.65711 22.7877 4.68904C16.5429 8.66069 12.496 11.234 7.3921 14.4806H2.95532ZM12.0025 12.3403L15.3673 14.4806H8.63718L12.0025 12.3403ZM16.6122 14.4806L12.6255 11.9448C12.6701 11.9164 14.9865 10.4424 14.8396 10.5358L21.046 14.4806H16.6122Z" fill="#17689C"/>
<path d="M22.2916 14.4806L22.238 14.565L22.2625 14.5806H22.2916V14.4806ZM15.4621 10.14L15.4084 10.0556L15.2757 10.14L15.4085 10.2244L15.4621 10.14ZM23.1462 5.25286L23.0925 5.16846L23.0925 5.16848L23.1462 5.25286ZM23.3846 4.182L23.3002 4.23566L23.3002 4.23568L23.3846 4.182ZM22.2222 2.35414L22.3065 2.30048L22.3065 2.30041L22.2222 2.35414ZM21.3538 2.02861L21.2706 2.08414L21.3112 2.14491L21.3814 2.12471L21.3538 2.02861ZM20.7987 1.19733L20.8818 1.14179L20.8818 1.14178L20.7987 1.19733ZM19.6821 1.01262L19.621 0.933459L19.621 0.933481L19.6821 1.01262ZM14.3822 3.88525L14.3914 3.98482L14.3916 3.98481L14.3822 3.88525ZM11.9962 5.43835L11.9082 5.48593L11.9965 5.64903L12.0843 5.4857L11.9962 5.43835ZM9.61411 3.88525L9.60478 3.98481L9.60486 3.98482L9.61411 3.88525ZM4.31289 1.01223L4.2517 1.09132L4.2517 1.09132L4.31289 1.01223ZM3.1972 1.19514L3.28019 1.25093L3.28026 1.25083L3.1972 1.19514ZM2.63686 2.02861L2.61026 2.12501L2.67967 2.14416L2.71985 2.0844L2.63686 2.02861ZM1.77528 2.35644L1.69091 2.30276L1.69086 2.30284L1.77528 2.35644ZM0.614591 4.1843L0.698991 4.23793L0.699009 4.2379L0.614591 4.1843ZM0.853214 5.25493L0.906856 5.17054L0.906836 5.17053L0.853214 5.25493ZM8.53708 10.1388L8.59075 10.2232L8.72346 10.1388L8.59072 10.0544L8.53708 10.1388ZM1.71031 14.4806V14.5806H1.73941L1.76397 14.565L1.71031 14.4806ZM14.4444 4.55051L14.4536 4.65008L14.4538 4.65007L14.4444 4.55051ZM20.0907 1.54154L20.1518 1.62068L20.152 1.62048L20.0907 1.54154ZM20.2432 1.56876L20.3263 1.51322L20.3262 1.51312L20.2432 1.56876ZM20.7695 2.35706L20.8232 2.44144L20.9095 2.38656L20.8527 2.30153L20.7695 2.35706ZM12.3373 7.72067H12.2373V7.9028L12.3909 7.80505L12.3373 7.72067ZM12.3373 6.38948L12.2408 6.36319L12.2373 6.3761V6.38948H12.3373ZM3.7521 1.5678L3.83508 1.62361L3.83548 1.623L3.7521 1.5678ZM3.90415 1.54081L3.96534 1.46172L3.96527 1.46166L3.90415 1.54081ZM9.55211 4.55045L9.54279 4.65002L9.54285 4.65002L9.55211 4.55045ZM11.669 6.42443H11.769V6.41132L11.7657 6.39864L11.669 6.42443ZM11.669 7.72623L11.6154 7.81062L11.769 7.90829V7.72623H11.669ZM3.22178 2.35639L3.13879 2.30058L3.08153 2.38573L3.16813 2.44078L3.22178 2.35639ZM1.21163 4.69123L1.15778 4.77549L1.15799 4.77562L1.21163 4.69123ZM1.17858 4.54266L1.26295 4.59633L1.263 4.59626L1.17858 4.54266ZM2.33927 2.7148L2.25511 2.66078L2.25485 2.66119L2.33927 2.7148ZM2.48806 2.68175L2.54172 2.59736L2.54161 2.5973L2.48806 2.68175ZM11.3762 8.33308L11.4298 8.41746L11.5625 8.33307L11.4298 8.2487L11.3762 8.33308ZM9.15965 9.74283L9.106 9.82722L9.15966 9.86133L9.21331 9.82721L9.15965 9.74283ZM2.95532 14.4806L2.9017 14.3962L2.6114 14.5806H2.95532V14.4806ZM21.51 2.68001L21.5637 2.76435L21.5639 2.76424L21.51 2.68001ZM21.6583 2.71283L21.7427 2.65917L21.7426 2.65892L21.6583 2.71283ZM22.8208 4.54069L22.7364 4.59435L22.7366 4.59462L22.8208 4.54069ZM22.7877 4.68904L22.7341 4.60465L22.7341 4.60466L22.7877 4.68904ZM7.3921 14.4806V14.5806H7.42121L7.44578 14.565L7.3921 14.4806ZM12.0025 12.3403L12.0562 12.2559L12.0025 12.2217L11.9489 12.2559L12.0025 12.3403ZM15.3673 14.4806V14.5806H15.7109L15.421 14.3962L15.3673 14.4806ZM8.63718 14.4806L8.58351 14.3962L8.2936 14.5806H8.63718V14.4806ZM16.6122 14.4806L16.5586 14.565L16.5831 14.5806H16.6122V14.4806ZM12.6255 11.9448L12.5718 11.8604L12.4392 11.9448L12.5718 12.0291L12.6255 11.9448ZM14.8396 10.5358L14.7859 10.4515L14.6532 10.5359L14.7859 10.6202L14.8396 10.5358ZM21.046 14.4806V14.5806H21.3897L21.0996 14.3962L21.046 14.4806ZM25.8098 14.3806H22.2916V14.5806H25.8098V14.3806ZM22.3453 14.3962L15.5157 10.0556L15.4085 10.2244L22.238 14.565L22.3453 14.3962ZM15.5158 10.2243L23.1999 5.33724L23.0925 5.16848L15.4084 10.0556L15.5158 10.2243ZM23.1998 5.33726C23.6082 5.07771 23.7288 4.53673 23.469 4.12831L23.3002 4.23568C23.5007 4.55082 23.4077 4.96815 23.0925 5.16846L23.1998 5.33726ZM23.469 4.12834L22.3065 2.30048L22.1378 2.4078L23.3002 4.23566L23.469 4.12834ZM22.3065 2.30041C22.0928 1.9649 21.6889 1.82817 21.3261 1.93251L21.3814 2.12471C21.6628 2.04378 21.9738 2.15044 22.1378 2.40787L22.3065 2.30041ZM21.437 1.97307L20.8818 1.14179L20.7155 1.25286L21.2706 2.08414L21.437 1.97307ZM20.8818 1.14178C20.6056 0.728281 20.0298 0.617962 19.621 0.933459L19.7432 1.09178C20.0575 0.84924 20.5017 0.932715 20.7155 1.25287L20.8818 1.14178ZM19.621 0.933481C19.2119 1.2495 18.3079 1.92591 17.2988 2.54247C16.7943 2.85075 16.265 3.14313 15.7592 3.36791C15.2522 3.59324 14.7749 3.74789 14.3728 3.78569L14.3916 3.98481C14.825 3.94406 15.3253 3.77961 15.8404 3.55067C16.3568 3.32118 16.8941 3.02411 17.4031 2.71313C18.421 2.09116 19.3315 1.40981 19.7433 1.09176L19.621 0.933481ZM14.373 3.78567C13.2746 3.8872 12.4088 4.45951 11.9081 5.391L12.0843 5.4857C12.5524 4.6148 13.358 4.08034 14.3914 3.98482L14.373 3.78567ZM12.0841 5.39076C11.5803 4.45943 10.7162 3.88724 9.62337 3.78568L9.60486 3.98482C10.6324 4.08031 11.4367 4.61443 11.9082 5.48593L12.0841 5.39076ZM9.62344 3.78568C9.22003 3.74789 8.74187 3.59323 8.23443 3.36789C7.72822 3.1431 7.19885 2.85069 6.69443 2.54238C5.68562 1.92577 4.78267 1.24926 4.37408 0.933137L4.2517 1.09132C4.66294 1.40949 5.5724 2.09097 6.59013 2.71303C7.09899 3.02406 7.63642 3.32116 8.15326 3.55068C8.66887 3.77964 9.16998 3.94408 9.60478 3.98481L9.62344 3.78568ZM4.37408 0.933138C3.97274 0.622619 3.39481 0.720853 3.11414 1.13945L3.28026 1.25083C3.49715 0.927349 3.94295 0.852438 4.2517 1.09132L4.37408 0.933138ZM3.11421 1.13934L2.55387 1.97282L2.71985 2.0844L3.28019 1.25093L3.11421 1.13934ZM2.66346 1.93221C2.303 1.83275 1.90318 1.9691 1.69091 2.30276L1.85965 2.41012C2.02239 2.15432 2.3302 2.04773 2.61026 2.12501L2.66346 1.93221ZM1.69086 2.30284L0.530173 4.13069L0.699009 4.2379L1.8597 2.41005L1.69086 2.30284ZM0.530191 4.13066C0.271085 4.53839 0.392094 5.08047 0.799593 5.33934L0.906836 5.17053C0.592572 4.97089 0.499141 4.55242 0.698991 4.23793L0.530191 4.13066ZM0.799573 5.33933L8.48344 10.2232L8.59072 10.0544L0.906856 5.17054L0.799573 5.33933ZM8.48341 10.0544L1.65664 14.3962L1.76397 14.565L8.59075 10.2232L8.48341 10.0544ZM1.71031 14.3806H-1.81041V14.5806H1.71031V14.3806ZM-1.81041 14.3806C-2.05012 14.3806 -2.24453 14.575 -2.24453 14.8147H-2.04453C-2.04453 14.6855 -1.93967 14.5806 -1.81041 14.5806V14.3806ZM-2.24453 14.8147C-2.24453 15.0544 -2.05012 15.2489 -1.81041 15.2489V15.0489C-1.93966 15.0489 -2.04453 14.944 -2.04453 14.8147H-2.24453ZM-1.81041 15.2489H25.8098V15.0489H-1.81041V15.2489ZM25.8098 15.2489C26.0495 15.2489 26.2439 15.0544 26.2439 14.8147H26.0439C26.0439 14.944 25.939 15.0489 25.8098 15.0489V15.2489ZM26.2439 14.8147C26.2439 14.575 26.0494 14.3806 25.8098 14.3806V14.5806C25.939 14.5806 26.0439 14.6855 26.0439 14.8147H26.2439ZM14.4538 4.65007C15.3778 4.5633 16.5316 4.01227 17.5818 3.38669C18.636 2.75872 19.6012 2.04603 20.1518 1.62068L20.0295 1.46241C19.482 1.88539 18.5239 2.5927 17.4794 3.21487C16.4309 3.83945 15.3107 4.36872 14.4351 4.45095L14.4538 4.65007ZM20.152 1.62048C20.1525 1.6201 20.1529 1.61982 20.1542 1.62006C20.1557 1.62031 20.158 1.62126 20.1601 1.62439L20.3262 1.51312C20.2609 1.4155 20.1256 1.3877 20.0293 1.46261L20.152 1.62048ZM20.16 1.62429L20.6864 2.41259L20.8527 2.30153L20.3263 1.51322L20.16 1.62429ZM20.7159 2.27268L12.2836 7.6363L12.3909 7.80505L20.8232 2.44144L20.7159 2.27268ZM12.4373 7.72067V6.38948H12.2373V7.72067H12.4373ZM12.4338 6.41576C12.6073 5.77882 13.0905 4.7763 14.4536 4.65008L14.4352 4.45094C12.949 4.58854 12.4233 5.69307 12.2408 6.36319L12.4338 6.41576ZM3.83548 1.623C3.83753 1.61991 3.83942 1.61934 3.8403 1.61919C3.84124 1.61903 3.84196 1.61913 3.84303 1.61996L3.96527 1.46166C3.87006 1.38815 3.73478 1.41281 3.66872 1.5126L3.83548 1.623ZM3.84296 1.6199C4.39286 2.04538 5.35707 2.75825 6.41118 3.38638C7.46129 4.01212 8.61589 4.56326 9.54279 4.65002L9.56143 4.45089C8.68292 4.36866 7.5619 3.83925 6.51356 3.21457C5.46923 2.59227 4.51217 1.88481 3.96534 1.46172L3.84296 1.6199ZM9.54285 4.65002C10.9194 4.77807 11.4028 5.81451 11.5724 6.45022L11.7657 6.39864C11.5878 5.73221 11.0632 4.59058 9.56138 4.45088L9.54285 4.65002ZM11.569 6.42443V7.72623H11.769V6.42443H11.569ZM11.7227 7.64184L3.27542 2.27199L3.16813 2.44078L11.6154 7.81062L11.7227 7.64184ZM3.30476 2.41219L3.83508 1.62361L3.66912 1.512L3.13879 2.30058L3.30476 2.41219ZM1.26547 4.60696C1.26157 4.60446 1.26078 4.59974 1.26295 4.59633L1.09421 4.48898C1.03241 4.58611 1.06159 4.71403 1.15778 4.77549L1.26547 4.60696ZM1.263 4.59626L2.42369 2.7684L2.25485 2.66119L1.09416 4.48905L1.263 4.59626ZM2.42342 2.76881C2.42592 2.76493 2.43089 2.76391 2.43452 2.76621L2.54161 2.5973C2.44559 2.53642 2.31737 2.56379 2.25511 2.66078L2.42342 2.76881ZM2.43441 2.76614C8.5413 6.64914 10.5312 7.91436 11.1104 8.28263C11.2552 8.37469 11.3118 8.41071 11.3226 8.41756C11.3233 8.41799 11.3238 8.41831 11.3241 8.41852C11.3243 8.41863 11.3244 8.41871 11.3245 8.41878C11.3246 8.41882 11.3246 8.41886 11.3247 8.4189C11.3248 8.41897 11.4612 8.39021 11.4365 8.25315C11.4343 8.25167 11.4321 8.25018 11.432 8.25011C11.4319 8.25008 11.4319 8.25004 11.4318 8.25C11.4317 8.24994 11.4316 8.24985 11.4314 8.24975C11.4311 8.24955 11.4306 8.24925 11.43 8.24887C11.4276 8.24735 11.423 8.24442 11.4169 8.24052C11.4046 8.23271 11.3862 8.22098 11.3668 8.20867C11.3281 8.18404 11.2858 8.15717 11.2823 8.1549C11.2822 8.15482 11.2821 8.15481 11.2822 8.15484C11.2823 8.1549 11.3131 8.29209 11.1764 8.32455C11.1757 8.32411 11.1749 8.32362 11.1748 8.3236C11.1748 8.32359 11.1749 8.32361 11.175 8.3237C11.1751 8.32377 11.1753 8.32387 11.1755 8.324C11.1763 8.32453 11.1778 8.3255 11.1801 8.32696C11.1847 8.32988 11.1924 8.33476 11.2038 8.34202C11.2267 8.35654 11.2645 8.38057 11.3225 8.41747L11.4298 8.2487C11.3718 8.21179 11.334 8.18776 11.3111 8.17324C11.2997 8.16598 11.292 8.1611 11.2874 8.15817C11.2851 8.15671 11.2836 8.15573 11.2827 8.15519C11.2823 8.15494 11.282 8.15474 11.2819 8.15464C11.2818 8.15458 11.281 8.15408 11.2803 8.15364C11.1435 8.18609 11.1744 8.3233 11.1745 8.32338C11.1746 8.32345 11.1748 8.32354 11.1749 8.3236C11.1785 8.32591 11.2208 8.35284 11.2595 8.37743C11.2789 8.38974 11.2973 8.40148 11.3096 8.40928C11.3157 8.41318 11.3203 8.4161 11.3227 8.41761C11.3269 8.42032 11.3229 8.41782 11.3199 8.41567C11.2952 8.27861 11.4316 8.24983 11.4316 8.24989C11.4316 8.2499 11.4317 8.24991 11.4316 8.24989C11.4316 8.24986 11.4315 8.24979 11.4313 8.24969C11.431 8.24949 11.4305 8.24919 11.4299 8.24876C11.4191 8.24193 11.3625 8.20593 11.2177 8.11386C10.6385 7.74558 8.64861 6.48037 2.54172 2.59736L2.43441 2.76614ZM11.3225 8.2487L9.10598 9.65845L9.21331 9.82721L11.4298 8.41746L11.3225 8.2487ZM9.21329 9.65843L1.26527 4.60683L1.15799 4.77562L9.106 9.82722L9.21329 9.65843ZM3.00894 14.565C3.05354 14.5367 13.6785 7.78727 21.5637 2.76435L21.4563 2.59567C13.5711 7.61851 2.94631 14.3679 2.9017 14.3962L3.00894 14.565ZM21.5639 2.76424C21.5669 2.7623 21.5715 2.7627 21.5741 2.76675L21.7426 2.65892C21.6819 2.56411 21.5544 2.53286 21.4561 2.59579L21.5639 2.76424ZM21.574 2.7665L22.7364 4.59435L22.9051 4.48703L21.7427 2.65917L21.574 2.7665ZM22.7366 4.59462C22.7385 4.59766 22.7378 4.60225 22.7341 4.60465L22.8414 4.77343C22.938 4.71198 22.967 4.58359 22.905 4.48676L22.7366 4.59462ZM22.7341 4.60466C16.4892 8.57631 12.4423 11.1497 7.33843 14.3962L7.44578 14.565C12.5497 11.3184 16.5965 8.74508 22.8414 4.77342L22.7341 4.60466ZM7.3921 14.3806H2.95532V14.5806H7.3921V14.3806ZM11.9489 12.4246L15.3137 14.565L15.421 14.3962L12.0562 12.2559L11.9489 12.4246ZM15.3673 14.3806H8.63718V14.5806H15.3673V14.3806ZM8.69084 14.565L12.0562 12.4246L11.9489 12.2559L8.58351 14.3962L8.69084 14.565ZM16.6659 14.3962L12.6792 11.8604L12.5718 12.0291L16.5586 14.565L16.6659 14.3962ZM12.6792 12.0291C12.7015 12.0149 13.2917 11.6393 13.858 11.279C14.1412 11.0988 14.4184 10.9224 14.6156 10.797C14.7142 10.7342 14.7928 10.6842 14.8421 10.6528C14.8668 10.6371 14.8842 10.626 14.8931 10.6203C14.8969 10.6179 14.9003 10.6158 14.9011 10.6152C14.9307 10.478 14.7935 10.4467 14.793 10.447C14.7929 10.447 14.7928 10.4471 14.7927 10.4472C14.7926 10.4472 14.7925 10.4473 14.7923 10.4474C14.792 10.4476 14.7916 10.4479 14.791 10.4482C14.7899 10.4489 14.7882 10.45 14.7859 10.4515L14.8933 10.6202C14.8955 10.6188 14.8972 10.6177 14.8983 10.617C14.8989 10.6166 14.8993 10.6164 14.8995 10.6162C14.8996 10.6162 14.8996 10.6162 14.8997 10.6162C14.8997 10.6161 14.8997 10.6161 14.8997 10.6161C14.8997 10.6161 14.8996 10.6162 14.8995 10.6162C14.8991 10.6165 14.7619 10.5852 14.7915 10.4479C14.7921 10.4475 14.7908 10.4483 14.7857 10.4516C14.7768 10.4573 14.7594 10.4683 14.7348 10.484C14.6854 10.5155 14.6068 10.5655 14.5082 10.6282C14.311 10.7537 14.0338 10.9301 13.7507 11.1103C13.1844 11.4706 12.5941 11.8462 12.5718 11.8604L12.6792 12.0291ZM14.7859 10.6202L20.9923 14.565L21.0996 14.3962L14.8932 10.4515L14.7859 10.6202ZM21.046 14.3806H16.6122V14.5806H21.046V14.3806Z" fill="#17689C" mask="url(#path-1-outside-1_1114_971)"/>
</svg>
