<?xml version="1.0" encoding="UTF-8"?>
<svg id="Layer_1" data-name="Layer 1" xmlns="http://www.w3.org/2000/svg" width="293.9" height="124" xmlns:xlink="http://www.w3.org/1999/xlink" viewBox="0 0 293.9 124">
  <defs>
    <linearGradient id="linear-gradient" x1="-27.69" y1="154.08" x2="43.99" y2="65.34" gradientTransform="translate(279.21 124.22) rotate(-180)" gradientUnits="userSpaceOnUse">
      <stop offset="0" stop-color="#fff"/>
      <stop offset=".12" stop-color="#fff6ee"/>
      <stop offset=".35" stop-color="#f8ddc1"/>
      <stop offset=".67" stop-color="#f4b677"/>
      <stop offset="1" stop-color="#ef8c25"/>
    </linearGradient>
  </defs>
  <g>
    <g opacity=".2">
      <path d="M19.94,95.34c.11,0,.23,0,.23-.17,.02-.03,.05-.05,.07-.07,.12,0,.23,0,.23-.17,.02-.03,.05-.05,.07-.07,.12,0,.23,0,.23-.16h0c.18,.02,.31-.02,.31-.24h0c.18,.02,.31-.02,.31-.24h0c.18,.02,.33-.01,.3-.25h0c.74,.04,1.4,.37,2.08,.6,2.93,.98,5.84,2,8.77,2.97,6.67,2.21,13.3,4.51,19.96,6.75,2.03,.69,4.07,1.37,6.1,2.05,.16,.05,.31,.11,.52,.19-.98,.73-1.91,1.44-2.84,2.14-1.5,1.13-2.99,2.25-4.49,3.37-2.17,1.62-4.34,3.24-6.51,4.87-1.89,1.42-3.78,2.85-5.67,4.27-1.99,1.5-3.99,3-5.98,4.5-2.21,1.66-4.41,3.32-6.62,4.98-2.74,2.05-5.49,4.09-8.23,6.15-2.39,1.79-4.77,3.6-7.16,5.4-.59,.45-1.18,.89-1.78,1.32-.12,.09-.25,.15-.25,.32-.22-.17-.13-.42-.14-.64-.06-1.37-.1-2.74-.17-4.11-.09-1.87-.19-3.74-.29-5.61-.01-.26,.05-.43,.25-.6,.36-.29,.7-.63,1.05-.95,2.78-2.53,5.52-5.1,8.38-7.52,1.44-1.22,2.5-2.63,3.05-4.45,.61-2.03,.92-4.13,1.23-6.22,.22-1.48,.44-2.97,.73-4.44,.12-.63,.35-1.23,.4-1.87,.3-.37,.33-.86,.51-1.28,.1-.24,.39-.53,.23-.74s-.49,.03-.73,.08c-1.31,.3-2.64,.3-3.97,.3-1.65-.01-3.29,.08-4.9,.47-.86,.21-1.7,.52-2.51,.89-1.56,.71-2.99,1.63-4.32,2.71-.15,.12-.26,.28-.39,.42-.19-.22-.13-.5-.14-.76-.08-1.5-.14-3-.23-4.49-.01-.27,.08-.42,.28-.57,1.9-1.45,3.8-2.9,5.69-4.35,1.44-1.1,2.86-2.21,4.31-3.29,.37-.28,.72-.62,1.15-.83,.11,0,.23,0,.23-.17,.02-.02,.05-.05,.07-.07,.11,0,.23,0,.23-.17,.02-.02,.05-.05,.07-.07,.11,0,.23,0,.23-.17,.02-.03,.07-.07,.07-.07l-.02,.06Z" fill="#4b2716"/>
      <path d="M47.5,64.52c0,.34,.22,.6,.36,.88,.73,1.43,1.47,2.85,2.21,4.27,.1,.21,.22,.41,.33,.61-.13,.45-.17,.9-.07,1.36,0,.24-.04,.49-.15,.71-1.46-2.87-2.91-5.75-4.37-8.62-.06-.12-.14-.24-.24-.34-2.37-2.36-4.97-4.42-7.98-5.9-1.57-.78-3.26-1.23-4.94-1.67-3.54-.92-7.14-1.58-10.75-2.12-2.4-.36-4.8-.7-7.21-.93q-.64-.07-.45,.54c2,6.49,3.99,12.99,5.98,19.49,.39,1.3,.8,2.59,1.18,3.89,.08,.25,.19,.31,.43,.33,1.82,.15,3.64,.28,5.46,.48,1.85,.2,3.7,.45,5.54,.74,3.02,.48,6.01,1.09,8.97,1.89,3.25,.88,6.41,2,9.43,3.5,1.06,.53,2.1,1.12,3.09,1.77,.1,.07,.22,.13,.33,.19,0,.1,0,.2,0,.3-.28,.72-.19,1.42,.11,2.11-1.23-.78-2.48-1.52-3.79-2.15-2.52-1.22-5.16-2.06-7.91-2.55-1.62-.29-3.26-.43-4.89-.61-1.79-.2-3.57-.41-5.36-.61-1.25-.13-2.51-.26-3.77-.4-1.2-.14-2.39-.29-3.58-.44-1.14-.14-2.29-.26-3.43-.41-1.51-.21-3.01-.42-4.51-.66-1.24-.2-2.49-.44-3.73-.66h0c-.08-.11-.21-.06-.31-.09-.4-.15-.8-.3-1.2-.45-.24-1.24-.48-2.48-.73-3.71-.67-3.3-1.35-6.6-2.03-9.9-.59-2.84-1.19-5.67-1.78-8.5-.5-2.35-1-4.71-1.49-7.06v-.19c.33-.06,.64,.07,.95,.12,1.46,.23,2.93,.53,4.4,.73,1.44,.2,2.89,.35,4.33,.5,1.5,.15,3,.22,4.49,.43,1.6,.22,3.19,.5,4.77,.84,1.93,.42,3.84,.92,5.73,1.49,2.44,.74,4.84,1.62,7.15,2.71,1.8,.84,3.54,1.8,5.13,3.02,1.2,.91,2.3,1.93,3.21,3.16,.44,.6,.72,1.29,1.12,1.92h-.02Z" fill="#ffe7d2"/>
      <path d="M47.53,64.58c.04-.07,.09-.13,.12-.2,.48-1.23,1.05-2.4,1.7-3.55,1.79-3.16,4.19-5.72,7.13-7.78,1.77-1.24,3.65-2.29,5.6-3.2,1.84-.86,3.66-1.78,5.45-2.76,1.77-.96,3.51-1.96,5.24-3,2.74-1.65,5.45-3.34,8.12-5.11,.39-.26,.75-.58,1.2-.73,.58,.6,1.13,1.23,1.74,1.79,.97,.9,1.86,1.88,2.81,2.79,1.16,1.11,2.26,2.3,3.43,3.41,.92,.88,1.81,1.81,2.72,2.71,1.18,1.16,2.32,2.35,3.52,3.49,1.06,1.01,2.06,2.1,3.13,3.11,1.09,1.03,2.1,2.15,3.19,3.17,1.14,1.06,2.18,2.23,3.33,3.29-.18,.35-.59,.37-.84,.62-.03,.03-.06,.05-.09,.08h-.06c-.07,.05-.15,.1-.23,.15h0c-1.04,.58-2.08,1.16-3.12,1.76-2.05,1.19-4.1,2.38-6.14,3.58-2.48,1.45-4.94,2.91-7.41,4.37-2.59,1.53-5.15,3.11-7.69,4.71-2.73,1.72-5.37,3.56-7.91,5.57-1.32,1.05-2.57,2.18-3.82,3.31-.12-.26-.24-.51-.36-.76,1.6-.3,2.22-1.69,1.6-3.11,.24-.02,.49,0,.72-.05,1-.2,1.63-1.05,1.58-2.1,0-.11-.11-.29,.13-.27,.82,.07,1.4-.34,1.9-.94,.48-.21,.88-.56,1.31-.85,4.73-3.1,9.45-6.22,14.17-9.34,2.23-1.47,4.46-2.94,6.68-4.42,.46-.31,.45-.31,.09-.69-1.73-1.82-3.47-3.65-5.2-5.47-2.11-2.23-4.22-4.45-6.33-6.68s-4.22-4.45-6.33-6.68c-.36-.37-.71-.75-1.05-1.13-.13-.15-.24-.18-.42-.07-4.71,2.8-9.44,5.58-14.11,8.47-.7,.44-1.42,.84-2.09,1.34-.69,.09-1.19,.49-1.59,1.03-.43,.19-.8,.47-1.16,.76-.87,.09-1.4,.63-1.77,1.39-.66,.47-1.27,.98-1.8,1.59-.16,.15-.32,.29-.48,.44-.02,.03-.05,.05-.07,.08-.03,.04-.07,.08-.11,.12-.53,.34-.92,.84-1.34,1.29-.9,.96-1.77,1.95-2.59,2.99q-.46,.58-.09,1.24c.4,.71,.75,1.46,1.22,2.13-.02,.2-.06,.41-.06,.61-.04,.79,.28,1.39,.93,1.82,.07,.04,.17,.05,.21,.18-.86,.02-1.43,.48-1.82,1.21-.11-.21-.22-.41-.33-.61-.74-1.42-1.48-2.84-2.21-4.27-.14-.28-.35-.54-.36-.88v.05Z" fill="#ffe5be"/>
      <path d="M21.68,93.94c-.04-.21-.23-.17-.36-.21-7.14-2.42-14.29-4.83-21.43-7.24-.29-.1-.37-.25-.39-.55-.07-1.07-.16-2.14-.25-3.21-.17-2.03-.34-4.05-.51-6.07-.16-2.01-.31-4.02-.48-6.03-.19-2.32-.39-4.64-.58-6.96-.2-2.43-.39-4.87-.6-7.3-.02-.31,.02-.56,.25-.8,.35-.36,.65-.77,.97-1.15,.05-.07,.09-.22,.22-.09-.18,.4,.02,.8,.03,1.2,.02,.62,.12,1.23,.19,1.84,.1,.93,.2,1.87,.29,2.8,.09,.87,.16,1.74,.25,2.61,.09,.86,.19,1.71,.28,2.57,.09,.84,.16,1.69,.25,2.53,.1,.92,.2,1.84,.29,2.76,.09,.84,.16,1.69,.25,2.53,.09,.92,.2,1.84,.29,2.76,.09,.83,.16,1.66,.25,2.49,.09,.91,.2,1.81,.29,2.72,.09,.87,.18,1.74,.24,2.61,.02,.39,.13,.61,.54,.74,3.1,1,6.18,2.02,9.27,3.03,2.65,.87,5.31,1.74,7.96,2.61,2.74,.9,5.48,1.79,8.22,2.68l5.61,1.83c2.74,.9,5.47,1.79,8.21,2.68,2.02,.66,4.03,1.32,6.04,1.98,2.89,.94,5.79,1.89,8.68,2.83,1.67,.54,3.33,1.07,5,1.61,.06,.93,.43,1.64,1.35,1.96-.76,.6-.99,1.4-.81,2.34-6.41,4.84-12.81,9.67-19.22,14.51-2.61,1.98-5.23,3.95-7.85,5.92-2.64,2-5.29,3.99-7.94,5.99-2.64,1.98-5.28,3.97-7.92,5.96-2.15,1.62-4.31,3.24-6.45,4.87-.25,.19-.42,.22-.67,0-.6-.51-1.23-.98-1.84-1.47,.01-.17,.13-.24,.25-.32,.6-.44,1.19-.88,1.78-1.32,2.39-1.8,4.77-3.6,7.16-5.4,2.74-2.05,5.49-4.1,8.23-6.15,2.21-1.65,4.41-3.32,6.62-4.98,1.99-1.5,3.99-3,5.98-4.5,1.89-1.42,3.78-2.85,5.67-4.27,2.17-1.62,4.34-3.24,6.51-4.87,1.5-1.12,2.99-2.25,4.49-3.37,.93-.7,1.86-1.4,2.84-2.14-.21-.08-.37-.14-.52-.19-2.03-.69-4.07-1.36-6.1-2.05-6.66-2.24-13.29-4.54-19.96-6.75-2.93-.97-5.84-1.99-8.77-2.97-.69-.22-1.34-.56-2.08-.6h-.02Z" fill="#382115"/>
      <path d="M91.61,92.57c-1.09-.1-2.18-.27-3.28-.28-.83-.01-1.67,.04-2.49,.22-1.24,.27-2.35,.83-3.4,1.51-1.29,.84-2.64,1.51-4.31,1.67,.76,.49,1.37,.98,1.99,1.47,.2,.16,.31,.42,.59,.47,.05,.07,.1,.14,.16,.2,1.22,1.12,2.34,2.36,3.47,3.59,1.53,1.66,3.02,3.36,4.73,4.84,1.29,1.12,2.65,2.13,4.33,2.55,4.92,1.23,9.82,2.51,14.73,3.8,.3,.07,.51,.21,.71,.45,1.7,2.06,3.43,4.09,5.14,6.14,.69,.83,1.37,1.66,2.06,2.49-.44,.02-.84-.19-1.24-.32-2.52-.81-5.04-1.65-7.56-2.48-2.75-.9-5.5-1.8-8.25-2.7-2.71-.89-5.43-1.77-8.14-2.66-2.68-.88-5.35-1.76-8.03-2.63-2.71-.88-5.43-1.77-8.14-2.65-.41-.13-.82-.25-1.23-.38-.27-.36-.57-.68-1.06-.91,1.1-.39,1.76-1.08,1.61-2.23-.15-1.13-.67-1.57-1.88-1.8,.32-.26,.63-.51,.79-.88,.32-.71,.29-1.4-.15-2.05-.06-.09-.15-.16-.15-.27,.51-.51,1.11-.89,1.67-1.32,2.31-1.75,4.63-3.49,6.94-5.23,1.77-1.33,3.53-2.66,5.3-3.99,.07-.06,.15-.09,.23-.13,.87,.35,1.75,.69,2.62,1.04,.13,.05,.26,.08,.36,.2,.62,.76,1.25,1.51,1.87,2.27h0Z" fill="#693419"/>
      <path d="M116.05,121.67h0s.05,.06,.07,.09c.05,.14-.06,.24-.11,.34-.47,.92-.96,1.82-1.42,2.74-.14,.28-.25,.32-.54,.22-7.22-2.46-14.45-4.9-21.68-7.34-6.77-2.29-13.54-4.58-20.31-6.87,.38-.2,.79-.33,1.09-.68,.61-.71,.63-1.48,.3-2.31,.41,.13,.82,.25,1.23,.38,2.71,.88,5.43,1.76,8.14,2.65,2.68,.88,5.35,1.76,8.03,2.63,2.71,.89,5.43,1.77,8.14,2.66,2.75,.9,5.5,1.8,8.25,2.7,2.52,.83,5.04,1.67,7.56,2.48,.4,.13,.8,.34,1.24,.32h0Z" fill="#382115"/>
      <path d="M-1.42,54.33c.43,.11,.83,.31,1.24,.47,.11,.9,.24,1.81,.35,2.71,.12,.97,.22,1.94,.33,2.91,.1,.79,.2,1.58,.29,2.37,.14,1.22,.29,2.43,.43,3.64,.11,.97,.22,1.94,.33,2.91,.11,.94,.22,1.89,.33,2.83,.11,.99,.23,1.97,.35,2.95,.15,1.22,.3,2.45,.44,3.67,.11,.95,.21,1.91,.32,2.87,.05,.43,.11,.87,.15,1.3,.02,.17,.12,.22,.24,.26,1.74,.57,3.47,1.14,5.21,1.71,1.3,.43,2.61,.85,3.91,1.28,3.56,1.16,7.12,2.33,10.68,3.49,2.08,.68,4.15,1.36,6.23,2.04,3.39,1.11,6.78,2.21,10.17,3.32,2.57,.84,5.14,1.68,7.71,2.52,3.41,1.11,6.81,2.21,10.22,3.31,1.27,.41,2.58,.6,3.92,.6,.16,0,.33,0,.48-.08,.13,.09,.26,.19,.39,.28-.22,.25-.43,.49-.64,.73-.4,.21-.5,.6-.62,.99-.03,.11-.05,.23-.07,.34-1.67-.54-3.34-1.07-5-1.61-2.89-.94-5.79-1.88-8.68-2.83-2.02-.66-4.03-1.32-6.04-1.98-2.74-.9-5.47-1.79-8.21-2.68l-5.61-1.83c-2.74-.9-5.48-1.79-8.22-2.68-2.65-.87-5.31-1.74-7.96-2.61-3.09-1.02-6.18-2.04-9.27-3.03-.41-.13-.51-.35-.54-.74-.06-.87-.15-1.74-.24-2.61-.09-.91-.2-1.81-.29-2.72-.09-.83-.17-1.66-.25-2.49-.09-.92-.2-1.84-.29-2.76-.09-.84-.16-1.69-.25-2.53-.1-.92-.2-1.84-.29-2.76-.08-.84-.16-1.69-.25-2.53-.09-.86-.19-1.71-.28-2.57-.09-.87-.16-1.74-.25-2.61-.09-.94-.19-1.87-.29-2.8-.06-.61-.17-1.23-.19-1.84-.02-.4-.22-.8-.03-1.2h.04Z" fill="#693419"/>
      <path d="M12.29,78.97c-1.96,.86-3.93,1.72-5.89,2.57-.15,.06-.3,.11-.46,.16-.19-.8-.25-1.63-.37-2.44-.26-1.75-.49-3.5-.73-5.25-.29-2.13-.58-4.27-.88-6.4-.32-2.3-.64-4.6-.96-6.9-.29-2.1-.58-4.19-.87-6.29-.08-.6-.18-1.2-.27-1.8-.03-.25-.04-.49-.09-.73-.04-.19,.01-.3,.2-.38,.34-.13,.67-.3,1.01-.45,1.09-.48,2.16-1.02,3.27-1.45,0,.06-.01,.13,0,.19,.5,2.35,1,4.71,1.49,7.06,.6,2.83,1.19,5.67,1.78,8.5,.68,3.3,1.36,6.6,2.03,9.9,.25,1.24,.49,2.47,.73,3.71h0Zm-1.65-1.55c-1.45-8.6-3.08-17.17-4.92-25.7,1.46,8.6,3.07,17.17,4.92,25.7Zm-3.2,.99c-1.17-8.58-2.52-17.14-4.03-25.68-.04,0-.07,0-.1,0,.41,2.85,.81,5.7,1.25,8.55,.43,2.85,.91,5.7,1.36,8.55,.46,2.86,.94,5.72,1.51,8.57h.01Zm-3.21-26.01c-.2,.55,3.87,24.7,4.28,25.86-1.25-8.64-2.69-17.25-4.28-25.86Zm5.25,25.24c-1.28-8.58-2.78-17.11-4.45-25.62,1.29,8.57,2.77,17.11,4.45,25.62ZM2.63,53.36c-.15,.65,2.75,20.15,3.82,25.66-1.1-8.56-2.37-17.1-3.82-25.66Zm-.1-.45c-.05,.1-.06,.18,0,.27,.05-.08,.04-.16,0-.27Zm6.97,25.03s.04,.06,.06,.08c0-.03,.02-.07,.02-.1,0-.02-.02-.04-.03-.06-.02,.03-.05,.09-.05,.09h0Zm-1.98,.76s-.05,.03-.05,.04c-.01,.04-.02,.09,0,.11,.05,.06,.05-.02,.05-.04,0-.03-.02-.11-.02-.11h.02Zm-1.02,.79s.03-.06,.03-.1-.03-.05-.03-.07c0,.03-.05,.09-.05,.09,.02,.03,.03,.05,.05,.08Zm-.82-28.16s-.02-.04-.03-.06c-.01,.02-.03,.04-.03,.06,0,.02,.03,.06,.03,.06,.01-.02,.03-.04,.03-.06Zm5,26.47s.03-.04,.03-.06c0-.02-.02-.04-.03-.06-.01,.02-.03,.06-.03,.06,.01,.02,.02,.04,.03,.06Z" fill="#ebb67a"/>
      <path d="M62.29,101.7c.3-.09,.58-.27,.92-.29-1.35-.71-1.7-1.58-1.2-2.91,.11-.16,.22-.32,.33-.48,.26-.16,.48-.38,.78-.49-.8-.2-1.35-.65-1.59-1.44-.2-.66-.09-1.27,.35-1.81,.33-.26,.67-.51,1.06-.69,.26-.01,.5-.12,.76-.07,.23,.08,.45,.16,.68,.24,.44,.26,.7,.68,.94,1.12,.14,.41,.03,.82,0,1.24-.26,.44-.52,.87-.95,1.17-.17,.11-.13,.2,.06,.28,.8,.33,1.22,.95,1.28,1.83-.01,.35-.09,.69-.24,1.01-.21,.37-.51,.64-.87,.85-.23,.06-.46,.12-.7,.18,.13,.07,.25,.13,.39,.13,.51,.39,.92,.82,1.02,1.51,.11,.77-.2,1.54-.84,1.97-.06,.04-.12,.06-.17,.1-.35,.23-.35,.28,.02,.48,.85,.45,1.25,1.6,.88,2.49-.04,.11-.09,.23-.14,.35-.37,.47-.8,.82-1.49,.89,1.18,.57,1.59,1.46,1.26,2.74,1.04-.63,1.97-.55,2.83,.37,0-.2,0-.36,.03-.51,.13-1.07,.79-1.67,2.02-1.83,.16,.13,.33-.09,.5,.05-.46-.65-.62-1.33-.34-2.09,.13-.33,.36-.58,.59-.84,.03-.02,.06-.05,.09-.07,.26-.11,.53-.23,.83-.36-.73-.34-1.19-.91-1.26-1.72-.07-.83,.3-1.46,1.02-1.94-.91-.1-1.54-.53-1.83-1.38-.31-.91,0-1.67,.74-2.31-.98-.02-1.71-.38-2.07-1.29-.33-.85-.09-1.59,.57-2.3-.94,.17-1.7-.03-2.23-.8-.4-.58-.43-1.23-.21-1.89,.02-.05,.04-.1,.06-.15,.16-.22,.28-.48,.52-.63,.3-.3,.7-.36,1.07-.48,.05,0,.1,.02,.15,.02,.12,.11,.26,.06,.4,.06,.35,0,.62,.21,.9,.39,.05,.05,.1,.1,.15,.15,.76,1.04,.73,1.92-.13,2.92,.13,.11,.23-.03,.34-.03,.43-.02,.83,.1,1.22,.25,.18,.15,.36,.31,.54,.46,.19,.31,.35,.64,.45,1,.04,.79-.22,1.46-.95,2.03,.76-.11,1.29,.18,1.8,.55,0,.12,.09,.19,.15,.27,.44,.66,.47,1.34,.15,2.05-.16,.37-.47,.62-.79,.88,1.2,.22,1.73,.67,1.88,1.8,.16,1.15-.5,1.83-1.61,2.23,.49,.23,.8,.55,1.06,.91,.32,.83,.3,1.6-.3,2.31-.3,.35-.71,.48-1.09,.68-.28-.02-.57-.05-.86-.07-.03,0-.09-.03-.09-.02-.03,.04,0,.05,.04,.07,.31,.49,.54,1,.44,1.6-.16,.95-.78,1.46-1.67,1.77,.51,.13,.89,.4,.91,.88,.02,.43,.1,.76,.43,1.03,.03,.03,.04,.07,.06,.1,.77,1.24,1.54,2.49,2.32,3.73,.25,.41,.35,.82,.24,1.29-.02,.08-.08,.16,.05,.22,.57,.25,.66,.7,.51,1.25-.28,.4-.63,.67-1.14,.62h-.06c-.11-.05-.21-.11-.32-.16-.24-.19-.38-.42-.37-.73,0-.17-.06-.21-.21-.24-.45-.08-.76-.37-1-.76-.75-1.23-1.52-2.45-2.27-3.68-.1-.16-.21-.34-.24-.52-.04-.19-.12-.24-.28-.3-.63-.23-.89-.82-.67-1.47,.1-.31,.27-.58,.54-.77l.08,.08c-.03,.06-.05,.12-.09,.17-.14,.19-.24,.4-.09,.6,.17,.23,.42,.19,.66,.09,.24-.1,.45-.22,.61-.44,.12-.17,.17-.35,.09-.54-.09-.2-.28-.19-.46-.19h-.27s-.02-.09-.02-.13c.22-.1,.45-.12,.61-.15-.18-.05-.43-.12-.68-.19-.07-.02-.13-.05-.2-.07-.2-.17-.4-.34-.64-.55-.02,.27,.03,.53-.06,.76-.02,.07-.05,.14-.07,.21-.3,.97-1.27,1.53-2.25,1.3-1.17-.27-1.65-1.17-1.45-2.71-1.43,.67-2.59,.31-3.06-.92-.35-.92,.03-2.37,1.67-2.71-.68-.22-1.04-.7-1.33-1.26-.19-.94,.04-1.74,.81-2.34,.24-.1,.47-.25,.79-.27-.1-.05-.15-.09-.21-.11-1.22-.41-1.74-1.53-1.28-2.75,.02-.05,.03-.1,.04-.15,.22-.25,.43-.49,.64-.73h.01Zm8.28,14.95c-.37,0-.57,.32-.4,.66,.19,.37,.43,.73,.65,1.09,.54,.88,1.09,1.77,1.64,2.65,.15,.24,.36,.34,.61,.2,.26-.14,.32-.4,.16-.66-.76-1.24-1.53-2.47-2.29-3.7-.1-.16-.24-.23-.38-.24h0Zm-7.16-13.36c.51-.02,.88-.36,.88-.82,0-.43-.44-.82-.93-.81-.52,.02-.91,.38-.9,.85,.02,.45,.44,.79,.96,.78h-.01Zm5.31,7.98c.01,.45,.43,.82,.94,.8,.5-.02,.89-.36,.89-.81,0-.47-.41-.82-.96-.82-.48,0-.87,.38-.87,.83Zm3.36-6.43c.5,0,.91-.36,.91-.79,0-.49-.4-.84-.95-.84-.49,0-.88,.35-.88,.81,0,.46,.41,.82,.92,.82Zm-.36,3.88c.51-.01,.9-.36,.89-.8s-.45-.82-.93-.82c-.52,0-.91,.38-.9,.84,.02,.45,.43,.79,.95,.79h-.01Zm-.52-7.69c.48-.02,.88-.38,.88-.79,0-.44-.44-.84-.92-.84-.52,0-.92,.37-.91,.84,0,.45,.43,.8,.95,.79Zm-8.18,10.19c.48-.01,.89-.37,.89-.78,0-.43-.5-.86-.97-.85-.49,0-.87,.39-.86,.84,.02,.46,.41,.79,.95,.78h0Zm1.66-12.69c0-.4-.52-.83-.97-.82-.5,0-.87,.38-.87,.84,0,.46,.4,.79,.94,.79,.5,0,.9-.37,.9-.81Zm1.34,13.46c-.48,.01-.88,.37-.88,.78,0,.43,.5,.87,.97,.85,.49,0,.87-.39,.86-.84s-.43-.79-.95-.78h0Zm4.69-15.44c0-.47-.39-.8-.93-.8s-.91,.3-.91,.76c0,.47,.39,.8,.93,.8s.91-.3,.91-.76Zm-7.32-1.18c.56,0,.9-.27,.9-.74,0-.49-.38-.82-.95-.82-.48,0-.88,.34-.88,.76-.01,.45,.4,.8,.93,.8h0Zm4.47-3.12c-.38-.03-.65,.16-.82,.5-.15,.3-.04,.57,.16,.78,.29,.31,.67,.36,1.06,.24,.44-.13,.61-.44,.54-.89-.06-.39-.41-.62-.94-.62h0Zm-3.57,14.26c.01-.48-.38-.82-.95-.82-.48,0-.88,.35-.88,.77,0,.45,.41,.79,.94,.79,.53,0,.89-.3,.89-.74Z" fill="#a95426"/>
      <path d="M62.01,98.49c-.66,.56-.79,1.27-.62,2.08-1.58,.07-3.09-.28-4.58-.77-3.21-1.06-6.42-2.09-9.63-3.14-2.59-.84-5.17-1.69-7.75-2.53-3.37-1.1-6.73-2.19-10.1-3.29-2.65-.87-5.31-1.74-7.96-2.61-2.82-.92-5.63-1.83-8.44-2.75-2.74-.89-5.47-1.82-8.22-2.67-.69-.22-.96-.5-1.02-1.24-.13-1.57-.38-3.13-.59-4.7-.22-1.67-.45-3.33-.67-5-.16-1.3-.3-2.6-.47-3.9-.17-1.26-.36-2.52-.52-3.78-.16-1.3-.3-2.6-.47-3.9-.17-1.29-.35-2.57-.52-3.86-.16-1.27-.32-2.53-.47-3.79-.02-.16-.05-.32-.14-.47,.04-.23,.17-.11,.28-.08,.57,.17,1.15,.35,1.72,.52,.09,.6,.19,1.2,.27,1.8,.29,2.1,.58,4.19,.87,6.29,.32,2.3,.64,4.6,.96,6.9,.29,2.13,.59,4.27,.88,6.4,.24,1.75,.48,3.5,.73,5.25,.12,.81,.18,1.64,.37,2.44,.1,.17,.28,.16,.43,.21,14.99,4.98,29.97,9.95,44.96,14.92,2.23,.74,4.46,1.47,6.68,2.22,.27,.09,.44,.04,.64-.14,.78-.71,1.61-1.35,2.47-1.95,.31,.48,.66,.9,1.23,1.06-.11,.16-.22,.32-.33,.48h.01Z" fill="#5f7233"/>
      <path d="M71.77,97.15c.55-.26,.98-.68,1.45-1.04,2.58-1.95,5.15-3.91,7.72-5.87,2.52-1.93,5.03-3.87,7.55-5.78,2.16-1.64,4.34-3.25,6.51-4.88,1.89-1.42,3.78-2.85,5.67-4.27,2.18-1.64,4.36-3.26,6.54-4.9,2-1.5,4-3.02,6-4.53,.28-.21,.6-.38,.84-.65,.47,.62,.93,1.26,1.41,1.87,.15,.19,.04,.25-.09,.35-6.55,4.95-13.1,9.9-19.66,14.84-2.99,2.25-5.99,4.49-8.96,6.77-.07,.05-.16,.08-.23,.13-1.77,1.33-3.53,2.66-5.3,3.99-2.32,1.74-4.63,3.48-6.94,5.23-.57,.43-1.17,.81-1.67,1.32-.51-.37-1.04-.66-1.8-.55,.73-.57,.99-1.23,.95-2.03h.01Z" fill="#382115"/>
      <path d="M71.75,97.15c-.1-.35-.26-.68-.45-1,1.59-1.23,3.17-2.47,4.76-3.71,1.46-1.15,2.93-2.29,4.39-3.44,1.98-1.55,3.95-3.1,5.92-4.65,1.35-1.06,2.71-2.12,4.06-3.18,1.88-1.48,3.76-2.96,5.64-4.44,1.7-1.34,3.42-2.66,5.12-4,1.94-1.53,3.88-3.06,5.82-4.59,1.44-1.12,2.86-2.26,4.31-3.36,.46-.35,.37-.75,.3-1.19-.38-.56-.94-.93-1.4-1.41-.49-.5-1.03-.95-1.54-1.44-1.04-.99-2.06-1.99-3.1-2.98-2.04-1.96-4.09-3.91-6.14-5.86-1.02-.98-2.06-1.95-3.09-2.93-2-1.9-4-3.81-6-5.72-.16-.15-.34-.28-.43-.49,.19-.27,.33-.14,.51,.03l19.08,18.12c1.51,1.43,3.02,2.88,4.53,4.32-.24,.27-.56,.44-.84,.65-2,1.51-4,3.02-6,4.53-2.18,1.64-4.36,3.27-6.54,4.9-1.89,1.42-3.78,2.85-5.67,4.27-2.17,1.63-4.35,3.24-6.51,4.88-2.52,1.92-5.03,3.86-7.55,5.78-2.57,1.96-5.14,3.92-7.72,5.87-.48,.36-.91,.78-1.45,1.04h-.01Z" fill="#4b2716"/>
      <path d="M111.62,63.59c-.57,.56-1.22,1-1.84,1.49-1.88,1.5-3.78,2.99-5.67,4.47-1.95,1.53-3.9,3.04-5.84,4.57-2.42,1.91-4.84,3.82-7.26,5.73-1.69,1.33-3.4,2.64-5.09,3.97-2.29,1.8-4.58,3.61-6.87,5.41-1.7,1.33-3.41,2.66-5.12,3.99-1.05,.83-2.11,1.65-3.16,2.47-.39-.15-.79-.28-1.22-.25,1.6-1.26,3.2-2.54,4.81-3.8,7.98-6.28,15.96-12.55,23.94-18.82,3.93-3.09,7.86-6.18,11.79-9.27,.08-.07,.25-.08,.2-.26-1.31-1.24-2.62-2.48-3.93-3.72-2.13-2-4.26-3.99-6.39-5.99-4.81-4.51-9.62-9.02-14.43-13.54-.22-.21-.47-.4-.64-.66,.16-.12,.34-.23,.49-.37,.21-.19,.35-.17,.56,.03,1.2,1.16,2.41,2.3,3.62,3.45,.11,.1,.2,.24,.36,.27,.09,.22,.27,.34,.43,.49,2,1.91,4,3.81,6,5.72,1.03,.98,2.06,1.95,3.09,2.93,2.05,1.95,4.1,3.91,6.14,5.86,1.04,.99,2.06,1.99,3.1,2.98,.51,.48,1.06,.93,1.54,1.44,.46,.48,1.03,.85,1.4,1.41h-.01Z" fill="#5f7233"/>
      <path d="M61.36,100.57c.11,.32,.29,.59,.5,.85-.15,.08-.31,.08-.48,.08-1.33-.01-2.64-.19-3.92-.6-3.41-1.1-6.82-2.2-10.22-3.31-2.57-.84-5.14-1.68-7.71-2.52-3.39-1.11-6.78-2.21-10.17-3.32-2.08-.68-4.15-1.36-6.23-2.04-3.56-1.16-7.12-2.33-10.68-3.49-1.3-.43-2.61-.85-3.91-1.28-1.74-.57-3.47-1.14-5.21-1.71-.12-.04-.22-.09-.24-.26-.04-.43-.1-.87-.15-1.3-.1-.95-.21-1.91-.32-2.87-.14-1.22-.29-2.45-.44-3.67-.11-.99-.23-1.97-.35-2.95-.11-.94-.22-1.89-.33-2.83-.11-.97-.22-1.94-.33-2.91-.14-1.22-.28-2.43-.43-3.64-.1-.79-.2-1.58-.29-2.37-.11-.97-.21-1.94-.33-2.91-.11-.91-.23-1.81-.35-2.71-.02-.26-.05-.51-.07-.77-.05-.63-.26-1.28,.14-1.87,.09,.14,.12,.3,.14,.47,.15,1.27,.31,2.53,.47,3.79,.17,1.29,.36,2.57,.52,3.86,.16,1.3,.3,2.6,.47,3.9,.17,1.26,.36,2.52,.52,3.78,.16,1.3,.3,2.6,.47,3.9,.21,1.67,.45,3.33,.67,5,.21,1.56,.46,3.13,.59,4.7,.07,.74,.33,1.03,1.02,1.24,2.75,.85,5.48,1.77,8.22,2.67,2.82,.92,5.63,1.83,8.44,2.75,2.65,.87,5.31,1.74,7.96,2.61,3.37,1.1,6.73,2.19,10.1,3.29,2.59,.84,5.17,1.69,7.75,2.53,3.21,1.05,6.42,2.08,9.63,3.14,1.49,.49,3,.84,4.58,.77h-.03Z" fill="#455325"/>
      <path d="M73.23,123.31c0,.12-.06,.25,.03,.37,.1-.12,.04-.25,.04-.37,.52,.05,.87-.21,1.14-.62,.77,1.04,1.24,2.24,1.68,3.45,1.52,4.21,2.3,8.6,2.87,13.04,0,.06,0,.1-.08,.12-.16-.08-.08-.25-.12-.37-.07-.99-.25-1.96-.4-2.94-.05-.29-.1-.58-.21-.86,.06,.42,.11,.83,.16,1.25,.1,.79,.21,1.58,.31,2.37,.01,.06,.05,.12,.07,.18-.06,.12,.13,.34-.14,.38-.08-.56-.15-1.11-.23-1.66,0-.09,.02-.21-.09-.27v-.45c-.08,.15-.11,.3,0,.45-.03,.65,.19,1.29,.15,1.94h-.14c-.01-.13-.02-.25-.02-.38-.14-1.54-.38-3.07-.63-4.59-.09-.54-.2-1.09-.3-1.63-.42-2.2-.88-4.39-1.65-6.5-.18-.5-.38-1.01-.64-1.48-.04-.06-.07-.13-.11-.19-.02-.05,0-.15-.08-.11-.06,.03,0,.11,.02,.16,.03,.07,.06,.15,.09,.22,.4,1.21,.85,2.4,1.2,3.62,.4,1.41,.74,2.84,1.04,4.28,.25,1.45,.51,2.89,.71,4.35,.08,.62,.11,1.26,.26,1.87,.02,.14,.03,.28,.05,.42-.06,.11,.09,.26-.07,.37-.17-.14-.04-.39-.17-.54-.07,.08-.03,.16-.03,.23,0,.16,.07,.36-.15,.42-.25,.08-.05-.28-.25-.28-.09,.1,.09,.29-.12,.37-.27-.42-.16-.95-.4-1.47-.05,.49,.15,.88,.07,1.27-.04,0-.07,0-.11,0-.12-.8-.25-1.6-.37-2.4-.03-.15,0-.3-.12-.47-.07,.21,0,.37,.02,.54,.06,.86,.27,1.71,.27,2.57-.04,0-.07,0-.11,0-.14-1.05-.28-2.11-.43-3.2-.13,.11-.08,.19-.08,.26,.1,.84,.21,1.69,.29,2.54,0,.13,.17,.34-.1,.41-.56-4.84-1.25-9.66-1.98-14.48-.04-.25-.02-.51-.18-.73l-.02-.02h.02c0,.68,.16,1.34,.25,2,.31,2.27,.64,4.55,.96,6.82,.23,1.65,.44,3.29,.66,4.94,.07,.49,.11,.97,.16,1.46-.23,.07-.3-.06-.34-.27-.13-.74-.28-1.49-.42-2.23-.02-.11-.03-.23-.05-.34-.07-.48-.15-.95-.22-1.43-.04,.49,.01,.96,.13,1.43,.02,.14,.04,.28,.06,.42,.1,.72,.21,1.44,.31,2.17,0,.1,.14,.27-.11,.27-.32-1.96-.59-3.93-.83-5.9-.22-1.82-.41-3.64-.61-5.46-.03-.23,.07-.47-.1-.67,.01-.23,.04-.47-.04-.81,0,.34-.07,.58,.05,.81,.02,1.34,.2,2.68,.35,4.01,.12,1.11,.24,2.21,.39,3.31,.2,1.46,.41,2.91,.62,4.37,.02,.12,.02,.23,.02,.35-.26,.09-.37,.04-.41-.28-.12-.89-.28-1.77-.43-2.66-.08-.62-.16-1.24-.24-1.86-.04,.62,.04,1.24,.14,1.85,.11,.98,.23,1.95,.34,2.93,.03,.33-.09,.42-.39,.27-.11-.05-.18-.09-.22,.05-.05,.17-.2,.12-.28,.12-.14,0-.1-.16-.11-.25-.15-1.34-.3-2.67-.45-4.01,0-.1,.03-.21-.09-.28-.11,.12-.04,.25-.03,.37,.11,1.27,.22,2.53,.33,3.79,0,.08,.02,.23-.02,.25-.14,.08-.11-.07-.14-.14-.02-.07-.05-.02-.07,0-.35,.26-.38,.24-.43-.21-.3-3-.51-6-.52-9.02,0-2.6,.08-5.2,.5-7.77,.11,.05,.21,.11,.32,.16v-.02Zm3.78,14.67c-.02-.12-.03-.23-.05-.35-.14-1.02-.25-2.04-.53-3.03,.02-.16,.06-.33-.07-.47,0-.16,.06-.33-.08-.46v-.39c-.09,.17-.1,.29,0,.39,.03,.15-.07,.33,.08,.46,.01,.16-.08,.33,.07,.47,0,.86,.24,1.7,.33,2.55,.02,.16,.07,.32,.1,.48l.06,.42c.03,.14,.05,.28,.08,.52,.13-.27,.03-.43,0-.6h0Zm.34-3.45v-.38c-.08,.13-.09,.26,0,.38,.01,.13-.03,.27,.05,.43,.03-.17,.08-.31-.06-.43h0Zm-.54-.62v-.38c-.09,.17-.1,.28,0,.38,.03,.16-.06,.33,.08,.47,.1,1.09,.26,2.18,.44,3.26,0,.15,0,.3,.03,.54,.13-.24,.05-.39,.05-.54-.13-1.09-.23-2.19-.53-3.26,0-.16,.06-.33-.08-.47h0Zm-1.38-3.91c0,.16-.08,.33,.07,.47-.03,.59,.14,1.15,.22,1.72,.2,1.43,.43,2.85,.65,4.27,.02,.13,.04,.26,.07,.46,.14-.2,.05-.33,.05-.46-.21-1.4-.41-2.8-.64-4.19-.09-.6-.12-1.21-.34-1.79,0-.16,.06-.33-.07-.47v-.4c-.09,.14-.14,.28,0,.4h-.01Zm.84-2.7c0-.05-.02-.09-.02-.14-.02,0-.05,.02-.05,.02-.02,.06-.02,.11,.07,.11-.02,.11-.04,.22,.1,.35-.02-.15,0-.27-.1-.35h0Zm.68,9.15v.38c.06-.12,.1-.25,0-.37,0-.22,.06-.46-.18-.74,.11,.31,.04,.55,.19,.74h-.01Zm.91,1.48c-.08-.83-.15-1.67-.38-2.48v-.45c-.09,.23-.1,.34,0,.45,.05,.83,.16,1.66,.31,2.48,.01,.1-.02,.21,.05,.3,.08-.09,.02-.19,.02-.29h0Zm-4.58-2.79c0-.88-.19-1.74-.19-2.61,0,.87,0,1.73,.1,2.6,.02,.23-.03,.47,.09,.75,.1-.29,0-.52,0-.75h0Zm2.2-3.26c0-.14,.03-.28-.03-.45-.04,.17-.07,.31,.04,.44,.03,.94,.23,1.86,.34,2.79,.04,.37,.11,.73,.17,1.1,.02,.13,.03,.26,.05,.46,.14-.2,.05-.33,.05-.46-.14-.95-.26-1.9-.41-2.85-.05-.34-.02-.71-.2-1.03h0Zm-.84,8.14c-.13-1.16-.27-2.32-.4-3.48-.02-.22-.05-.43-.07-.65-.03-.3-.05-.6-.08-.9,0,.3-.12,.61,.05,.9,0,1.4,.21,2.77,.45,4.13,.01,.07,.02,.15,.02,.23,.08-.08,.04-.15,.04-.22h0Zm-1.5-9.73c-.02,1.04,.09,2.07,.15,3.1,.05,.9,.14,1.8,.22,2.7,.01,.07-.02,.16,.07,.22,.19-.21,.02-.44,0-.64-.13-1.71-.26-3.43-.31-5.15,0-.07-.03-.15-.05-.22v-3.64c-.12,1.21-.13,2.43-.08,3.64h0Zm3.29,.94c.15,.74,.31,1.48,.46,2.22,0-.76-.16-1.49-.33-2.22-.43-2.05-.94-4.08-1.73-6.03,.41,2.04,1.18,3.98,1.6,6.02h0Zm-3.39,4.19c-.21-2.8-.16-5.61-.11-8.41v-.19c.1-.39,.06-.79,0-1.19-.03,.39-.05,.79-.08,1.18-.18,2.8-.15,5.59,.04,8.38,.07,1.07,.16,2.14,.25,3.21,0,.1-.01,.21,.06,.3,0,.15,.02,.3,.03,.53,.11-.24,.05-.39,.05-.54-.07-1.09-.15-2.18-.23-3.27Zm1.38-6.87c-.16,.59,.93,8.11,1.38,9.47-.35-3.17-.88-6.32-1.38-9.47Zm-.5,.53c-.12,2.52,.43,4.97,.79,7.44-.24-2.48-.57-4.95-.79-7.44Zm2.94,6.46c-.22-1.59-.5-3.17-.93-4.72,.28,1.58,.55,3.15,.83,4.73,.03,0,.1,0,.1,0h0Zm-2.08,.97c-.13,.25,.17,2.43,.5,3.39-.17-1.12-.33-2.23-.5-3.39Zm-1.14-12.5c-.22,.95-.16,1.92-.09,2.87,.03-.96,.16-1.91,.09-2.87Zm.13,9.46c.1-.92-.11-1.84-.06-2.77-.13,.92,.04,1.85,.06,2.77Zm.12,5.7c-.07-.76-.14-1.53-.21-2.3-.03,0-.07,0-.1,0,.08,.77,.17,1.53,.25,2.3h.07s0,0,0,0Zm-.38-9.73v-1.45c-.11,.48-.07,.96,0,1.45Zm-.51-3.94c.08-.25,.06-.44,.02-.69-.06,.25-.06,.44-.02,.69Zm-.04,12.96v-.52c-.06,.17-.06,.35,0,.52Zm.06,.82c.07-.21,.05-.39,0-.56-.04,.19-.07,.37,0,.56Zm4.52,.28c.11-.28,.03-.48-.03-.78-.07,.31-.03,.51,.03,.78Zm-1.39-3.4c-.1,.27-.05,.44,.04,.68,.08-.25,.01-.42-.04-.68Zm1.34,2.62c.04-.25,.02-.42-.07-.67-.04,.26-.03,.43,.07,.67Zm.41,.34c.12-.28,.04-.44,.02-.61-.09,.17-.02,.33-.02,.61Zm-4.79-14.42c.05-.13,.05-.25,0-.39-.05,.14-.05,.26,0,.39Zm.21,14.71c-.07,.17-.03,.3,.02,.54,.05-.25,.05-.38-.02-.54Zm-.14-15.25c.07-.12,.06-.22,0-.36-.06,.14-.06,.23,0,.36Zm3.82,9.45c-.07,.12-.06,.22,0,.33,.07-.12,.06-.22,0-.33Zm-1.07-2.93c.07-.07,.04-.15,0-.25-.05,.1-.04,.17,0,.25Zm.02-4.16s.05,.04,.07,.06c0-.03,.03-.06,.03-.09,0-.02-.03-.04-.05-.06-.02,.03-.05,.1-.05,.1h0Zm.16,.15s-.06,.04-.06,.04c0,.04,.02,.07,.03,.1,.02-.02,.05-.03,.05-.04,0-.03-.03-.1-.03-.1h0Zm.05,.23s-.04,.04-.04,.06c0,.03,.03,.06,.04,.09,.02-.02,.05-.06,.05-.06-.02-.03-.03-.06-.05-.09Z" fill="#a13f38"/>
      <path d="M110.31,63.3c-1.05-.3-2.09-.59-3.13-.91-.41-.13-.84-.17-1.21-.42-1.15-1.06-2.19-2.22-3.33-3.29-1.09-1.03-2.1-2.14-3.19-3.17-1.07-1.01-2.06-2.09-3.13-3.11-1.2-1.14-2.34-2.33-3.52-3.49-.91-.9-1.79-1.83-2.72-2.71-1.16-1.11-2.26-2.3-3.43-3.41-.96-.91-1.84-1.89-2.81-2.79-.61-.57-1.16-1.19-1.74-1.79,.38,0,.75,.02,1.13,0,.29-.02,.5,.09,.7,.29,.31,.31,.6,.65,.98,.89,.17,.26,.42,.45,.64,.66,4.81,4.51,9.62,9.03,14.43,13.54,2.13,2,4.26,3.99,6.39,5.99,1.31,1.23,2.62,2.48,3.93,3.72h.01Z" fill="#ebb67a"/>
      <path d="M24.07,107.4c-1.55,.55-3.16,.54-4.75,.44-1.93-.12-3.74,.24-5.47,1.08-1.41,.68-2.69,1.56-3.82,2.66-.11,.1-.18,.18-.34,.05-.55-.46-1.12-.91-1.69-1.37,.13-.14,.24-.3,.39-.42,1.33-1.08,2.76-2,4.32-2.71,.81-.37,1.65-.68,2.51-.89,1.61-.39,3.25-.47,4.9-.47,1.33,0,2.66-.01,3.97-.3,.24-.06,.57-.29,.73-.08,.16,.22-.13,.5-.23,.74-.18,.42-.21,.91-.51,1.28h-.01Z" fill="#382115"/>
      <path d="M91.6,92.58c.07,.12-.03,.22-.07,.32-.27,.65-.56,1.3-.83,1.95-.1,.24-.18,.29-.43,.18-1.81-.76-3.57-.74-5.28,.31-.55,.34-1.1,.69-1.66,1.02-.84,.5-1.68,.99-2.63,1.27-.28-.05-.39-.31-.59-.47-.62-.49-1.22-.98-1.99-1.47,1.67-.16,3.02-.83,4.31-1.67,1.06-.68,2.16-1.24,3.4-1.51,.83-.18,1.66-.23,2.49-.22,1.09,.01,2.19,.18,3.28,.28h0Z" fill="#382115"/>
      <path d="M68.87,114c0,.12-.05,.25,.07,.34,.01,.04,.02,.09,.02,.13-.05,.19,.2,.45,.02,.56-.17,.11-.26-.26-.48-.26l-.08-.08c-.13-.17-.3-.28-.51-.34,.02-.07,.05-.14,.07-.21,.14,.09,.27,.18,.41,.27,.08,.05,.14,.17,.26,.1,.13-.08,.06-.2,.06-.31s-.02-.17-.03-.26c.07,.02,.13,.05,.2,.07h-.01Z" fill="#693419"/>
      <path d="M21.11,94.42c0,.22-.14,.26-.31,.24,.09-.1,.14-.25,.31-.24Z" fill="#382115"/>
      <path d="M21.42,94.18c0,.22-.13,.26-.31,.24,.1-.09,.14-.26,.31-.24Z" fill="#382115"/>
      <path d="M21.71,93.94c.03,.24-.12,.26-.3,.25,.09-.09,.15-.23,.3-.25Z" fill="#382115"/>
      <path d="M20.19,95.11c0,.17-.11,.17-.23,.17,.05-.1,.1-.19,.23-.17Z" fill="#382115"/>
      <path d="M19.89,95.34c0,.17-.11,.17-.23,.17,.05-.1,.1-.19,.23-.17Z" fill="#382115"/>
      <path d="M19.58,95.58c0,.17-.11,.17-.23,.17,.05-.1,.1-.18,.23-.17Z" fill="#382115"/>
      <path d="M19.28,95.81c0,.17-.11,.17-.23,.17,.05-.1,.11-.18,.23-.17Z" fill="#382115"/>
      <path d="M20.5,94.88c0,.17-.11,.17-.23,.17,.05-.09,.1-.19,.23-.17Z" fill="#382115"/>
      <path d="M20.8,94.65c0,.16-.11,.16-.23,.16,.05-.08,.1-.18,.23-.16Z" fill="#382115"/>
      <path d="M116.11,121.77s-.07-.09-.07-.09c.05,0,.07,.04,.07,.09Z" fill="#693419"/>
      <path d="M5.94,81.69c.15-.05,.31-.09,.46-.16,1.96-.86,3.93-1.71,5.89-2.57,.4,.15,.8,.3,1.2,.45,.07,.14,.2,.09,.31,.09h0c.42,.32,.95,.35,1.43,.46,2.41,.55,4.86,.9,7.3,1.32,2.39,.41,4.77,.86,7.15,1.32,2.74,.53,5.47,1.11,8.18,1.8,2.16,.55,4.3,1.17,6.42,1.86,2.38,.77,4.73,1.63,7.03,2.61,2.59,1.1,5.13,2.3,7.55,3.75,.03,.03,.07,.03,.11,.03-.08,.85,.27,1.5,.91,2.01-.3,.01-.5-.21-.75-.34-2.53-1.3-5.07-2.55-7.65-3.75-2.01-.94-4.03-1.84-6.08-2.66-1.55-.62-3.16-1.1-4.77-1.55-2.92-.81-5.89-1.46-8.86-2.07-2.81-.58-5.63-1.11-8.44-1.66-3.27-.64-6.56-1.2-9.8-2-.11-.03-.23-.03-.34-.03l-.08-.06s-.02,.03-.02,.03c.03,.01,.07,.03,.1,.03,.82,.37,1.7,.55,2.57,.77,3.56,.92,7.17,1.65,10.76,2.43,3.34,.72,6.68,1.4,10,2.21,2.61,.63,5.22,1.24,7.76,2.13,1.94,.68,3.82,1.51,5.72,2.31,2.43,1.01,4.83,2.1,7.22,3.2,1.04,.48,2.08,.95,3.17,1.45-.05-.12-.09-.2-.13-.28,.37,.09,.74,.09,1.18,.01-.54,.68-.57,1.38-.33,2.12-.87,.6-1.69,1.24-2.47,1.95-.2,.19-.37,.23-.64,.14-2.23-.75-4.45-1.48-6.68-2.22-14.99-4.97-29.97-9.94-44.96-14.92-.15-.05-.33-.04-.43-.21h0Zm50.37,12.87c-1.04-.43-2.07-.87-3.12-1.29-2.66-1.07-5.33-2.06-8.04-2.98-1.97-.67-3.95-1.31-5.96-1.84-3.61-.95-7.23-1.87-10.84-2.82-3.08-.81-6.14-1.64-9.21-2.48-1.48-.4-2.95-.84-4.42-1.26-.08-.02-.16-.07-.31,.02,.58,.19,1.11,.38,1.65,.54,2.11,.62,4.23,1.24,6.35,1.84,2.22,.63,4.44,1.24,6.67,1.83,3.83,1.02,7.67,1.99,11.49,3.05,2.21,.62,4.39,1.35,6.56,2.1,3.05,1.05,6.08,2.17,9.07,3.37,.02,.02,.1,0,.1,0l.02-.08h-.01Zm.25,.31c.08-.06,.1-.08,.13-.1-.03-.03-.07-.07-.11-.09-.02-.01-.08,.04-.08,.04,0,.05,.06,.14,.06,.14h0Zm-42.57-13.1s.04-.02,.06-.03c-.02-.01-.04-.03-.06-.03s-.06,.03-.06,.03c.02,.01,.04,.03,.06,.03Zm42.94,13.08s-.03-.01-.03-.01v.04h.03v-.02s0-.01,0-.01Zm4,.47s0,.03,0,.03c0,.01,.02,0,.03,0,0-.01,0-.03,0-.03,0,0-.03,.01-.03,.01h0Zm-46.65-13.53s-.03-.01-.03-.01v.04h.03s0-.02,0-.02h0Z" fill="#fdc993"/>
      <path d="M61.87,94.29c-.02-.11-.11-.08-.18-.08-1.61,.05-2.41-.76-2.33-2.37,.01-.02,.02-.04,.02-.06,0,0-.03-.02-.03-.02,.2-.3,.28-.68,.57-.95-.9,.29-1.69,.12-2.29-.61-.58-.72-.57-1.52-.15-2.37-.4,.09-.78,.21-1.17,.13-1-.2-1.54-.88-1.65-2.07,0-.1,0-.2,0-.3,.03-.11,.07-.21,.1-.32,.18-.39,.42-.73,.86-1.02-.36,0-.62-.03-.88-.11-.74-.24-1.14-.79-1.36-1.52,.01-.28,.02-.57,.02-.85,.14-.38,.31-.75,.7-1.09-.61,.13-1.12,.15-1.61-.1-.6-.3-.91-.83-1.08-1.46-.05-.51,.08-.99,.31-1.45,.24-.26,.47-.52,.87-.73-.93-.12-1.47-.62-1.79-1.39-.09-.41-.1-.81,0-1.22,.04-.14,.09-.27,.14-.4,.28-.3,.53-.64,1.03-.85-.87-.2-1.35-.7-1.63-1.42-.1-.46-.06-.91,.07-1.36,.39-.73,.96-1.19,1.82-1.21-.04-.12-.14-.13-.21-.18-.64-.43-.97-1.03-.93-1.82,0-.21,.04-.41,.06-.61,.13-.21,.27-.42,.4-.63,.86-.85,1.92-.79,2.6-.3,.67,.49,.95,1.18,.81,1.99-.13,.8-.63,1.33-1.4,1.57-.16,.05-.33,.07-.56,.12,.72,.32,1.04,.91,1.26,1.57-.04,.33-.07,.67-.11,1-.3,.43-.58,.9-1.18,1.13,1.03,.27,1.6,.87,1.68,1.85,.07,.89-.35,1.54-1.16,1.99,.83,.14,1.44,.54,1.72,1.34,.28,.8,.07,1.52-.53,2.2,1.19-.2,2.05,.15,2.49,1.24,.34,.85,.06,1.64-.83,2.44,.28,.02,.54,0,.79,.07,1.06,.28,1.89,1.57,1.18,2.96-.02,.03-.05,.06,0,.09,0,.01,.03-.02,.05-.04,.74-.23,1.43-.19,2.04,.33,.85,.72,.92,1.89,.19,2.87-.02,.03-.09,.05-.05,.1,.03,.04,.09,.01,.12-.03,1.27-.25,2.22,.25,2.52,1.35,.16,.6,.07,1.17-.27,1.7-.04,.06-.22,.15,0,.2-.39,.18-.73,.43-1.06,.69h0Zm-7.49-12.98c-.01,.4,.46,.84,.93,.86,.45,.02,.95-.4,.97-.82,.02-.38-.43-.79-.87-.81-.56-.02-1,.31-1.02,.76h0Zm-1.3-15.83c-.52-.01-.97,.35-.97,.78,0,.42,.49,.85,.98,.85,.42,.01,.91-.44,.91-.82,0-.39-.48-.81-.93-.81h0Zm-.84,3.89c-.51,0-.9,.36-.9,.81,0,.42,.43,.82,.9,.82,.52,.01,.93-.36,.93-.82,0-.46-.42-.82-.93-.81Zm9.12,22.77c.5,0,.9-.36,.9-.79,0-.44-.43-.77-.97-.77s-.87,.29-.87,.79c0,.5,.32,.76,.93,.76h.01Zm-2.24-4.88c-.49,0-.91,.36-.91,.78s.48,.83,.94,.84c.47,.01,.89-.36,.89-.81s-.4-.82-.92-.82h0Zm-1.6-2.09c.01-.48-.37-.86-.87-.86s-.95,.35-.96,.8c-.01,.38,.5,.83,.95,.83,.45,0,.88-.37,.88-.77Zm-3.89-11.12c-.01-.44-.42-.77-.96-.77s-.87,.31-.87,.79c0,.44,.39,.76,.91,.76,.59,0,.92-.28,.92-.78Zm-.21,4.67c.5,0,.9-.36,.9-.79,0-.43-.41-.77-.92-.77-.57,0-.88,.23-.91,.69-.03,.51,.36,.86,.93,.86h0Zm1.26,1.67v-.02s-.03,.02-.03,.02h.03Z" fill="#b86428"/>
      <path d="M59.35,91.84c-.28,.2-.27,.54-.39,.82-.04-.01-.08-.01-.11-.03-2.42-1.45-4.96-2.65-7.55-3.75-2.3-.98-4.65-1.84-7.03-2.61-2.12-.68-4.26-1.31-6.42-1.86-2.71-.69-5.44-1.27-8.18-1.8-2.38-.46-4.76-.91-7.15-1.32-2.44-.42-4.89-.78-7.3-1.32-.48-.11-1.01-.14-1.43-.46,1.24,.22,2.48,.46,3.73,.66,1.5,.24,3.01,.46,4.51,.66,1.14,.15,2.29,.27,3.43,.41,1.19,.14,2.39,.3,3.58,.44,1.25,.14,2.51,.26,3.77,.4,1.79,.2,3.57,.41,5.36,.61,1.63,.18,3.27,.32,4.89,.61,2.75,.49,5.39,1.34,7.91,2.55,1.31,.63,2.56,1.37,3.79,2.15,.55,.51,1.22,.86,1.8,1.33,.21,.16,.34,.32,.35,.62,.04,.9,.91,1.67,1.81,1.69,.21,0,.46-.14,.63,.11,0,0,.03,.02,.03,.02-.01,.02-.02,.06-.02,.06h-.01Z" fill="#ebb67a"/>
      <path d="M50.81,74.33c-1.74-3.45-3.48-6.9-5.24-10.34-.3-.59-.86-.98-1.34-1.42-1.67-1.54-3.47-2.9-5.43-4.05-1.71-1-3.54-1.63-5.42-2.14-3.51-.96-7.08-1.62-10.66-2.19-2.39-.39-4.8-.7-7.2-.99-.1,0-.2,0-.34,0,.19,.63,.37,1.23,.55,1.83,2.17,7.09,4.35,14.18,6.51,21.27,.11,.38,.31,.48,.64,.5,2.89,.19,5.76,.51,8.63,.92,3.99,.57,7.92,1.36,11.79,2.51,3.55,1.06,6.99,2.38,10.19,4.28,.06,.03,.13,.07,.2,.1,.35,.24,.69,.49,1.08,.67-.03,.11-.07,.21-.1,.32-.11-.07-.22-.12-.33-.19-1-.65-2.03-1.24-3.09-1.77-3.02-1.51-6.19-2.62-9.43-3.5-2.95-.8-5.95-1.41-8.97-1.89-1.84-.29-3.69-.54-5.54-.74-1.82-.2-3.64-.33-5.46-.48-.24-.02-.36-.08-.43-.33-.38-1.3-.78-2.6-1.18-3.89-2-6.49-3.99-12.99-5.98-19.49-.19-.61-.19-.6,.45-.54,2.42,.23,4.81,.57,7.21,.93,3.62,.55,7.21,1.2,10.75,2.12,1.68,.44,3.36,.89,4.94,1.67,3,1.48,5.6,3.54,7.98,5.9,.09,.09,.18,.22,.24,.34,1.46,2.87,2.91,5.75,4.37,8.62,.13,.57,.5,1.04,.75,1.56-.04,.14-.09,.27-.14,.4h0Z" fill="#e5a360"/>
      <path d="M54.77,87.99c-.3-.69-.39-1.39-.11-2.11,.11,1.19,.65,1.87,1.65,2.07,.39,.08,.77-.03,1.17-.13-.42,.86-.43,1.66,.15,2.37,.6,.74,1.39,.9,2.29,.61-.29,.27-.37,.64-.57,.95-.17-.25-.42-.11-.63-.11-.91-.02-1.77-.78-1.81-1.69-.02-.3-.15-.46-.35-.62-.58-.48-1.25-.82-1.8-1.33h.01Z" fill="#ffe5be"/>
      <path d="M50.35,71.65c.28,.71,.76,1.21,1.63,1.42-.5,.21-.75,.54-1.03,.85-.25-.52-.62-.98-.75-1.56,.12-.22,.15-.46,.15-.71Z" fill="#ffe5be"/>
      <path d="M13.8,79.51c-.11,0-.24,.05-.31-.09,.1,.03,.23-.02,.31,.09Z" fill="#ebb67a"/>
      <path d="M110.28,63.27c.06,.18-.12,.2-.2,.26-3.93,3.09-7.86,6.18-11.79,9.27-7.98,6.27-15.96,12.55-23.94,18.82-1.61,1.26-3.21,2.53-4.81,3.8-.11-.01-.21,.13-.34,.03,.86-1.01,.9-1.89,.13-2.92v-.15c.07-.01,.15-.01,.17-.1,.01-.01-.02-.04-.04-.04-.1-.01-.13,.06-.13,.14h-.15c-.28-.17-.55-.39-.9-.39-.06-.03-.11-.05-.17-.08,.61-.62,1.32-1.12,2-1.65,2.12-1.67,4.25-3.33,6.39-4.97,2.51-1.92,5.05-3.83,7.58-5.73,2.32-1.74,4.65-3.48,6.98-5.2,2.14-1.58,4.29-3.14,6.44-4.71,2.36-1.72,4.71-3.44,7.06-5.16,.17-.13,.44-.17,.48-.45,.13-.03,.25-.1,.36-.23-.17,.05-.29,.09-.36,.23-.67,.31-1.27,.73-1.89,1.13-2.72,1.74-5.41,3.54-8.07,5.38-3.75,2.6-7.45,5.25-11.11,7.97-2.15,1.59-4.27,3.21-6.39,4.84-1.56,1.2-3.09,2.42-4.6,3.67-1.46,1.2-2.93,2.41-4.33,3.69-.07,.06-.13,.12-.23,.12,.13-.65-.03-1.24-.39-1.78,.1-.08,.2-.16,.29-.25,2.16-2.23,4.54-4.18,7.12-5.89,2.1-1.39,4.17-2.84,6.25-4.26,2.39-1.63,4.78-3.26,7.17-4.89,2.69-1.84,5.39-3.67,8.08-5.51,2.48-1.68,4.95-3.37,7.42-5.06,.14-.1,.37-.14,.38-.39h0c.11,0,.23,0,.23-.15h.06s.15,.05,.09-.08c.25-.25,.66-.27,.84-.62,.37,.25,.8,.3,1.21,.42,1.04,.32,2.09,.61,3.13,.91l-.02-.02Zm-6.25,2.61s.02,.03,.02,.03c.03-.02,.05-.04,.08-.06,0-.01,.02-.02,.03-.03h-.02s0,.03,0,.03c-.03,.01-.07,.03-.1,.03Zm-.35,.27c-.09,.01-.18,.03-.2,.14-.01,.05,.02,.07,.06,.07,.1-.02,.13-.11,.13-.2,.07-.01,.15,.02,.19-.07,0-.01-.02-.05-.03-.05-.09-.02-.12,.05-.16,.12h0Zm-33.78,25.81c11.16-8.27,22.2-16.7,33.12-25.28-11.15,8.28-22.19,16.7-33.12,25.28Zm33.25-25.45s.06,.08,.07,.08c.04-.02,.09-.04,.11-.08,.03-.05,.01-.11-.06-.09-.05,0-.13,.09-.13,.09h0Zm-33.47,25.61s.03,.03,.05,.03c0-.03,.02-.05,.03-.08-.02-.01-.05-.01-.06-.01-.02,0-.03,.06-.03,.06h0Zm34.65-26.46s.02,.02,.02,.02c.01-.02,.02-.03,.02-.04h-.03s0,.02,0,.02h0Z" fill="#fdc993"/>
      <path d="M68.47,90.84c-.13,.43-.37,.77-.68,1.08-.37,.12-.78,.18-1.07,.48-.04-.08-.13-.06-.2-.06-1.02-.06-1.69-.64-1.9-1.63-.18-.85,.26-1.71,1.11-2.17,.05-.02,.09-.04,.16-.08-.82-.56-1.24-1.29-1-2.28,.22-.95,.89-1.4,1.82-1.55-.52-.75-.64-1.54-.17-2.33,.46-.77,1.18-1.05,2.08-.95-.23-.48-.38-.95-.27-1.47,.22-1,.95-1.61,1.95-1.62,.17,0,.33,.04,.29-.24-.15-1.15,.83-2.31,2.19-2.15,.08,.01,.17,0,.26,0v.03s.02-.02,.02-.02h-.03c-.02-.55,.03-1.08,.36-1.55,.45-.64,1.17-.94,2.04-.81-.08-.64,.04-1.23,.45-1.73,.42-.51,.99-.7,1.64-.73-.24-.71-.2-1.37,.23-1.97,.26-.39,.62-.64,1.07-.76,.11-.03,.25-.02,.18-.24-.34-1.01-.03-1.81,.8-2.45-.56-.57-.86-1.21-.67-2.03,.06-.24,.13-.48,.29-.67,.17-.21,.19-.31-.08-.48-.73-.46-1.05-1.33-.81-2.19,.07-.24,.08-.34-.21-.42-1.12-.32-1.68-1.55-1.25-2.66,.03-.08,.06-.17,.09-.25,.02-.03,.03-.05,.04-.08-.02,0-.05,.03-.08,.03-1.29,.86-2.69,.13-3.04-1.02-.1-.34-.12-.68-.02-1.12-.62,.67-1.28,.99-2.11,.77-.82-.21-1.28-.79-1.5-1.69-.32,.91-.86,1.47-1.76,1.56-.91,.09-1.55-.35-2-1.15-.45,1.85-2.38,2.22-3.54,.96-.04,.24-.03,.46-.08,.66-.28,1.11-1.3,1.76-2.39,1.49-.18-.04-.32-.11-.38,.18-.27,1.31-1.39,1.95-2.65,1.53-.04-.02-.09-.03-.2-.06,.27,.78,.28,1.5-.21,2.15-.5,.64-1.17,.88-2,.75,.31,.5,.49,.99,.41,1.56-.16,1.12-1.05,1.81-2.24,1.71-.92-.08-1.7-1.03-1.67-2.04,.03-1.04,.89-1.9,1.92-1.93,.15,0,.3,0,.45,0,0,.01,0,.03,0,.04v-.02s-.02-.02-.02-.02c-.32-.5-.46-1.04-.38-1.63,.08-.24,.17-.49,.25-.74,.03-.04,.07-.08,.11-.12,.02-.03,.05-.05,.07-.08,.16-.15,.32-.29,.48-.44,.28-.08,.56-.15,.84-.23,.38-.05,.74,.08,1.14,.22-.15-.38-.25-.73-.24-1.09-.02-.17,.1-.32,.05-.49,.37-.76,.9-1.3,1.77-1.39,.2,0,.4,.03,.6,.03,.26,.13,.39,.03,.4-.32,.09-.15,.15-.3,.15-.47,.41-.54,.9-.94,1.59-1.03,.21,.02,.43,.05,.64,.07,.44,.09,.78,.35,1.11,.7,.04-1.11,.48-1.9,1.56-2.16,1-.23,1.72,.23,2.23,1.09,.47-1.19,1.08-1.72,2.01-1.68,1.08,.05,1.7,.7,1.95,1.76,.43-1.22,1.3-1.77,2.39-1.54,1.01,.21,1.58,1.12,1.49,2.36,.11,.02,.14-.09,.2-.14,.71-.7,1.72-.8,2.51-.25,.77,.54,1.05,1.53,.69,2.44-.02,.08-.05,.15-.08,.22,0,.02-.03,.05-.03,.08,.02-.02,.05-.03,.07-.04,1.06-.55,1.93-.47,2.6,.26,.52,.57,.64,1.24,.43,1.98-.06,.19-.05,.26,.18,.32,1.33,.37,1.88,1.91,1.09,3.06-.17,.24-.11,.31,.1,.45,1.1,.74,1.2,2.33,.18,3.19-.18,.16-.22,.22-.04,.43,1,1.15,.55,2.79-.88,3.26-.22,.07-.27,.13-.19,.37,.41,1.24-.41,2.48-1.69,2.59-.21,.02-.31,.01-.24,.3,.35,1.45-.67,2.65-2.13,2.52-.16-.01-.21,0-.19,.17,.09,.75-.17,1.36-.75,1.84-.03,.03-.07,.07-.03,.12h0c-.3,0-.54,.21-.83,.27-.29,.05-.65-.15-.82,.05-.14,.17,.02,.54-.08,.81,0,.03,0,.07,0,.11-.05,.16-.11,.31-.16,.47-.5,.6-1.08,1.01-1.9,.94-.24-.02-.13,.16-.13,.27,.05,1.04-.58,1.89-1.58,2.1-.24,.05-.48,.04-.72,.05,.62,1.42,0,2.81-1.6,3.11,.12,.26,.24,.51,.36,.76,.14,.67,.01,1.28-.4,1.82-.23,.3-.55,.44-.9,.63,.29,.12,.48,.33,.69,.51,.36,.54,.52,1.13,.39,1.78l.05-.02Zm12.34-23.6c.52,0,.89-.34,.89-.79,0-.47-.39-.83-.91-.83s-.92,.37-.92,.83c.01,.46,.42,.8,.94,.8h0Zm-9.65,12.07c0-.44-.48-.83-.98-.81-.46,.01-.85,.39-.85,.8,.01,.47,.41,.84,.91,.83,.53-.01,.92-.36,.92-.82Zm-10.02-24.04c.49,0,.86-.34,.87-.77,.02-.59-.43-.82-.96-.85-.42-.02-.87,.43-.87,.81,0,.47,.42,.81,.97,.81h0Zm12.24,21.68c0-.5-.39-.86-.92-.86-.46,.01-.91,.41-.91,.82,0,.45,.43,.81,.95,.81,.48,0,.88-.35,.88-.77Zm4.57-19.99c0,.5,.39,.87,.92,.87,.46,0,.91-.4,.91-.81,0-.45-.42-.82-.94-.82-.48,0-.89,.34-.89,.76Zm-21.36,2.06c.01-.4-.4-.78-.87-.8-.24,0-.48,0-.68,.16-.23,.18-.4,.42-.32,.73,.09,.37,.35,.59,.72,.66,.08,0,.17,0,.26,0,.48,0,.88-.33,.89-.75Zm15.79-5.62c.58,0,.92-.3,.92-.79-.01-.42-.43-.76-.94-.76-.56,0-.89,.28-.89,.77,0,.52,.31,.79,.91,.79h0Zm-14,3.65c.51,0,.91-.37,.9-.8,0-.39-.5-.85-.92-.82-.53,.04-.93,.28-.92,.82,0,.47,.39,.8,.93,.8h.01Zm20.91,11.49c-.58,0-.88,.26-.88,.76s.31,.79,.87,.79c.54,.01,.97-.33,.96-.77-.01-.38-.38-.87-.94-.78h0Zm-4.28,6.77c.5-.01,.9-.37,.89-.8,0-.44-.42-.76-.97-.76s-.86,.29-.86,.8c.01,.49,.33,.75,.94,.75h0Zm-6.51-22.05c.56-.01,.85-.29,.84-.81-.02-.51-.35-.76-.99-.75-.44,0-.86,.38-.84,.76,.02,.46,.44,.79,.99,.79h0Zm.61,29.15c0-.47-.42-.8-.98-.8-.55,0-.85,.3-.85,.81,.01,.49,.33,.75,.94,.75,.47,0,.89-.37,.89-.76Zm7.71-28.07c0-.47-.36-.76-.94-.76-.55,0-.89,.3-.89,.78,0,.43,.42,.77,.96,.77s.87-.31,.87-.79Zm.55,18.59c.55,0,.9-.3,.9-.77,0-.44-.42-.79-.95-.79s-.88,.34-.88,.79c0,.5,.33,.76,.93,.76h0Zm3.05-12.27c.48,0,.9-.36,.9-.75,0-.47-.41-.81-.97-.81-.56,0-.86,.3-.86,.8s.33,.76,.93,.76h0Zm-26.74,.85c-.59,0-.9,.28-.9,.79,0,.44,.39,.76,.91,.76s.92-.33,.92-.76c.01-.44-.4-.79-.93-.79h0Zm27.35,2.42c.57,0,.9-.29,.9-.76,0-.47-.38-.8-.92-.8s-.91,.33-.91,.76c0,.47,.39,.79,.93,.79h0Zm-14.26,22.61c.49,0,.89-.36,.89-.79-.01-.44-.42-.77-.96-.77s-.87,.28-.87,.78,.39,.77,.94,.77h0Zm-2.06-32.71c.48,0,.89-.34,.89-.76,0-.44-.41-.79-.94-.79s-.89,.27-.89,.73c0,.49,.38,.83,.94,.83h0Zm1.75,34.87c-.55,0-.87,.26-.87,.73s.38,.82,.92,.82,.92-.35,.92-.78c-.01-.44-.42-.77-.96-.77h0Z" fill="#b86428"/>
      <path d="M68.66,86.13c1.25-1.14,2.5-2.26,3.82-3.31,2.54-2,5.18-3.85,7.91-5.57,2.54-1.6,5.1-3.18,7.69-4.71,2.47-1.46,4.94-2.92,7.41-4.37,2.04-1.2,4.09-2.39,6.14-3.58,1.03-.59,2.08-1.17,3.12-1.76-.01,.25-.23,.29-.38,.39-2.47,1.69-4.95,3.37-7.42,5.06-2.69,1.83-5.39,3.67-8.08,5.51-2.39,1.63-4.78,3.26-7.17,4.89-2.08,1.42-4.15,2.87-6.25,4.26-2.58,1.71-4.96,3.66-7.12,5.89-.09,.09-.19,.17-.29,.25-.21-.18-.4-.39-.69-.51,.35-.19,.68-.33,.9-.63,.4-.55,.54-1.15,.4-1.82h0Z" fill="#ebb67a"/>
      <path d="M74.38,78.4c.21-.02,.41-.1,.58-.24,.39-.32,.77-.66,1.16-1h0c.52-.2,.95-.55,1.4-.85,5.18-3.41,10.35-6.84,15.53-10.26,.91-.6,1.83-1.21,2.75-1.81,.22-.14,.27-.23,.06-.45-1.49-1.55-2.97-3.12-4.45-4.68-2.14-2.26-4.27-4.51-6.41-6.76-1.38-1.45-2.75-2.91-4.13-4.36-1.16-1.23-2.33-2.46-3.48-3.7-.21-.23-.38-.26-.65-.1-4.41,2.62-8.82,5.23-13.19,7.92-.58,.35-1.15,.71-1.72,1.07-.1,.06-.25,.09-.25,.26-.21-.02-.43-.05-.64-.07,.66-.49,1.39-.9,2.09-1.34,4.67-2.88,9.39-5.67,14.11-8.47,.19-.11,.29-.08,.42,.07,.35,.38,.7,.76,1.05,1.13,2.11,2.23,4.22,4.45,6.33,6.68s4.22,4.46,6.33,6.68c1.73,1.83,3.47,3.65,5.2,5.47q.36,.39-.09,.69c-2.23,1.47-4.45,2.95-6.68,4.42-4.72,3.12-9.44,6.23-14.17,9.34-.43,.29-.83,.64-1.31,.85,.05-.16,.11-.31,.16-.47v-.02Z" fill="#e5a360"/>
      <path d="M53.7,59.54c-.18,0-.26,.15-.36,.26-1.03,1.11-2.06,2.21-2.99,3.41-.1,.12-.17,.2-.07,.37,.43,.74,.85,1.5,1.27,2.25-.13,.21-.27,.42-.4,.63-.47-.67-.82-1.42-1.22-2.13-.38-.66-.37-.66,.09-1.24,.82-1.04,1.69-2.03,2.59-2.99,.42-.45,.82-.94,1.34-1.29-.08,.24-.17,.49-.25,.74h0Z" fill="#e5a360"/>
      <path d="M56.36,57.08c-.35,.24-.75,.42-.91,.86-.28,.08-.56,.15-.84,.23,.54-.61,1.14-1.13,1.8-1.59,.06,.17-.06,.32-.05,.49h0Z" fill="#e5a360"/>
      <path d="M59.18,54.89c-.16,.07-.32,.14-.4,.32-.2,0-.4-.03-.6-.03,.37-.29,.74-.57,1.16-.76,0,.17-.06,.33-.15,.47h-.01Z" fill="#e5a360"/>
      <path d="M104.96,62.67c0,.15-.12,.15-.23,.15,.07-.05,.15-.1,.23-.15Z" fill="#ebb67a"/>
      <path d="M105.11,62.58c.06,.14-.09,.08-.09,.08,.03-.03,.06-.05,.09-.08Z" fill="#ebb67a"/>
      <path d="M54.13,58.61s-.07,.08-.07,.08c.02-.03,.05-.05,.07-.08Z" fill="#e5a360"/>
      <path d="M62.3,105.72c-.91-.32-1.28-1.03-1.35-1.96,.02-.12,.04-.23,.07-.34,.11-.39,.22-.79,.62-.99,0,.05-.02,.1-.04,.15-.46,1.22,.06,2.34,1.28,2.75,.06,.02,.11,.06,.21,.11-.32,.02-.55,.17-.79,.27h0Z" fill="#ffe5be"/>
      <path d="M61.38,100.58c-.16-.81-.04-1.53,.62-2.08-.5,1.33-.15,2.2,1.2,2.91-.35,.02-.62,.2-.92,.29-.13-.09-.26-.19-.39-.28-.21-.26-.38-.54-.5-.85h0Z" fill="#ffe5be"/>
      <path d="M10.65,77.42c-1.85-8.53-3.46-17.1-4.92-25.7,1.84,8.53,3.47,17.1,4.92,25.7Z" fill="#e5a360"/>
      <path d="M7.43,78.41c-.57-2.85-1.05-5.71-1.51-8.57-.45-2.85-.92-5.7-1.36-8.55-.43-2.85-.83-5.7-1.25-8.55,.04,0,.07,0,.1,0,1.51,8.53,2.86,17.09,4.03,25.68h-.01Z" fill="#e5a360"/>
      <path d="M4.25,52.41c1.59,8.6,3.02,17.22,4.28,25.86-.4-1.15-4.47-25.3-4.28-25.86Z" fill="#e5a360"/>
      <path d="M9.49,77.65c-1.68-8.51-3.16-17.05-4.45-25.62,1.67,8.51,3.17,17.05,4.45,25.62Z" fill="#e5a360"/>
      <path d="M2.64,53.37c1.44,8.56,2.71,17.1,3.82,25.66-1.07-5.51-3.97-25.01-3.82-25.66Z" fill="#e5a360"/>
      <path d="M2.54,52.93c.05,.11,.05,.19,0,.27-.06-.09-.06-.17,0-.27Z" fill="#e5a360"/>
      <path d="M9.51,77.98s.03-.06,.05-.09c.01,.02,.03,.04,.03,.06s-.02,.07-.02,.1c-.02-.03-.06-.08-.06-.08h0Z" fill="#e5a360"/>
      <path d="M7.5,78.73s.02,.08,.02,.11c0,.02,.01,.1-.05,.04-.01-.02,0-.07,0-.11,0-.01,.05-.04,.05-.04h-.02Z" fill="#e5a360"/>
      <path d="M6.51,79.35s.03,.05,.03,.07c-.01,.03-.03,.07-.03,.1,0-.02-.05-.08-.05-.08,.02-.03,.03-.06,.05-.09Z" fill="#e5a360"/>
      <path d="M5.64,51.36s.02-.04,.03-.06c.01,.02,.03,.04,.03,.06s-.03,.06-.03,.06c-.01-.02-.03-.04-.03-.06Z" fill="#e5a360"/>
      <path d="M10.7,77.71s.03,.04,.03,.06c0,.02-.02,.04-.03,.06-.01-.02-.03-.06-.03-.06,.01-.02,.02-.04,.03-.06Z" fill="#e5a360"/>
      <path d="M53.67,59.57c-.08,.59,.06,1.13,.38,1.62h0c-.15,0-.3,0-.45,0-1.03,.02-1.89,.89-1.92,1.93-.03,1.01,.75,1.96,1.67,2.04,1.19,.1,2.08-.59,2.24-1.71,.08-.57-.1-1.06-.41-1.56,.84,.13,1.51-.1,2-.75,.5-.65,.48-1.38,.21-2.15,.11,.03,.15,.04,.2,.06,1.26,.43,2.38-.21,2.65-1.53,.06-.3,.2-.22,.38-.18,1.09,.27,2.12-.38,2.39-1.49,.05-.21,.04-.42,.08-.66,1.15,1.26,3.09,.88,3.54-.96,.45,.8,1.09,1.24,2,1.15,.9-.09,1.44-.64,1.76-1.56,.22,.9,.68,1.48,1.5,1.69,.83,.22,1.49-.1,2.11-.77-.11,.44-.08,.78,.02,1.12,.34,1.16,1.75,1.88,3.04,1.02,.02,.02,.03,.03,.05,.05-.03,.08-.06,.17-.09,.25-.43,1.11,.13,2.33,1.25,2.66,.29,.08,.28,.18,.21,.42-.24,.86,.07,1.73,.81,2.19,.28,.17,.25,.27,.08,.48-.16,.19-.23,.43-.29,.67-.19,.82,.11,1.46,.67,2.03-.83,.63-1.14,1.44-.8,2.45,.07,.22-.07,.21-.18,.24-.44,.13-.8,.38-1.07,.76-.42,.6-.46,1.26-.23,1.97-.65,.03-1.22,.22-1.64,.73-.42,.5-.54,1.09-.45,1.73-.87-.13-1.59,.17-2.04,.81-.32,.47-.38,1-.36,1.55h-.26c-1.35-.16-2.34,1-2.19,2.15,.04,.28-.12,.24-.29,.24-1,.01-1.73,.62-1.95,1.62-.11,.52,.05,.99,.27,1.47-.91-.11-1.62,.17-2.08,.95-.47,.79-.34,1.58,.17,2.33-.93,.15-1.59,.61-1.82,1.55-.24,.99,.18,1.72,1,2.28l-.16,.08c-.85,.46-1.29,1.32-1.11,2.17,.21,.98,.88,1.56,1.9,1.63,.07,0,.15-.03,.2,.06-.24,.15-.36,.41-.52,.63-.42,.03-.83-.06-1.23-.17-.2-.27-.56-.39-.68-.82-.31,.51-.39,1-.55,1.46-.26-.05-.51,.07-.76,.07-.23-.05-.05-.14,0-.2,.35-.53,.44-1.1,.27-1.7-.3-1.09-1.25-1.6-2.52-1.35-.03-.02-.05-.05-.07-.07,.74-.98,.66-2.15-.19-2.87-.61-.51-1.31-.56-2.04-.33-.02-.02-.03-.03-.05-.05,.71-1.39-.12-2.68-1.18-2.96-.25-.07-.51-.05-.79-.07,.89-.8,1.17-1.59,.83-2.44-.45-1.09-1.3-1.44-2.49-1.24,.6-.68,.81-1.4,.53-2.2-.27-.79-.88-1.2-1.72-1.34,.82-.46,1.23-1.11,1.16-1.99-.08-.97-.65-1.58-1.68-1.85,.6-.23,.88-.69,1.18-1.13,.26,.7,.69,1.32,1.05,1.97,1.73,3.08,3.46,6.15,5.2,9.22,1.02,1.82,2.06,3.63,3.09,5.44,.2,.34,.23,.34,.42-.03,.15-.28,.44-.51,.21-.91-.19,.24-.29,.16-.42-.08-2.69-4.77-5.39-9.53-8.08-14.29-.4-.7-.79-1.41-1.19-2.12-.05-.07-.08-.16-.17-.2-.22-.66-.54-1.25-1.26-1.57,.23-.05,.4-.07,.56-.12,.77-.24,1.26-.77,1.4-1.57,.14-.81-.13-1.5-.81-1.99-.68-.49-1.74-.55-2.6,.3-.42-.75-.83-1.51-1.27-2.25-.1-.17-.02-.25,.07-.37,.93-1.2,1.96-2.3,2.99-3.41,.1-.1,.18-.26,.36-.26l-.03,.02Z" fill="#ffe5be"/>
      <path d="M111.64,63.59c.08,.44,.16,.84-.3,1.19-1.46,1.09-2.88,2.23-4.31,3.36-1.94,1.53-3.88,3.07-5.82,4.59-1.7,1.34-3.42,2.66-5.12,4-1.88,1.48-3.76,2.96-5.64,4.44-1.35,1.06-2.71,2.12-4.06,3.18-1.98,1.55-3.95,3.1-5.92,4.65-1.46,1.15-2.92,2.3-4.39,3.44-1.59,1.23-3.17,2.47-4.76,3.71-.18-.15-.36-.31-.54-.46,1.05-.83,2.11-1.65,3.16-2.47,1.71-1.33,3.42-2.65,5.12-3.99,2.29-1.8,4.58-3.61,6.87-5.41,1.69-1.33,3.4-2.64,5.09-3.97,2.42-1.91,4.84-3.82,7.26-5.73,1.94-1.53,3.9-3.05,5.84-4.57,1.89-1.49,3.79-2.97,5.67-4.47,.62-.49,1.27-.93,1.84-1.49h.01Z" fill="#455325"/>
      <path d="M68.43,90.87c.1,0,.16-.06,.23-.12,1.4-1.28,2.87-2.48,4.33-3.69,1.52-1.25,3.05-2.48,4.6-3.67,2.12-1.63,4.24-3.25,6.39-4.84,3.66-2.72,7.37-5.37,11.11-7.97,2.66-1.84,5.35-3.64,8.07-5.38,.62-.39,1.22-.82,1.89-1.13h0c-.04,.28-.3,.32-.48,.45-2.35,1.72-4.71,3.44-7.06,5.16-2.15,1.57-4.3,3.13-6.44,4.71-2.34,1.72-4.66,3.46-6.98,5.2-2.53,1.9-5.06,3.81-7.58,5.73-2.14,1.64-4.27,3.3-6.39,4.97-.68,.53-1.39,1.03-2,1.65-.08,0-.15,.02-.23,.02-.05,0-.1-.02-.15-.02,.31-.31,.55-.66,.68-1.08h0Z" fill="#ebb67a"/>
      <path d="M65.45,100.43c.53-.19,.98-.52,1.44-.83,.19-.13,.35-.3,.59-.34,.47,.54,1.04,.8,1.82,.71-.92,.78-1.11,1.67-.64,2.7-1.11,.83-2.21,1.66-3.38,2.53,.41,.13,.76,.23,1.11,.35,.95,.31,1.9,.62,2.85,.94,.14,.05,.27,.09,.41,.05h0s.05,.06,.08,.09c.25,.22,.5,.45,.82,.56-.03,.02-.06,.05-.09,.07-.99,.25-1.55,1.02-1.51,2.04,0,.18,.05,.35,.15,.5-.07-.01-.15,0-.22-.01-1.28-.44-2.55-.87-3.82-1.31,.04-.11,.09-.23,.14-.35,.37-.89-.03-2.04-.88-2.49-.37-.19-.37-.25-.02-.48,.06-.04,.12-.06,.17-.1,.64-.43,.95-1.2,.84-1.97-.09-.69-.51-1.13-1.02-1.51,.11-.11,.25-.18,.31-.32,.36-.2,.66-.48,.87-.85l-.02,.02Z" fill="#382115"/>
      <path d="M67.53,99.22c-.11-.23-.22-.47-.33-.71-.1-.5-.07-.99,.19-1.45,.08-.14,.07-.22-.09-.28-.64-.25-1.28-.53-1.96-.67,.04-.41,.15-.83,0-1.24-.06-.47,.09-.91,.31-1.31,.1-.18,.22-.37,.48-.37-.22,.66-.19,1.31,.21,1.89,.52,.76,1.28,.97,2.23,.8-.67,.71-.9,1.45-.57,2.3,.36,.91,1.09,1.27,2.07,1.29-.74,.65-1.05,1.4-.74,2.31,.28,.85,.92,1.28,1.83,1.38-.72,.47-1.09,1.11-1.02,1.94,.06,.81,.53,1.38,1.26,1.72-.3,.13-.56,.24-.83,.36-.33-.11-.57-.33-.82-.56-.03-.03-.05-.06-.08-.09h0c-.31-.53-.45-1.09-.29-1.7,.13-.51,.43-.9,.94-1.22-.74-.07-1.26-.4-1.64-.96-.47-1.03-.29-1.92,.64-2.7-.79,.09-1.36-.17-1.82-.71l.03-.02Z" fill="#ffe5be"/>
      <path d="M69.1,109.8c.22,.09,.48,.1,.61,.34-1.23,.17-1.89,.76-2.02,1.83-.03,.15-.03,.31-.03,.51-.86-.91-1.79-1-2.83-.37,.33-1.28-.09-2.17-1.26-2.74,.68-.07,1.12-.42,1.49-.89,1.27,.44,2.55,.88,3.82,1.31,.06,.02,.15,.01,.22,.01h0Z" fill="#fff"/>
      <path d="M67.15,98.54c-.48,.29-.92,.67-1.46,.87-.05-.88-.48-1.5-1.28-1.83-.19-.08-.22-.17-.06-.28,.43-.3,.69-.73,.95-1.17,.68,.14,1.32,.42,1.96,.67,.16,.06,.17,.13,.09,.28-.25,.45-.29,.94-.19,1.45h0Z" fill="#5f7233"/>
      <path d="M59.37,91.82c-.08,1.61,.72,2.42,2.33,2.37,.07,0,.15-.03,.18,.08-.44,.54-.55,1.15-.35,1.81,.23,.79,.79,1.24,1.59,1.44-.3,.12-.52,.33-.78,.49-.57-.17-.93-.58-1.23-1.06-.24-.74-.21-1.44,.33-2.12-.44,.08-.81,.09-1.18-.01-.13-.05-.25-.11-.38-.16-.65-.51-1-1.16-.91-2.01,.12-.28,.11-.62,.39-.82h.01Z" fill="#ffe5be"/>
      <path d="M70.56,116.65c.14,.02,.28,.08,.38,.24,.76,1.23,1.53,2.46,2.29,3.7,.16,.26,.1,.51-.16,.66-.24,.14-.46,.04-.61-.2-.55-.88-1.09-1.77-1.64-2.65-.22-.36-.46-.71-.65-1.09-.17-.33,.03-.66,.4-.66h0Z" fill="#d57328"/>
      <path d="M63.43,103.28c-.52,.02-.95-.33-.96-.78-.01-.47,.38-.84,.9-.85,.48-.01,.93,.37,.93,.81s-.37,.81-.88,.82h.01Z" fill="#d57328"/>
      <path d="M70.56,111.25c0,.45-.38,.79-.89,.81-.51,.02-.94-.35-.94-.8-.01-.45,.39-.83,.87-.83,.54,0,.96,.35,.96,.82Z" fill="#d57328"/>
      <path d="M72.05,103.2c.55,0,.95,.35,.95,.84,0,.43-.41,.79-.91,.79s-.92-.36-.92-.82,.38-.81,.88-.81Z" fill="#d57328"/>
      <path d="M71.74,108.73c-.52,.01-.94-.34-.95-.79-.01-.46,.38-.83,.9-.84,.47-.01,.92,.38,.93,.82,0,.43-.38,.8-.89,.8h.01Z" fill="#d57328"/>
      <path d="M71.16,99.4c.48-.01,.92,.4,.92,.84,0,.42-.4,.78-.88,.79-.52,.01-.94-.34-.95-.79,0-.47,.39-.84,.91-.84Z" fill="#d57328"/>
      <path d="M63.04,111.2c-.54,.01-.94-.31-.95-.78,0-.45,.37-.82,.86-.84,.47-.01,.97,.42,.97,.85,0,.42-.41,.78-.89,.78h0Z" fill="#d57328"/>
      <path d="M62.84,98.53c0-.46,.38-.83,.87-.84,.45-.01,.97,.43,.97,.82,0,.44-.4,.81-.9,.81-.54,0-.94-.33-.94-.79Z" fill="#d57328"/>
      <path d="M66.02,111.99c.52-.02,.94,.33,.95,.78s-.37,.82-.86,.84c-.47,.01-.97-.42-.97-.85,0-.41,.4-.77,.88-.78h0Z" fill="#d57328"/>
      <path d="M68.87,96.51c0-.46,.36-.76,.91-.76s.93,.33,.93,.8c0,.46-.35,.76-.91,.76s-.93-.33-.93-.8Z" fill="#d57328"/>
      <path d="M63.4,95.37c-.53-.01-.93-.36-.93-.8,.01-.42,.4-.76,.88-.76,.56,0,.95,.34,.95,.82,0,.46-.34,.74-.9,.74h0Z" fill="#d57328"/>
      <path d="M67.87,92.26c.53,0,.88,.23,.94,.62,.07,.45-.1,.76-.54,.89-.39,.12-.77,.07-1.06-.24-.2-.21-.31-.48-.16-.78,.18-.35,.44-.53,.82-.5h0Z" fill="#d57328"/>
      <path d="M62.47,106.46c0-.42,.4-.77,.88-.77,.57,0,.95,.33,.95,.82,0,.45-.35,.74-.89,.74s-.94-.34-.94-.79Z" fill="#d57328"/>
      <path d="M68.95,109.3c-.04-1.02,.52-1.79,1.51-2.04-.23,.26-.47,.5-.59,.84-.27,.75-.12,1.44,.34,2.09-.17-.14-.34,.08-.5-.05-.14-.24-.4-.25-.61-.34-.1-.15-.15-.32-.15-.5Z" fill="#ffe5be"/>
      <path d="M67.17,98.53c.11,.23,.22,.47,.33,.71-.24,.04-.4,.21-.59,.34-.47,.31-.92,.64-1.45,.83,.16-.32,.24-.66,.24-1.01,.54-.2,.97-.58,1.46-.87h0Z" fill="#455325"/>
      <path d="M65.3,94.89c-.24-.44-.5-.86-.94-1.12,.14-.33,.29-.65,.56-.89,.4,.11,.81,.2,1.23,.17-.02,.05-.04,.1-.06,.15-.26,0-.38,.19-.48,.37-.22,.4-.37,.83-.31,1.31h0Z" fill="#fdc993"/>
      <path d="M68.95,114.47h.27c.18,0,.37,0,.46,.19,.08,.19,.03,.37-.09,.54-.16,.22-.37,.34-.61,.44-.24,.1-.49,.14-.66-.09-.15-.2-.05-.41,.09-.6,.04-.05,.06-.11,.09-.17,.22,0,.31,.37,.48,.26s-.08-.36-.02-.56h0Z" fill="#d57328"/>
      <path d="M64.37,93.75c-.23-.08-.45-.16-.68-.24,.16-.46,.24-.95,.55-1.46,.12,.43,.48,.55,.68,.82-.27,.25-.42,.56-.56,.89h0Z" fill="#ebb67a"/>
      <path d="M67.98,114.15c.09-.24,.04-.49,.06-.76,.24,.21,.44,.38,.64,.55,0,.08,.03,.17,.03,.26,.01,.11,.07,.24-.06,.31-.12,.06-.18-.05-.26-.1-.14-.09-.27-.18-.41-.27h0Z" fill="#fff"/>
      <path d="M68.88,114.01c.25,.07,.5,.14,.68,.19-.15,.03-.39,.04-.61,.15-.12-.09-.07-.22-.07-.34h0Z" fill="#ffe7d2"/>
      <path d="M64.29,101.58c-.14,.01-.26-.05-.39-.13,.24-.06,.47-.12,.7-.18-.07,.15-.21,.21-.31,.32h0Z" fill="#fdc993"/>
      <path d="M73.24,123.33h.06c0,.12,.06,.25-.04,.37-.1-.12-.03-.25-.03-.37h0Z" fill="#e0bcb2"/>
      <path d="M68.29,92.01c-.14,0-.28,.05-.4-.06,.08,0,.15-.02,.23-.02,.06,.03,.11,.05,.17,.08Z" fill="#b86428"/>
      <path d="M69.19,92.41h.15v.15c-.05-.05-.1-.1-.15-.15Z" fill="#ebb67a"/>
      <path d="M71.15,110.84s-.07-.03-.04-.07c0-.01,.09,.02,.09,.02-.02,.02-.03,.03-.05,.05Z" fill="#fff"/>
      <path d="M73.18,124.15c-.05-.13-.06-.22,0-.36,.05,.14,.06,.24,0,.36Z" fill="#e0bcb2"/>
      <path d="M60.25,94.83c.03,.08,.07,.16,.13,.28-1.09-.5-2.13-.97-3.17-1.45-2.4-1.1-4.79-2.18-7.22-3.2-1.89-.79-3.78-1.63-5.72-2.31-2.54-.89-5.15-1.5-7.76-2.13-3.32-.81-6.67-1.49-10-2.21-3.59-.78-7.2-1.51-10.76-2.43-.86-.22-1.74-.4-2.57-.77h0c.11,.01,.23,0,.34,.03,3.24,.81,6.53,1.36,9.8,2,2.82,.55,5.63,1.08,8.44,1.66,2.97,.61,5.93,1.25,8.86,2.07,1.61,.45,3.21,.93,4.77,1.55,2.06,.82,4.07,1.73,6.08,2.66,2.57,1.2,5.12,2.45,7.65,3.75,.24,.12,.45,.34,.75,.34,.13,.05,.25,.11,.38,.16h0Z" fill="#ebb67a"/>
      <path d="M56.33,94.56l-.02,.08s-.07,.01-.1,0c-3-1.2-6.02-2.32-9.07-3.37-2.17-.75-4.35-1.49-6.56-2.1-3.82-1.06-7.66-2.03-11.49-3.05-2.23-.6-4.45-1.2-6.67-1.83-2.12-.6-4.23-1.22-6.35-1.84-.54-.16-1.07-.35-1.65-.54,.14-.09,.22-.04,.31-.02,1.47,.42,2.94,.86,4.42,1.26,3.07,.84,6.14,1.67,9.21,2.48,3.61,.95,7.23,1.87,10.84,2.82,2.01,.53,3.99,1.17,5.96,1.84,2.71,.92,5.39,1.91,8.04,2.98,1.04,.42,2.08,.86,3.12,1.29h.01Z" fill="#ebb67a"/>
      <path d="M56.56,94.85c-.02-.05-.05-.09-.06-.14,0-.01,.06-.04,.08-.04,.04,.02,.07,.06,.11,.09-.02,.02-.05,.04-.13,.1h0Z" fill="#ebb67a"/>
      <path d="M13.98,81.7s.04,.02,.06,.03c-.02,.01-.04,.03-.06,.03s-.06-.03-.06-.03c.02-.01,.04-.03,.06-.03Z" fill="#ebb67a"/>
      <path d="M56.92,94.86v.02h-.03v-.04s.03,.01,.03,.01h0Z" fill="#ebb67a"/>
      <path d="M60.92,95.32s.02-.01,.03-.01,0,.03,0,.03h-.03s0-.03,0-.03h0Z" fill="#ebb67a"/>
      <path d="M14.27,81.81v.02h-.03v-.04s.03,.01,.03,.01h0Z" fill="#ebb67a"/>
      <path d="M13.18,80.6h0s-.07-.03-.1-.03c0-.01,.02-.03,.02-.03l.08,.06h0Z" fill="#ebb67a"/>
      <path d="M50.8,74.32c-.1,.41-.08,.81,0,1.22-.27,.69,.09,1.64,.7,2.07,.06,.05,.15,.04,.22,.05-.23,.45-.36,.93-.31,1.45,.05,.29-.04,.57-.03,.87,.04,.98,.94,1.79,2.02,1.79-.01,.28-.02,.57-.02,.85-.33,.56-.09,1.06,.14,1.56,.06,.14,.17,.25,.17,.42-.06-.03-.13-.06-.2-.1-3.21-1.9-6.65-3.23-10.19-4.28-3.86-1.15-7.8-1.94-11.79-2.51-2.87-.41-5.74-.73-8.63-.92-.33-.03-.52-.12-.64-.5-2.16-7.09-4.34-14.18-6.51-21.27-.19-.6-.36-1.2-.55-1.83,.14,0,.24,0,.34,0,2.4,.3,4.81,.61,7.2,.99,3.59,.57,7.15,1.23,10.66,2.19,1.88,.52,3.72,1.14,5.42,2.14,1.96,1.15,3.75,2.52,5.43,4.05,.48,.44,1.04,.83,1.34,1.42,1.76,3.44,3.5,6.89,5.24,10.34h0Z" fill="#ffe7d2"/>
      <path d="M54.26,70.8c.09,.03,.13,.12,.17,.2,.4,.71,.79,1.41,1.19,2.12,2.7,4.76,5.39,9.52,8.08,14.29,.13,.24,.23,.32,.42,.08,.23,.4-.07,.64-.21,.91-.2,.37-.22,.37-.42,.03-1.03-1.81-2.06-3.62-3.09-5.44-1.74-3.07-3.48-6.14-5.2-9.22-.36-.65-.78-1.27-1.05-1.97,.04-.33,.07-.67,.11-1Z" fill="#e5a360"/>
      <path d="M54.4,81.28c.01-.45,.46-.78,1.02-.76,.44,.02,.89,.43,.87,.81-.02,.41-.52,.84-.97,.82-.47-.01-.94-.46-.93-.86h0Z" fill="#d57328"/>
      <path d="M51.41,79.12c.17,.63,.48,1.15,1.08,1.46,.49,.25,1,.23,1.61,.1-.39,.33-.56,.7-.7,1.09-1.08,0-1.98-.81-2.02-1.79,0-.29,.08-.58,.03-.87h0Z" fill="#ffe5be"/>
      <path d="M53.05,65.46c.45,0,.93,.42,.93,.81,0,.37-.49,.82-.91,.82-.49-.01-.98-.43-.98-.85s.45-.78,.97-.78h0Z" fill="#d57328"/>
      <path d="M52.23,70.97c-.47-.01-.9-.4-.9-.82,0-.44,.39-.8,.9-.81,.51-.02,.93,.35,.93,.81,0,.46-.42,.83-.93,.82Z" fill="#d57328"/>
      <path d="M61.33,92.09c-.6,0-.93-.26-.93-.76,0-.5,.31-.79,.87-.79s.97,.33,.97,.77c.01,.43-.4,.79-.9,.79h-.01Z" fill="#d57328"/>
      <path d="M59.11,87.2c.52,0,.92,.36,.92,.82,0,.45-.41,.82-.89,.81-.46,0-.94-.43-.94-.84,0-.42,.41-.78,.91-.78h0Z" fill="#d57328"/>
      <path d="M55.68,85.05c.02-.45,.44-.8,.96-.8,.49,0,.87,.38,.87,.86,0,.41-.42,.77-.88,.77-.46,0-.96-.44-.95-.83Z" fill="#d57328"/>
      <path d="M51.79,74.02c-.01-.48,.33-.79,.87-.79s.96,.33,.96,.77c0,.5-.33,.78-.92,.78-.52,0-.91-.32-.91-.76Z" fill="#d57328"/>
      <path d="M53.4,78.65c-.57,.01-.96-.35-.93-.86,.03-.46,.34-.69,.91-.69,.51,0,.92,.34,.92,.77,.01,.43-.39,.79-.9,.79h0Z" fill="#d57328"/>
      <path d="M53.39,82.62c.22,.72,.62,1.28,1.36,1.52,.25,.08,.52,.11,.88,.11-.44,.29-.68,.64-.86,1.02-.39-.17-.73-.43-1.08-.67,0-.17-.11-.28-.17-.42-.23-.5-.47-1.01-.14-1.56h0Z" fill="#ffe5be"/>
      <path d="M52.59,76.93c-.39,.22-.63,.48-.87,.73-.08-.02-.16-.01-.22-.05-.6-.43-.97-1.38-.7-2.07,.32,.77,.86,1.27,1.79,1.39Z" fill="#ffe5be"/>
      <path d="M60.59,90.27s.05,.05,.07,.07c-.03,.04-.09,.07-.12,.03-.04-.05,.05-.1,.05-.1h0Z" fill="#ffe5be"/>
      <path d="M58.36,87.07s-.05,.04-.05,.04c-.05-.03,0-.09,0-.09,.02,.02,.03,.03,.05,.05Z" fill="#ffe5be"/>
      <polygon points="54.66 80.32 54.67 80.34 54.64 80.33 54.66 80.32" fill="#ffe5be"/>
      <path d="M69.9,91.96c10.93-8.58,21.97-17,33.12-25.28-10.93,8.58-21.97,17.01-33.12,25.28Z" fill="#ebb67a"/>
      <path d="M105.04,64.06c.06-.14,.18-.19,.36-.23-.11,.13-.23,.2-.36,.23h0Z" fill="#ebb67a"/>
      <path d="M103.13,66.51c.05-.04,.09-.09,.13-.09,.07-.02,.09,.04,.06,.09-.02,.04-.07,.06-.11,.08-.01,0-.07-.08-.07-.08h0Z" fill="#ebb67a"/>
      <path d="M103.66,66.17h0c0,.09-.03,.18-.13,.2-.04,0-.06-.03-.06-.07,.02-.11,.11-.14,.2-.14h0Z" fill="#ebb67a"/>
      <path d="M103.67,66.16c.03-.06,.07-.14,.16-.12,0,0,.03,.04,.03,.05-.04,.1-.12,.07-.19,.07h0Z" fill="#ebb67a"/>
      <path d="M69.34,92.41c.01-.08,.03-.14,.13-.14,0,0,.04,.04,.04,.04-.02,.09-.1,.1-.17,.1h0Z" fill="#ebb67a"/>
      <path d="M69.66,92.12s.02-.06,.03-.06c0,0,.04,.01,.06,.01,0,.03-.02,.05-.03,.08-.01-.01-.05-.03-.05-.03h0Z" fill="#ebb67a"/>
      <path d="M104.33,65.66s0-.02,0-.02h.03s-.02,.03-.02,.04c0,0-.02-.02-.02-.02h0Z" fill="#ebb67a"/>
      <path d="M104.13,65.85s-.05,.04-.08,.06c-.01-.01-.02-.03-.02-.03,.03-.01,.1-.03,.1-.03h0Z" fill="#ebb67a"/>
      <path d="M104.13,65.85s0-.03,0-.03h.02s-.03,.03-.03,.03h0Z" fill="#ebb67a"/>
      <path d="M76.13,77.17c-.05-.05,0-.09,.03-.12,.58-.47,.84-1.08,.75-1.84-.02-.17,.03-.18,.19-.17,1.45,.13,2.48-1.07,2.13-2.52-.07-.29,.03-.28,.24-.3,1.27-.1,2.09-1.35,1.69-2.59-.07-.24-.02-.3,.19-.37,1.44-.47,1.88-2.11,.88-3.26-.18-.2-.14-.27,.04-.43,1.02-.86,.93-2.45-.18-3.19-.2-.14-.27-.21-.1-.45,.79-1.15,.24-2.69-1.09-3.06-.23-.06-.24-.12-.18-.32,.22-.74,.1-1.41-.43-1.98-.67-.73-1.54-.81-2.6-.26-.02-.02-.03-.03-.05-.05,.02-.08,.05-.15,.08-.22,.36-.91,.08-1.9-.69-2.44-.79-.55-1.79-.45-2.51,.25-.06,.06-.09,.16-.2,.14,.09-1.23-.48-2.14-1.49-2.36-1.09-.24-1.96,.32-2.39,1.54-.25-1.05-.86-1.71-1.95-1.76-.94-.05-1.55,.49-2.01,1.68-.51-.87-1.23-1.33-2.23-1.09-1.08,.25-1.52,1.05-1.56,2.16-.33-.35-.67-.61-1.11-.7,0-.17,.15-.2,.25-.26,.57-.36,1.14-.72,1.72-1.07,4.37-2.69,8.78-5.31,13.19-7.92,.27-.16,.44-.13,.65,.1,1.15,1.24,2.32,2.47,3.48,3.7,1.38,1.46,2.75,2.91,4.13,4.36,2.14,2.26,4.27,4.51,6.41,6.76,1.48,1.56,2.96,3.13,4.45,4.68,.21,.22,.16,.31-.06,.45-.92,.6-1.83,1.2-2.75,1.81-5.18,3.42-10.35,6.84-15.53,10.26-.46,.3-.88,.66-1.4,.85h0Z" fill="#ffe5be"/>
      <path d="M80.81,67.25c-.52,0-.94-.34-.94-.8,0-.47,.4-.83,.92-.83s.91,.35,.91,.83c0,.44-.37,.79-.89,.79h0Z" fill="#d57328"/>
      <path d="M69.33,79.31c0-.41,.39-.79,.85-.8,.5-.02,.98,.37,.98,.81,0,.46-.38,.81-.92,.82-.5,.01-.91-.36-.91-.83Z" fill="#d57328"/>
      <path d="M61.16,55.28c-.56,0-.97-.34-.97-.81,0-.38,.46-.83,.87-.81,.52,.03,.98,.26,.96,.85-.02,.43-.39,.77-.87,.77h0Z" fill="#d57328"/>
      <path d="M71.55,76.92c0-.41,.45-.82,.91-.82,.53-.01,.92,.36,.92,.86,0,.43-.4,.77-.88,.77-.52,0-.95-.36-.95-.81Z" fill="#d57328"/>
      <path d="M79.78,57.03c0,.41-.45,.81-.91,.81-.54,0-.92-.37-.92-.87,0-.42,.41-.76,.89-.76,.51,0,.94,.38,.94,.82Z" fill="#d57328"/>
      <path d="M55.44,59.78c-.37-.08-.63-.29-.72-.66-.07-.31,.09-.55,.32-.73,.19-.16,.44-.16,.68-.16,.47,.02,.88,.4,.87,.8,0,.41-.41,.75-.89,.75-.08,0-.17,.02-.26,0Z" fill="#d57328"/>
      <path d="M72.38,53.43c-.6,0-.91-.28-.91-.79,0-.5,.32-.77,.89-.77,.52,0,.94,.34,.94,.76,0,.49-.34,.79-.92,.79h0Z" fill="#d57328"/>
      <path d="M58.36,57.07c-.53,0-.92-.33-.93-.8,0-.54,.4-.78,.92-.82,.43-.04,.91,.42,.92,.82,.01,.44-.39,.8-.9,.8h-.01Z" fill="#d57328"/>
      <path d="M79.31,68.56c.56-.09,.94,.4,.94,.78,0,.44-.42,.77-.96,.77s-.87-.29-.87-.79,.3-.76,.88-.76h0Z" fill="#d57328"/>
      <path d="M75.01,75.31c-.61,.01-.94-.25-.94-.75,0-.51,.3-.8,.86-.8s.96,.32,.97,.76c0,.43-.39,.8-.89,.8h0Z" fill="#d57328"/>
      <path d="M68.5,53.25c-.55,0-.97-.32-.99-.79-.02-.37,.4-.76,.84-.76,.64,0,.98,.25,.99,.75,.01,.52-.28,.81-.84,.81h0Z" fill="#d57328"/>
      <path d="M67.28,82.42c0-.51,.3-.81,.85-.81s.97,.33,.98,.8c0,.39-.42,.76-.89,.76-.6,0-.94-.26-.94-.75Z" fill="#d57328"/>
      <path d="M74.98,54.36c0-.47,.34-.78,.89-.78,.58-.01,.94,.28,.94,.76s-.33,.79-.87,.79c-.53,0-.96-.33-.96-.77Z" fill="#d57328"/>
      <path d="M77.36,72.91c-.6,0-.93-.26-.93-.76,0-.45,.37-.79,.88-.79s.95,.35,.95,.79c0,.48-.35,.77-.9,.77h0Z" fill="#d57328"/>
      <path d="M80.42,60.64c-.6,0-.93-.26-.93-.76,0-.51,.31-.8,.86-.8s.97,.34,.97,.81c0,.39-.43,.75-.9,.75h0Z" fill="#d57328"/>
      <path d="M53.68,61.49c.52,0,.93,.35,.93,.79,0,.42-.42,.76-.92,.76s-.91-.32-.91-.76c-.01-.51,.31-.79,.9-.79h0Z" fill="#d57328"/>
      <path d="M81.03,63.89c-.54,0-.93-.32-.93-.79,0-.43,.39-.76,.91-.76s.92,.33,.92,.8c.01,.48-.33,.76-.9,.76h0Z" fill="#d57328"/>
      <path d="M66.76,86.5c-.55,0-.94-.31-.94-.77,0-.49,.31-.78,.87-.78s.96,.33,.96,.77c0,.43-.39,.79-.89,.79h0Z" fill="#d57328"/>
      <path d="M64.71,53.82c-.56,0-.94-.34-.94-.83s.33-.73,.89-.73c.53,0,.94,.35,.94,.79,0,.41-.41,.76-.89,.76h0Z" fill="#d57328"/>
      <path d="M66.48,88.68c.54,0,.96,.33,.96,.77,0,.43-.41,.78-.92,.78-.54,0-.92-.34-.92-.82s.31-.73,.87-.73h0Z" fill="#d57328"/>
      <path d="M74.39,78.31c.1-.27-.06-.64,.08-.81,.17-.2,.53,0,.82-.05,.29-.06,.53-.27,.83-.27-.38,.33-.77,.67-1.16,1-.16,.14-.36,.22-.58,.24,0-.03,0-.08,0-.11Z" fill="#ffe5be"/>
      <path d="M56.35,57.06c0,.36,.09,.71,.24,1.09-.4-.13-.76-.27-1.14-.22,.16-.44,.57-.62,.91-.86h-.01Z" fill="#ffe5be"/>
      <path d="M58.79,55.21c.08-.18,.24-.25,.4-.32,0,.35-.14,.45-.4,.32Z" fill="#fdc993"/>
      <path d="M54.08,61.18h0s.02,.02,.02,.02v.02s0-.04,0-.04h-.01Z" fill="#ffe5be"/>
      <path d="M77.14,56.92s-.03-.03-.05-.05c.02,0,.05-.03,.08-.03-.02,.03-.04,.08-.04,.08h0Z" fill="#ffe5be"/>
      <path d="M77.62,56.25s.03,.03,.05,.05c-.02,.02-.05,.03-.07,.04,0-.02,.03-.08,.03-.08h0Z" fill="#ffe5be"/>
      <path d="M72.99,75.87h.03s-.02,.02-.02,.02v-.03s0,.01,0,.01Z" fill="#ffe5be"/>
      <path d="M69.66,106.53c-.14,.03-.28-.02-.41-.06-.95-.32-1.9-.63-2.85-.94-.35-.11-.71-.22-1.11-.35,1.16-.87,2.27-1.7,3.38-2.53,.38,.56,.9,.9,1.64,.96-.51,.32-.81,.71-.94,1.22-.16,.6-.01,1.17,.29,1.7h0Z" fill="#693419"/>
      <path d="M69.65,106.53s.08,.09,.08,.09c-.03-.03-.05-.06-.08-.09Z" fill="#693419"/>
    </g>
    <polygon points="111.29 82.71 108.34 81.89 111.16 80.66 111.97 77.65 113.18 80.51 116.13 81.34 113.31 82.57 112.5 85.58 111.29 82.71" fill="#ffd08c"/>
    <polygon points="39.1 36.71 37.63 36.3 39.03 35.68 39.44 34.18 40.04 35.61 41.52 36.03 40.11 36.64 39.71 38.14 39.1 36.71" fill="#ffd08c"/>
  </g>
  <circle cx="264.91" cy="22.13" r="47.22" fill="url(#linear-gradient)" isolation="isolate" opacity=".07"/>
</svg>