<svg width="24" height="24" viewBox="0 0 24 24" fill="none" xmlns="http://www.w3.org/2000/svg">
<mask id="path-1-outside-1_751_3724" maskUnits="userSpaceOnUse" x="1.11133" y="-0.817108" width="21" height="25" fill="black">
<rect fill="white" x="1.11133" y="-0.817108" width="21" height="25"/>
<path d="M21.6346 10.3606C21.8674 9.9962 21.9442 9.56275 21.851 9.13989C21.7596 8.72453 21.5117 8.35675 21.1263 8.1167C21.6344 7.74995 21.9058 7.10457 21.7627 6.45484C21.606 5.7444 21.0011 5.25296 20.312 5.19624C20.5083 4.85767 20.5881 4.45018 20.4975 4.0389C20.3073 3.17439 19.4486 2.61198 18.5673 2.80567C18.5458 2.8104 18.5265 2.82029 18.5052 2.82582C18.543 2.61723 18.5399 2.40123 18.4928 2.18776C18.4001 1.76668 18.1484 1.40612 17.7842 1.17278C17.1817 0.78676 16.3776 0.825432 15.81 1.3577C15.5344 0.611073 14.7475 0.158026 13.9488 0.334276C13.5656 0.418698 13.2382 0.639479 13.0057 0.951807C12.6214 0.332401 11.927 0.0797447 11.286 0.221073C10.7997 0.328135 10.3792 0.645526 10.1543 1.15853C9.77578 0.76201 9.20948 0.562182 8.63705 0.689214C8.02636 0.823885 7.57889 1.29128 7.42739 1.85748C7.00936 1.4956 6.5025 1.3869 6.02067 1.49321C5.14856 1.68512 4.59534 2.55109 4.78725 3.42339C4.79667 3.46614 4.81462 3.50514 4.82728 3.54657C4.68009 3.538 4.53173 3.54217 4.38398 3.5746C3.51281 3.76642 2.95833 4.63018 3.1508 5.50454C3.19833 5.72064 3.28842 5.91981 3.41273 6.0947C3.40284 6.09671 3.39291 6.09606 3.38306 6.09826C2.96053 6.19131 2.59945 6.44392 2.36648 6.80954C2.13389 7.17446 2.05683 7.60717 2.14969 8.02839C2.28253 8.6312 2.73891 9.07646 3.29494 9.23382C2.93053 9.65054 2.81817 10.1617 2.92533 10.6475C3.09323 11.4107 3.76772 11.9199 4.50309 11.9195C4.60345 11.9195 4.70447 11.9054 4.80506 11.8864C4.73489 12.1348 4.71605 12.4009 4.77534 12.67C4.94175 13.425 5.64206 14.0162 6.52753 13.9228C6.23278 14.8098 6.73364 15.7074 7.58395 15.9714C7.24669 16.396 7.16189 16.8737 7.26145 17.3252C7.36603 17.7997 7.67025 18.1793 8.06606 18.3963C8.04539 18.4125 8.02275 18.4252 8.00273 18.4425L5.74364 20.3763C5.18962 20.8568 5.24606 21.7298 5.85666 22.132L8.13811 23.6347C8.74875 24.037 9.57291 23.745 9.79622 23.0435L10.6794 20.2093C10.7015 20.1414 10.7152 20.0722 10.7281 20.003C11.1027 20.2881 11.5817 20.404 12.0564 20.299C12.5826 20.1833 13.0366 19.8165 13.2349 19.2457C13.6422 19.6238 14.1774 19.7554 14.6858 19.6434C15.4339 19.4788 15.959 18.819 15.9554 18.0574C16.2945 18.228 16.662 18.2744 17.0285 18.1937C17.9004 18.0014 18.4538 17.1355 18.2617 16.2635C18.2435 16.1807 18.2138 16.1037 18.184 16.027C18.2974 16.0357 18.4265 16.0487 18.6603 15.9973C19.5322 15.805 20.0856 14.9391 19.8935 14.0671C19.8698 13.9596 19.8356 13.8572 19.7927 13.7602C20.846 13.7481 21.5762 12.7758 21.3599 11.7937C21.2887 11.4704 21.124 11.1917 20.9015 10.9777C21.201 10.8515 21.456 10.6399 21.6346 10.3606ZM19.1436 10.6533C18.8453 10.7799 18.5914 10.9919 18.4132 11.2715C18.1089 11.7489 18.0857 12.3167 18.2962 12.7964C18.1863 12.7975 18.075 12.8092 17.9633 12.8337C17.0275 13.04 16.4315 14.0377 16.8084 15.0051C16.652 14.9925 16.4927 14.9947 16.3315 15.0301C15.5728 15.1974 15.0567 15.8747 15.0615 16.622C14.7294 16.4543 14.3558 16.399 13.9892 16.4799C13.4685 16.5946 13.0113 16.959 12.811 17.5349C12.3982 17.1514 11.8615 17.0259 11.3595 17.1355C10.7401 17.2719 10.2505 17.7559 10.1215 18.4032C10.0835 18.3731 10.0477 18.3404 10.0071 18.3137C9.95883 18.282 9.90745 18.258 9.85697 18.2318C10.3737 17.8141 10.5501 17.1967 10.4247 16.6281C10.3065 16.0907 9.92531 15.6241 9.31861 15.4357C9.65437 15.015 9.74259 14.5371 9.64162 14.0794C9.54895 13.6581 9.29723 13.2977 8.93287 13.0644C8.61919 12.8634 8.25483 12.7858 7.89098 12.8246C7.98066 12.5522 8.00208 12.261 7.93861 11.9731C7.7565 11.1458 6.94955 10.5671 6.06033 10.7335C6.1312 10.4807 6.14677 10.2146 6.08859 9.95082C5.9558 9.34839 5.49848 8.90495 4.94306 8.74731C5.31164 8.32796 5.41941 7.81403 5.31295 7.33135C5.26542 7.1154 5.17491 6.91632 5.04998 6.7412C5.0603 6.73914 5.07061 6.74012 5.08087 6.73782C5.9625 6.54343 6.56245 5.6386 6.27539 4.68864C6.89301 4.72332 7.42959 4.42356 7.73414 3.94717C7.82526 3.80462 7.88503 3.64965 7.92755 3.49065C8.31023 3.82168 8.82047 3.96531 9.33412 3.85267C9.85884 3.73698 10.2642 3.37525 10.4651 2.91714C10.886 3.35767 11.4553 3.50059 11.9825 3.38439C12.3661 3.29996 12.6938 3.07951 12.9262 2.76817C13.3019 3.37417 13.9877 3.64262 14.6455 3.49759C14.9386 3.43309 15.1911 3.28787 15.3959 3.09653C15.6726 3.84503 16.4625 4.29414 17.2595 4.11784C17.2814 4.11301 17.301 4.10303 17.3226 4.09735C17.2844 4.30628 17.2871 4.52228 17.334 4.73556C17.4841 5.4174 18.0536 5.93926 18.7826 5.99832C18.5804 6.34932 18.5117 6.75451 18.5992 7.15131C18.6923 7.57421 18.9443 7.93548 19.3086 8.16826C19.3132 8.17117 19.3181 8.17309 19.3228 8.176C19.1591 8.29431 19.0163 8.44206 18.9044 8.6177C18.4737 9.29354 18.6117 10.141 19.1436 10.6533ZM21.2175 6.57475C21.3437 7.14756 20.9842 7.71296 20.4092 7.83957C19.8409 7.96403 19.2721 7.61064 19.1445 7.0314C19.0192 6.46192 19.3792 5.89281 19.9527 5.76657C20.5193 5.6417 21.0906 5.9986 21.2175 6.57475ZM18.6875 3.35082C19.2501 3.22623 19.8249 3.58032 19.9523 4.15881C20.0781 4.73035 19.7155 5.29792 19.1441 5.42382C18.572 5.5494 18.0052 5.1872 17.8793 4.61565C17.754 4.04617 18.114 3.47706 18.6875 3.35082ZM17.483 1.64293C17.7219 1.79593 17.8869 2.03199 17.9476 2.30771V2.3079C18.074 2.88142 17.7132 3.4464 17.1397 3.57273C16.567 3.69887 16.0005 3.33592 15.8746 2.76456C15.6704 1.8362 16.6953 1.13795 17.483 1.64293ZM14.0688 0.879479C14.6363 0.754417 15.207 1.11249 15.3338 1.68746C15.4596 2.2592 15.097 2.82671 14.5256 2.95248C13.899 3.08968 13.2712 2.64189 13.2393 1.96478C13.2466 1.89179 13.2537 1.81909 13.2509 1.74526C13.3209 1.31959 13.6393 0.974073 14.0688 0.879479ZM11.4061 0.766276C12.0232 0.629635 12.6603 1.06862 12.6926 1.7559C12.6767 1.91518 12.7037 2.10099 12.529 2.37442C12.3765 2.6132 12.1398 2.77824 11.8626 2.83928C11.2853 2.96546 10.7236 2.60214 10.5978 2.0311C10.4724 1.46176 10.8322 0.89251 11.4061 0.766276ZM8.75719 1.23442C9.3248 1.10935 9.8955 1.46748 10.0222 2.04259C10.148 2.61414 9.78539 3.1817 9.21403 3.3076C8.64122 3.43318 8.07492 3.07065 7.94901 2.49925C7.82325 1.9277 8.18583 1.36032 8.75719 1.23442ZM5.33245 3.30325C5.20669 2.7317 5.56927 2.16414 6.14062 2.03842C6.72276 1.91092 7.28194 2.2855 7.40545 2.84659V2.84678C7.46653 3.1239 7.41619 3.40815 7.26389 3.64674C6.74808 4.45398 5.53017 4.20048 5.33245 3.30325ZM4.50412 4.11976C5.09151 3.98968 5.65022 4.38845 5.76895 4.92774C5.89472 5.49929 5.53214 6.06685 4.96078 6.19276C4.38816 6.31815 3.82186 5.95614 3.69595 5.38459C3.57061 4.8151 3.93066 4.24595 4.50412 4.11976ZM2.69484 7.90829C2.63414 7.63262 2.68467 7.34893 2.83716 7.10959C3.15426 6.6122 3.80991 6.4704 4.30317 6.78667C4.54214 6.93967 4.70714 7.17573 4.76784 7.45145V7.45164C4.8937 8.02295 4.53548 8.58962 3.95967 8.71646C3.38775 8.84256 2.82075 8.47965 2.69484 7.90829ZM3.47044 10.5276C3.34505 9.95809 3.70509 9.38898 4.27861 9.26274C4.84523 9.13787 5.4165 9.49478 5.54344 10.0709V10.0711C5.66981 10.6447 5.30897 11.2094 4.73508 11.3357C4.1603 11.4614 3.59676 11.1008 3.47044 10.5276ZM5.32045 12.5497C5.1945 11.9783 5.55708 11.4109 6.12862 11.285C6.71076 11.1575 7.26994 11.5321 7.39345 12.0932V12.0934C7.52006 12.6679 7.15781 13.2321 6.58547 13.3582C6.01251 13.4834 5.44622 13.1214 5.32045 12.5497ZM7.16578 13.8576C7.31859 13.6179 7.55503 13.4523 7.83183 13.3914C8.39508 13.2667 8.9692 13.6213 9.09647 14.1994V14.1996C9.2078 14.705 8.94183 15.1951 8.49651 15.3949C7.29061 15.7562 6.6817 14.6174 7.16578 13.8576ZM7.94883 16.4064C8.18653 16.0334 8.49586 15.9873 8.6258 15.9391C9.21051 15.816 9.75806 16.1965 9.87951 16.7482V16.7484C10.0054 17.3197 9.64715 17.8864 9.07134 18.0132C8.4989 18.139 7.93242 17.7764 7.80652 17.2051C7.74586 16.9294 7.79639 16.6457 7.94883 16.4064ZM10.1474 20.0401L9.26367 22.8758C9.15342 23.2218 8.74598 23.3673 8.44514 23.1684L6.16369 21.6656C5.8598 21.4656 5.83791 21.0334 6.10809 20.7992L8.367 18.8656C8.73525 18.5466 9.28251 18.5054 9.69998 18.7802C10.1051 19.0468 10.3032 19.5587 10.1474 20.0401ZM11.9364 19.7538C11.3636 19.8798 10.7973 19.517 10.6714 18.9457C10.546 18.3763 10.9058 17.8071 11.4797 17.6808C12.0522 17.5541 12.619 17.9195 12.7444 18.4888V18.489C12.8707 19.0625 12.5099 19.6275 11.9364 19.7538ZM14.5658 19.0982C13.9937 19.2235 13.4269 18.8615 13.301 18.29C13.1757 17.7206 13.5355 17.1514 14.1094 17.0252C14.6764 16.8996 15.2475 17.2585 15.374 17.8331C15.5002 18.4067 15.1397 18.9717 14.5658 19.0982ZM16.9083 17.6485C16.3364 17.7743 15.7692 17.4117 15.6435 16.8403C15.5175 16.2688 15.8801 15.7012 16.4517 15.5753C17.0183 15.4504 17.5896 15.8073 17.7165 16.3835C17.8423 16.955 17.4797 17.5225 16.9083 17.6485ZM17.7399 15.3103C16.9474 14.8033 17.1637 13.5815 18.0834 13.3789C18.65 13.254 19.2213 13.6109 19.3482 14.1871C19.5505 15.1063 18.5327 15.8173 17.7399 15.3103ZM20.6729 12.7138C20.3539 13.213 19.6939 13.3484 19.2063 13.0367C18.7209 12.7265 18.5634 12.0747 18.8839 11.5716C19.0872 11.2527 19.4284 11.0806 19.7782 11.0806C20.2654 11.0806 20.7056 11.4188 20.8146 11.9136C20.8757 12.1909 20.8253 12.4752 20.6729 12.7138ZM21.1641 10.0599C20.8495 10.5523 20.1925 10.6994 19.6977 10.3829C19.2134 10.0734 19.054 9.42193 19.3751 8.91774C19.5761 8.6026 19.9153 8.42654 20.2703 8.42654C20.7468 8.42654 21.1951 8.75668 21.3059 9.25979V9.25998C21.3669 9.5371 21.3166 9.82117 21.1641 10.0599Z"/>
</mask>
<path d="M21.6346 10.3606C21.8674 9.9962 21.9442 9.56275 21.851 9.13989C21.7596 8.72453 21.5117 8.35675 21.1263 8.1167C21.6344 7.74995 21.9058 7.10457 21.7627 6.45484C21.606 5.7444 21.0011 5.25296 20.312 5.19624C20.5083 4.85767 20.5881 4.45018 20.4975 4.0389C20.3073 3.17439 19.4486 2.61198 18.5673 2.80567C18.5458 2.8104 18.5265 2.82029 18.5052 2.82582C18.543 2.61723 18.5399 2.40123 18.4928 2.18776C18.4001 1.76668 18.1484 1.40612 17.7842 1.17278C17.1817 0.78676 16.3776 0.825432 15.81 1.3577C15.5344 0.611073 14.7475 0.158026 13.9488 0.334276C13.5656 0.418698 13.2382 0.639479 13.0057 0.951807C12.6214 0.332401 11.927 0.0797447 11.286 0.221073C10.7997 0.328135 10.3792 0.645526 10.1543 1.15853C9.77578 0.76201 9.20948 0.562182 8.63705 0.689214C8.02636 0.823885 7.57889 1.29128 7.42739 1.85748C7.00936 1.4956 6.5025 1.3869 6.02067 1.49321C5.14856 1.68512 4.59534 2.55109 4.78725 3.42339C4.79667 3.46614 4.81462 3.50514 4.82728 3.54657C4.68009 3.538 4.53173 3.54217 4.38398 3.5746C3.51281 3.76642 2.95833 4.63018 3.1508 5.50454C3.19833 5.72064 3.28842 5.91981 3.41273 6.0947C3.40284 6.09671 3.39291 6.09606 3.38306 6.09826C2.96053 6.19131 2.59945 6.44392 2.36648 6.80954C2.13389 7.17446 2.05683 7.60717 2.14969 8.02839C2.28253 8.6312 2.73891 9.07646 3.29494 9.23382C2.93053 9.65054 2.81817 10.1617 2.92533 10.6475C3.09323 11.4107 3.76772 11.9199 4.50309 11.9195C4.60345 11.9195 4.70447 11.9054 4.80506 11.8864C4.73489 12.1348 4.71605 12.4009 4.77534 12.67C4.94175 13.425 5.64206 14.0162 6.52753 13.9228C6.23278 14.8098 6.73364 15.7074 7.58395 15.9714C7.24669 16.396 7.16189 16.8737 7.26145 17.3252C7.36603 17.7997 7.67025 18.1793 8.06606 18.3963C8.04539 18.4125 8.02275 18.4252 8.00273 18.4425L5.74364 20.3763C5.18962 20.8568 5.24606 21.7298 5.85666 22.132L8.13811 23.6347C8.74875 24.037 9.57291 23.745 9.79622 23.0435L10.6794 20.2093C10.7015 20.1414 10.7152 20.0722 10.7281 20.003C11.1027 20.2881 11.5817 20.404 12.0564 20.299C12.5826 20.1833 13.0366 19.8165 13.2349 19.2457C13.6422 19.6238 14.1774 19.7554 14.6858 19.6434C15.4339 19.4788 15.959 18.819 15.9554 18.0574C16.2945 18.228 16.662 18.2744 17.0285 18.1937C17.9004 18.0014 18.4538 17.1355 18.2617 16.2635C18.2435 16.1807 18.2138 16.1037 18.184 16.027C18.2974 16.0357 18.4265 16.0487 18.6603 15.9973C19.5322 15.805 20.0856 14.9391 19.8935 14.0671C19.8698 13.9596 19.8356 13.8572 19.7927 13.7602C20.846 13.7481 21.5762 12.7758 21.3599 11.7937C21.2887 11.4704 21.124 11.1917 20.9015 10.9777C21.201 10.8515 21.456 10.6399 21.6346 10.3606ZM19.1436 10.6533C18.8453 10.7799 18.5914 10.9919 18.4132 11.2715C18.1089 11.7489 18.0857 12.3167 18.2962 12.7964C18.1863 12.7975 18.075 12.8092 17.9633 12.8337C17.0275 13.04 16.4315 14.0377 16.8084 15.0051C16.652 14.9925 16.4927 14.9947 16.3315 15.0301C15.5728 15.1974 15.0567 15.8747 15.0615 16.622C14.7294 16.4543 14.3558 16.399 13.9892 16.4799C13.4685 16.5946 13.0113 16.959 12.811 17.5349C12.3982 17.1514 11.8615 17.0259 11.3595 17.1355C10.7401 17.2719 10.2505 17.7559 10.1215 18.4032C10.0835 18.3731 10.0477 18.3404 10.0071 18.3137C9.95883 18.282 9.90745 18.258 9.85697 18.2318C10.3737 17.8141 10.5501 17.1967 10.4247 16.6281C10.3065 16.0907 9.92531 15.6241 9.31861 15.4357C9.65437 15.015 9.74259 14.5371 9.64162 14.0794C9.54895 13.6581 9.29723 13.2977 8.93287 13.0644C8.61919 12.8634 8.25483 12.7858 7.89098 12.8246C7.98066 12.5522 8.00208 12.261 7.93861 11.9731C7.7565 11.1458 6.94955 10.5671 6.06033 10.7335C6.1312 10.4807 6.14677 10.2146 6.08859 9.95082C5.9558 9.34839 5.49848 8.90495 4.94306 8.74731C5.31164 8.32796 5.41941 7.81403 5.31295 7.33135C5.26542 7.1154 5.17491 6.91632 5.04998 6.7412C5.0603 6.73914 5.07061 6.74012 5.08087 6.73782C5.9625 6.54343 6.56245 5.6386 6.27539 4.68864C6.89301 4.72332 7.42959 4.42356 7.73414 3.94717C7.82526 3.80462 7.88503 3.64965 7.92755 3.49065C8.31023 3.82168 8.82047 3.96531 9.33412 3.85267C9.85884 3.73698 10.2642 3.37525 10.4651 2.91714C10.886 3.35767 11.4553 3.50059 11.9825 3.38439C12.3661 3.29996 12.6938 3.07951 12.9262 2.76817C13.3019 3.37417 13.9877 3.64262 14.6455 3.49759C14.9386 3.43309 15.1911 3.28787 15.3959 3.09653C15.6726 3.84503 16.4625 4.29414 17.2595 4.11784C17.2814 4.11301 17.301 4.10303 17.3226 4.09735C17.2844 4.30628 17.2871 4.52228 17.334 4.73556C17.4841 5.4174 18.0536 5.93926 18.7826 5.99832C18.5804 6.34932 18.5117 6.75451 18.5992 7.15131C18.6923 7.57421 18.9443 7.93548 19.3086 8.16826C19.3132 8.17117 19.3181 8.17309 19.3228 8.176C19.1591 8.29431 19.0163 8.44206 18.9044 8.6177C18.4737 9.29354 18.6117 10.141 19.1436 10.6533ZM21.2175 6.57475C21.3437 7.14756 20.9842 7.71296 20.4092 7.83957C19.8409 7.96403 19.2721 7.61064 19.1445 7.0314C19.0192 6.46192 19.3792 5.89281 19.9527 5.76657C20.5193 5.6417 21.0906 5.9986 21.2175 6.57475ZM18.6875 3.35082C19.2501 3.22623 19.8249 3.58032 19.9523 4.15881C20.0781 4.73035 19.7155 5.29792 19.1441 5.42382C18.572 5.5494 18.0052 5.1872 17.8793 4.61565C17.754 4.04617 18.114 3.47706 18.6875 3.35082ZM17.483 1.64293C17.7219 1.79593 17.8869 2.03199 17.9476 2.30771V2.3079C18.074 2.88142 17.7132 3.4464 17.1397 3.57273C16.567 3.69887 16.0005 3.33592 15.8746 2.76456C15.6704 1.8362 16.6953 1.13795 17.483 1.64293ZM14.0688 0.879479C14.6363 0.754417 15.207 1.11249 15.3338 1.68746C15.4596 2.2592 15.097 2.82671 14.5256 2.95248C13.899 3.08968 13.2712 2.64189 13.2393 1.96478C13.2466 1.89179 13.2537 1.81909 13.2509 1.74526C13.3209 1.31959 13.6393 0.974073 14.0688 0.879479ZM11.4061 0.766276C12.0232 0.629635 12.6603 1.06862 12.6926 1.7559C12.6767 1.91518 12.7037 2.10099 12.529 2.37442C12.3765 2.6132 12.1398 2.77824 11.8626 2.83928C11.2853 2.96546 10.7236 2.60214 10.5978 2.0311C10.4724 1.46176 10.8322 0.89251 11.4061 0.766276ZM8.75719 1.23442C9.3248 1.10935 9.8955 1.46748 10.0222 2.04259C10.148 2.61414 9.78539 3.1817 9.21403 3.3076C8.64122 3.43318 8.07492 3.07065 7.94901 2.49925C7.82325 1.9277 8.18583 1.36032 8.75719 1.23442ZM5.33245 3.30325C5.20669 2.7317 5.56927 2.16414 6.14062 2.03842C6.72276 1.91092 7.28194 2.2855 7.40545 2.84659V2.84678C7.46653 3.1239 7.41619 3.40815 7.26389 3.64674C6.74808 4.45398 5.53017 4.20048 5.33245 3.30325ZM4.50412 4.11976C5.09151 3.98968 5.65022 4.38845 5.76895 4.92774C5.89472 5.49929 5.53214 6.06685 4.96078 6.19276C4.38816 6.31815 3.82186 5.95614 3.69595 5.38459C3.57061 4.8151 3.93066 4.24595 4.50412 4.11976ZM2.69484 7.90829C2.63414 7.63262 2.68467 7.34893 2.83716 7.10959C3.15426 6.6122 3.80991 6.4704 4.30317 6.78667C4.54214 6.93967 4.70714 7.17573 4.76784 7.45145V7.45164C4.8937 8.02295 4.53548 8.58962 3.95967 8.71646C3.38775 8.84256 2.82075 8.47965 2.69484 7.90829ZM3.47044 10.5276C3.34505 9.95809 3.70509 9.38898 4.27861 9.26274C4.84523 9.13787 5.4165 9.49478 5.54344 10.0709V10.0711C5.66981 10.6447 5.30897 11.2094 4.73508 11.3357C4.1603 11.4614 3.59676 11.1008 3.47044 10.5276ZM5.32045 12.5497C5.1945 11.9783 5.55708 11.4109 6.12862 11.285C6.71076 11.1575 7.26994 11.5321 7.39345 12.0932V12.0934C7.52006 12.6679 7.15781 13.2321 6.58547 13.3582C6.01251 13.4834 5.44622 13.1214 5.32045 12.5497ZM7.16578 13.8576C7.31859 13.6179 7.55503 13.4523 7.83183 13.3914C8.39508 13.2667 8.9692 13.6213 9.09647 14.1994V14.1996C9.2078 14.705 8.94183 15.1951 8.49651 15.3949C7.29061 15.7562 6.6817 14.6174 7.16578 13.8576ZM7.94883 16.4064C8.18653 16.0334 8.49586 15.9873 8.6258 15.9391C9.21051 15.816 9.75806 16.1965 9.87951 16.7482V16.7484C10.0054 17.3197 9.64715 17.8864 9.07134 18.0132C8.4989 18.139 7.93242 17.7764 7.80652 17.2051C7.74586 16.9294 7.79639 16.6457 7.94883 16.4064ZM10.1474 20.0401L9.26367 22.8758C9.15342 23.2218 8.74598 23.3673 8.44514 23.1684L6.16369 21.6656C5.8598 21.4656 5.83791 21.0334 6.10809 20.7992L8.367 18.8656C8.73525 18.5466 9.28251 18.5054 9.69998 18.7802C10.1051 19.0468 10.3032 19.5587 10.1474 20.0401ZM11.9364 19.7538C11.3636 19.8798 10.7973 19.517 10.6714 18.9457C10.546 18.3763 10.9058 17.8071 11.4797 17.6808C12.0522 17.5541 12.619 17.9195 12.7444 18.4888V18.489C12.8707 19.0625 12.5099 19.6275 11.9364 19.7538ZM14.5658 19.0982C13.9937 19.2235 13.4269 18.8615 13.301 18.29C13.1757 17.7206 13.5355 17.1514 14.1094 17.0252C14.6764 16.8996 15.2475 17.2585 15.374 17.8331C15.5002 18.4067 15.1397 18.9717 14.5658 19.0982ZM16.9083 17.6485C16.3364 17.7743 15.7692 17.4117 15.6435 16.8403C15.5175 16.2688 15.8801 15.7012 16.4517 15.5753C17.0183 15.4504 17.5896 15.8073 17.7165 16.3835C17.8423 16.955 17.4797 17.5225 16.9083 17.6485ZM17.7399 15.3103C16.9474 14.8033 17.1637 13.5815 18.0834 13.3789C18.65 13.254 19.2213 13.6109 19.3482 14.1871C19.5505 15.1063 18.5327 15.8173 17.7399 15.3103ZM20.6729 12.7138C20.3539 13.213 19.6939 13.3484 19.2063 13.0367C18.7209 12.7265 18.5634 12.0747 18.8839 11.5716C19.0872 11.2527 19.4284 11.0806 19.7782 11.0806C20.2654 11.0806 20.7056 11.4188 20.8146 11.9136C20.8757 12.1909 20.8253 12.4752 20.6729 12.7138ZM21.1641 10.0599C20.8495 10.5523 20.1925 10.6994 19.6977 10.3829C19.2134 10.0734 19.054 9.42193 19.3751 8.91774C19.5761 8.6026 19.9153 8.42654 20.2703 8.42654C20.7468 8.42654 21.1951 8.75668 21.3059 9.25979V9.25998C21.3669 9.5371 21.3166 9.82117 21.1641 10.0599Z" fill="#17689C"/>
<path d="M21.6346 10.3606C21.8674 9.9962 21.9442 9.56275 21.851 9.13989C21.7596 8.72453 21.5117 8.35675 21.1263 8.1167C21.6344 7.74995 21.9058 7.10457 21.7627 6.45484C21.606 5.7444 21.0011 5.25296 20.312 5.19624C20.5083 4.85767 20.5881 4.45018 20.4975 4.0389C20.3073 3.17439 19.4486 2.61198 18.5673 2.80567C18.5458 2.8104 18.5265 2.82029 18.5052 2.82582C18.543 2.61723 18.5399 2.40123 18.4928 2.18776C18.4001 1.76668 18.1484 1.40612 17.7842 1.17278C17.1817 0.78676 16.3776 0.825432 15.81 1.3577C15.5344 0.611073 14.7475 0.158026 13.9488 0.334276C13.5656 0.418698 13.2382 0.639479 13.0057 0.951807C12.6214 0.332401 11.927 0.0797447 11.286 0.221073C10.7997 0.328135 10.3792 0.645526 10.1543 1.15853C9.77578 0.76201 9.20948 0.562182 8.63705 0.689214C8.02636 0.823885 7.57889 1.29128 7.42739 1.85748C7.00936 1.4956 6.5025 1.3869 6.02067 1.49321C5.14856 1.68512 4.59534 2.55109 4.78725 3.42339C4.79667 3.46614 4.81462 3.50514 4.82728 3.54657C4.68009 3.538 4.53173 3.54217 4.38398 3.5746C3.51281 3.76642 2.95833 4.63018 3.1508 5.50454C3.19833 5.72064 3.28842 5.91981 3.41273 6.0947C3.40284 6.09671 3.39291 6.09606 3.38306 6.09826C2.96053 6.19131 2.59945 6.44392 2.36648 6.80954C2.13389 7.17446 2.05683 7.60717 2.14969 8.02839C2.28253 8.6312 2.73891 9.07646 3.29494 9.23382C2.93053 9.65054 2.81817 10.1617 2.92533 10.6475C3.09323 11.4107 3.76772 11.9199 4.50309 11.9195C4.60345 11.9195 4.70447 11.9054 4.80506 11.8864C4.73489 12.1348 4.71605 12.4009 4.77534 12.67C4.94175 13.425 5.64206 14.0162 6.52753 13.9228C6.23278 14.8098 6.73364 15.7074 7.58395 15.9714C7.24669 16.396 7.16189 16.8737 7.26145 17.3252C7.36603 17.7997 7.67025 18.1793 8.06606 18.3963C8.04539 18.4125 8.02275 18.4252 8.00273 18.4425L5.74364 20.3763C5.18962 20.8568 5.24606 21.7298 5.85666 22.132L8.13811 23.6347C8.74875 24.037 9.57291 23.745 9.79622 23.0435L10.6794 20.2093C10.7015 20.1414 10.7152 20.0722 10.7281 20.003C11.1027 20.2881 11.5817 20.404 12.0564 20.299C12.5826 20.1833 13.0366 19.8165 13.2349 19.2457C13.6422 19.6238 14.1774 19.7554 14.6858 19.6434C15.4339 19.4788 15.959 18.819 15.9554 18.0574C16.2945 18.228 16.662 18.2744 17.0285 18.1937C17.9004 18.0014 18.4538 17.1355 18.2617 16.2635C18.2435 16.1807 18.2138 16.1037 18.184 16.027C18.2974 16.0357 18.4265 16.0487 18.6603 15.9973C19.5322 15.805 20.0856 14.9391 19.8935 14.0671C19.8698 13.9596 19.8356 13.8572 19.7927 13.7602C20.846 13.7481 21.5762 12.7758 21.3599 11.7937C21.2887 11.4704 21.124 11.1917 20.9015 10.9777C21.201 10.8515 21.456 10.6399 21.6346 10.3606ZM19.1436 10.6533C18.8453 10.7799 18.5914 10.9919 18.4132 11.2715C18.1089 11.7489 18.0857 12.3167 18.2962 12.7964C18.1863 12.7975 18.075 12.8092 17.9633 12.8337C17.0275 13.04 16.4315 14.0377 16.8084 15.0051C16.652 14.9925 16.4927 14.9947 16.3315 15.0301C15.5728 15.1974 15.0567 15.8747 15.0615 16.622C14.7294 16.4543 14.3558 16.399 13.9892 16.4799C13.4685 16.5946 13.0113 16.959 12.811 17.5349C12.3982 17.1514 11.8615 17.0259 11.3595 17.1355C10.7401 17.2719 10.2505 17.7559 10.1215 18.4032C10.0835 18.3731 10.0477 18.3404 10.0071 18.3137C9.95883 18.282 9.90745 18.258 9.85697 18.2318C10.3737 17.8141 10.5501 17.1967 10.4247 16.6281C10.3065 16.0907 9.92531 15.6241 9.31861 15.4357C9.65437 15.015 9.74259 14.5371 9.64162 14.0794C9.54895 13.6581 9.29723 13.2977 8.93287 13.0644C8.61919 12.8634 8.25483 12.7858 7.89098 12.8246C7.98066 12.5522 8.00208 12.261 7.93861 11.9731C7.7565 11.1458 6.94955 10.5671 6.06033 10.7335C6.1312 10.4807 6.14677 10.2146 6.08859 9.95082C5.9558 9.34839 5.49848 8.90495 4.94306 8.74731C5.31164 8.32796 5.41941 7.81403 5.31295 7.33135C5.26542 7.1154 5.17491 6.91632 5.04998 6.7412C5.0603 6.73914 5.07061 6.74012 5.08087 6.73782C5.9625 6.54343 6.56245 5.6386 6.27539 4.68864C6.89301 4.72332 7.42959 4.42356 7.73414 3.94717C7.82526 3.80462 7.88503 3.64965 7.92755 3.49065C8.31023 3.82168 8.82047 3.96531 9.33412 3.85267C9.85884 3.73698 10.2642 3.37525 10.4651 2.91714C10.886 3.35767 11.4553 3.50059 11.9825 3.38439C12.3661 3.29996 12.6938 3.07951 12.9262 2.76817C13.3019 3.37417 13.9877 3.64262 14.6455 3.49759C14.9386 3.43309 15.1911 3.28787 15.3959 3.09653C15.6726 3.84503 16.4625 4.29414 17.2595 4.11784C17.2814 4.11301 17.301 4.10303 17.3226 4.09735C17.2844 4.30628 17.2871 4.52228 17.334 4.73556C17.4841 5.4174 18.0536 5.93926 18.7826 5.99832C18.5804 6.34932 18.5117 6.75451 18.5992 7.15131C18.6923 7.57421 18.9443 7.93548 19.3086 8.16826C19.3132 8.17117 19.3181 8.17309 19.3228 8.176C19.1591 8.29431 19.0163 8.44206 18.9044 8.6177C18.4737 9.29354 18.6117 10.141 19.1436 10.6533ZM21.2175 6.57475C21.3437 7.14756 20.9842 7.71296 20.4092 7.83957C19.8409 7.96403 19.2721 7.61064 19.1445 7.0314C19.0192 6.46192 19.3792 5.89281 19.9527 5.76657C20.5193 5.6417 21.0906 5.9986 21.2175 6.57475ZM18.6875 3.35082C19.2501 3.22623 19.8249 3.58032 19.9523 4.15881C20.0781 4.73035 19.7155 5.29792 19.1441 5.42382C18.572 5.5494 18.0052 5.1872 17.8793 4.61565C17.754 4.04617 18.114 3.47706 18.6875 3.35082ZM17.483 1.64293C17.7219 1.79593 17.8869 2.03199 17.9476 2.30771V2.3079C18.074 2.88142 17.7132 3.4464 17.1397 3.57273C16.567 3.69887 16.0005 3.33592 15.8746 2.76456C15.6704 1.8362 16.6953 1.13795 17.483 1.64293ZM14.0688 0.879479C14.6363 0.754417 15.207 1.11249 15.3338 1.68746C15.4596 2.2592 15.097 2.82671 14.5256 2.95248C13.899 3.08968 13.2712 2.64189 13.2393 1.96478C13.2466 1.89179 13.2537 1.81909 13.2509 1.74526C13.3209 1.31959 13.6393 0.974073 14.0688 0.879479ZM11.4061 0.766276C12.0232 0.629635 12.6603 1.06862 12.6926 1.7559C12.6767 1.91518 12.7037 2.10099 12.529 2.37442C12.3765 2.6132 12.1398 2.77824 11.8626 2.83928C11.2853 2.96546 10.7236 2.60214 10.5978 2.0311C10.4724 1.46176 10.8322 0.89251 11.4061 0.766276ZM8.75719 1.23442C9.3248 1.10935 9.8955 1.46748 10.0222 2.04259C10.148 2.61414 9.78539 3.1817 9.21403 3.3076C8.64122 3.43318 8.07492 3.07065 7.94901 2.49925C7.82325 1.9277 8.18583 1.36032 8.75719 1.23442ZM5.33245 3.30325C5.20669 2.7317 5.56927 2.16414 6.14062 2.03842C6.72276 1.91092 7.28194 2.2855 7.40545 2.84659V2.84678C7.46653 3.1239 7.41619 3.40815 7.26389 3.64674C6.74808 4.45398 5.53017 4.20048 5.33245 3.30325ZM4.50412 4.11976C5.09151 3.98968 5.65022 4.38845 5.76895 4.92774C5.89472 5.49929 5.53214 6.06685 4.96078 6.19276C4.38816 6.31815 3.82186 5.95614 3.69595 5.38459C3.57061 4.8151 3.93066 4.24595 4.50412 4.11976ZM2.69484 7.90829C2.63414 7.63262 2.68467 7.34893 2.83716 7.10959C3.15426 6.6122 3.80991 6.4704 4.30317 6.78667C4.54214 6.93967 4.70714 7.17573 4.76784 7.45145V7.45164C4.8937 8.02295 4.53548 8.58962 3.95967 8.71646C3.38775 8.84256 2.82075 8.47965 2.69484 7.90829ZM3.47044 10.5276C3.34505 9.95809 3.70509 9.38898 4.27861 9.26274C4.84523 9.13787 5.4165 9.49478 5.54344 10.0709V10.0711C5.66981 10.6447 5.30897 11.2094 4.73508 11.3357C4.1603 11.4614 3.59676 11.1008 3.47044 10.5276ZM5.32045 12.5497C5.1945 11.9783 5.55708 11.4109 6.12862 11.285C6.71076 11.1575 7.26994 11.5321 7.39345 12.0932V12.0934C7.52006 12.6679 7.15781 13.2321 6.58547 13.3582C6.01251 13.4834 5.44622 13.1214 5.32045 12.5497ZM7.16578 13.8576C7.31859 13.6179 7.55503 13.4523 7.83183 13.3914C8.39508 13.2667 8.9692 13.6213 9.09647 14.1994V14.1996C9.2078 14.705 8.94183 15.1951 8.49651 15.3949C7.29061 15.7562 6.6817 14.6174 7.16578 13.8576ZM7.94883 16.4064C8.18653 16.0334 8.49586 15.9873 8.6258 15.9391C9.21051 15.816 9.75806 16.1965 9.87951 16.7482V16.7484C10.0054 17.3197 9.64715 17.8864 9.07134 18.0132C8.4989 18.139 7.93242 17.7764 7.80652 17.2051C7.74586 16.9294 7.79639 16.6457 7.94883 16.4064ZM10.1474 20.0401L9.26367 22.8758C9.15342 23.2218 8.74598 23.3673 8.44514 23.1684L6.16369 21.6656C5.8598 21.4656 5.83791 21.0334 6.10809 20.7992L8.367 18.8656C8.73525 18.5466 9.28251 18.5054 9.69998 18.7802C10.1051 19.0468 10.3032 19.5587 10.1474 20.0401ZM11.9364 19.7538C11.3636 19.8798 10.7973 19.517 10.6714 18.9457C10.546 18.3763 10.9058 17.8071 11.4797 17.6808C12.0522 17.5541 12.619 17.9195 12.7444 18.4888V18.489C12.8707 19.0625 12.5099 19.6275 11.9364 19.7538ZM14.5658 19.0982C13.9937 19.2235 13.4269 18.8615 13.301 18.29C13.1757 17.7206 13.5355 17.1514 14.1094 17.0252C14.6764 16.8996 15.2475 17.2585 15.374 17.8331C15.5002 18.4067 15.1397 18.9717 14.5658 19.0982ZM16.9083 17.6485C16.3364 17.7743 15.7692 17.4117 15.6435 16.8403C15.5175 16.2688 15.8801 15.7012 16.4517 15.5753C17.0183 15.4504 17.5896 15.8073 17.7165 16.3835C17.8423 16.955 17.4797 17.5225 16.9083 17.6485ZM17.7399 15.3103C16.9474 14.8033 17.1637 13.5815 18.0834 13.3789C18.65 13.254 19.2213 13.6109 19.3482 14.1871C19.5505 15.1063 18.5327 15.8173 17.7399 15.3103ZM20.6729 12.7138C20.3539 13.213 19.6939 13.3484 19.2063 13.0367C18.7209 12.7265 18.5634 12.0747 18.8839 11.5716C19.0872 11.2527 19.4284 11.0806 19.7782 11.0806C20.2654 11.0806 20.7056 11.4188 20.8146 11.9136C20.8757 12.1909 20.8253 12.4752 20.6729 12.7138ZM21.1641 10.0599C20.8495 10.5523 20.1925 10.6994 19.6977 10.3829C19.2134 10.0734 19.054 9.42193 19.3751 8.91774C19.5761 8.6026 19.9153 8.42654 20.2703 8.42654C20.7468 8.42654 21.1951 8.75668 21.3059 9.25979V9.25998C21.3669 9.5371 21.3166 9.82117 21.1641 10.0599Z" stroke="#17689C" stroke-width="0.2" mask="url(#path-1-outside-1_751_3724)"/>
</svg>
